<svg width="1440" height="259" viewBox="0 0 1440 259" fill="none" xmlns="http://www.w3.org/2000/svg">
<g opacity="0.1">
<path d="M1416.14 2.88439L1404.95 1M1416.14 2.88439L1382.99 2.88439M1416.14 2.88439L1427.69 4.83066M1416.14 2.88439L1439.61 2.88439M1404.95 1L1409.02 1.00053L1413.05 1.00504L1416.99 1.01613L1420.81 1.03876L1424.47 1.07549L1427.92 1.13083L1431.12 1.2073L1434.1 1.30494L1436.65 1.44029L1438.97 1.59678L1439.61 1.65163L1439.61 2.88439M1404.95 1L1372.33 1M1382.99 2.88439L1372.33 1M1382.99 2.88439L1349.84 2.88438M1382.99 2.88439L1385.71 3.36492L1393.99 4.83065M1439.61 2.88439L1439.61 4.83066M1372.33 1L1339.72 0.999997M1339.72 0.999997L1307.1 0.999994M1339.72 0.999997L1349.84 2.88438M1307.1 0.999994L1274.48 0.999991M1307.1 0.999994L1316.69 2.88438M1349.84 2.88438L1316.69 2.88438M1349.84 2.88438L1360.3 4.83065M1274.48 0.999991L1241.87 0.999989M1274.48 0.999991L1283.54 2.88438M1316.69 2.88438L1283.54 2.88438M1316.69 2.88438L1326.6 4.83065M1241.87 0.999989L1209.25 0.999986M1241.87 0.999989L1250.39 2.88437M1283.54 2.88438L1250.39 2.88437M1283.54 2.88438L1292.9 4.83065M1209.25 0.999986L1176.63 0.999983M1209.25 0.999986L1217.24 2.88437M1250.39 2.88437L1217.24 2.88437M1250.39 2.88437L1252.56 3.36491L1253.66 3.60642L1259.2 4.83064M1176.63 0.999983L1144.02 0.99998M1176.63 0.999983L1184.09 2.88437M1217.24 2.88437L1184.09 2.88437M1217.24 2.88437L1219.28 3.36491L1225.5 4.83064M1144.02 0.99998L1111.4 0.999977M1144.02 0.99998L1150.94 2.88437M1184.09 2.88437L1150.94 2.88437M1184.09 2.88437L1191.8 4.83064M1111.4 0.999977L1078.78 0.999974M1111.4 0.999977L1117.79 2.88436M1150.94 2.88437L1117.79 2.88436M1150.94 2.88437L1152.71 3.3649L1153.6 3.60641L1158.1 4.83063M1078.78 0.999974L1046.17 0.999971M1078.78 0.999974L1084.64 2.88436M1117.79 2.88436L1084.64 2.88436M1117.79 2.88436L1124.4 4.83063M1046.17 0.999971L1013.55 0.999969M1046.17 0.999971L1051.49 2.88436M1084.64 2.88436L1051.49 2.88436M1084.64 2.88436L1086.14 3.3649L1086.89 3.60641L1090.7 4.83063M1013.55 0.999969L980.933 0.999966M1013.55 0.999969L1014.73 1.46541L1016.53 2.17035L1018.34 2.88435M1051.49 2.88436L1018.34 2.88435M1051.49 2.88436L1052.17 3.12387L1052.85 3.36489L1057 4.83063M980.933 0.999966L948.317 0.999963M980.933 0.999966L981.985 1.46541L985.194 2.88435M1018.34 2.88435L985.194 2.88435M1018.34 2.88435L1019.57 3.36489L1020.18 3.6064L1023.3 4.83062M948.317 0.999963L915.7 0.99996M948.317 0.999963L952.045 2.88435M985.194 2.88435L952.045 2.88435M985.194 2.88435L989.598 4.83062M915.7 0.99996L883.083 0.999957M915.7 0.99996L916.886 1.69939L918.088 2.40734L918.491 2.64534L918.896 2.88435M952.045 2.88435L918.896 2.88435M952.045 2.88435L952.52 3.12386L952.996 3.36488L953.475 3.6064L955.898 4.83062M883.083 0.999957L850.467 0.999954M883.083 0.999957L884.072 1.69939L884.404 1.93436L884.738 2.17034L885.747 2.88434M918.896 2.88435L885.747 2.88434M918.896 2.88435L919.711 3.36488L920.122 3.60639L920.534 3.84943L922.198 4.83061M850.467 0.999954L817.85 0.999951M850.467 0.999954L852.598 2.88434M885.747 2.88434L852.598 2.88434M885.747 2.88434L886.426 3.36488L887.802 4.3375L888.149 4.58356L888.499 4.83061M817.85 0.999951L818.047 1.23194L818.244 1.46539L819.245 2.64533L819.448 2.88434M817.85 0.999951L785.234 0.999949M852.598 2.88434L819.448 2.88434M852.598 2.88434L852.869 3.12386L853.141 3.36488L853.415 3.60639L854.798 4.83061M819.448 2.88434L786.299 2.88433M819.448 2.88434L821.099 4.8306M785.234 0.999949L752.616 0.999946M785.234 0.999949L786.299 2.88433M752.616 0.999946L720 0.999943M752.616 0.999946L752.814 1.69938L753.149 2.88433M786.299 2.88433L753.149 2.88433M786.299 2.88433L786.434 3.12385L786.57 3.36487L786.707 3.60638L787.399 4.8306M720 0.999943L687.384 0.99994M720 0.999943L720 2.88433M753.149 2.88433L720 2.88433M753.149 2.88433L753.7 4.8306M687.384 0.99994L654.766 0.999937M687.384 0.99994L687.186 1.69937L686.851 2.88433M720 2.88433L686.851 2.88433M720 2.88433L720 4.8306M654.766 0.999937L622.15 0.999934M654.766 0.999937L653.701 2.88432M686.851 2.88433L653.701 2.88432M686.851 2.88433L686.3 4.83059M622.15 0.999934L621.953 1.23193L621.756 1.46538L620.755 2.64531L620.552 2.88432M622.15 0.999934L589.534 0.999932M653.701 2.88432L620.552 2.88432M653.701 2.88432L653.566 3.12384L653.43 3.36486L653.293 3.60637L652.879 4.33748L652.601 4.83059M620.552 2.88432L587.402 2.88432M620.552 2.88432L618.901 4.83059M589.534 0.999932L556.916 0.999929M589.534 0.999932L587.673 2.64531L587.402 2.88432M556.916 0.999929L524.3 0.999926M556.916 0.999929L555.928 1.69936L555.596 1.93433L554.927 2.40731L554.591 2.6453L554.253 2.88431M587.402 2.88432L554.253 2.88431M587.402 2.88432L587.131 3.12383L586.859 3.36485L586.585 3.60636L585.201 4.83058M524.3 0.999926L491.683 0.999923M524.3 0.999926L523.114 1.69935L521.913 2.40731L521.509 2.6453L521.104 2.88431M554.253 2.88431L521.104 2.88431M554.253 2.88431L553.574 3.36485L552.198 4.33747L551.501 4.83058M491.683 0.999923L459.067 0.99992M491.683 0.999923L487.955 2.88431M521.104 2.88431L487.955 2.88431M521.104 2.88431L520.289 3.36485L519.878 3.60636L519.467 3.84939L517.802 4.83058M459.067 0.99992L426.45 0.999917M459.067 0.99992L458.015 1.46536L454.806 2.8843M487.955 2.88431L487.48 3.12382L484.102 4.83058M487.955 2.88431L454.806 2.8843M426.45 0.999917L393.83 0.999914M426.45 0.999917L421.66 2.8843M454.806 2.8843L421.66 2.8843M454.806 2.8843L454.263 3.12382L450.403 4.83057M393.83 0.999914L361.22 0.999912M393.83 0.999914L388.51 2.8843M421.66 2.8843L388.51 2.8843M421.66 2.8843L420.43 3.36484L419.82 3.60635L416.7 4.83057M361.22 0.999912L328.6 0.999909M361.22 0.999912L355.36 2.8843M388.51 2.8843L355.36 2.8843M388.51 2.8843L387.83 3.12381L387.15 3.36483L383 4.83057M328.6 0.999909L295.98 0.999906M328.6 0.999909L322.21 2.88429M355.36 2.8843L322.21 2.88429M355.36 2.8843L353.86 3.36483L353.11 3.60634L349.3 4.83056M295.98 0.999906L263.37 0.999903M295.98 0.999906L289.06 2.88429M322.21 2.88429L289.06 2.88429M322.21 2.88429L321.39 3.12381L315.6 4.83056M263.37 0.999903L230.75 0.9999M263.37 0.999903L255.91 2.88429M289.06 2.88429L255.91 2.88429M289.06 2.88429L287.29 3.36483L286.4 3.60634L281.9 4.83056M230.75 0.9999L198.13 0.999897M230.75 0.9999L222.76 2.88428M255.91 2.88429L222.76 2.88428M255.91 2.88429L248.2 4.83055M198.13 0.999897L165.52 0.999894M198.13 0.999897L189.61 2.88428M222.76 2.88428L189.61 2.88428M222.76 2.88428L220.72 3.36482L214.5 4.83055M165.52 0.999894L132.9 0.999892M165.52 0.999894L156.46 2.88428M189.61 2.88428L156.46 2.88428M189.61 2.88428L187.44 3.36482L186.34 3.60633L180.8 4.83055M132.9 0.999892L100.28 0.999889M132.9 0.999892L123.31 2.88428M156.46 2.88428L123.31 2.88428M156.46 2.88428L147.11 4.83055M100.28 0.999889L67.6701 0.999886M100.28 0.999889L90.1601 2.88427M123.31 2.88428L90.1601 2.88427M123.31 2.88428L113.4 4.83054M67.6701 0.999886L35.0501 0.999883M67.6701 0.999886L57.01 2.88427M90.1601 2.88427L57.01 2.88427M90.1601 2.88427L79.71 4.83054M35.0501 0.999883L30.98 1.0004L26.95 1.00492L23.01 1.01601L19.19 1.03864L15.5301 1.07537L12.08 1.13071L8.88003 1.20718L5.90005 1.30481L3.35 1.44017L1.03005 1.59666L0.390037 1.65151L0.390037 2.88427M35.0501 0.999883L23.86 2.88427M57.01 2.88427L23.86 2.88427M57.01 2.88427L54.3001 3.36481L46.01 4.83054M0.390037 2.88427L23.86 2.88427M0.390037 2.88427L0.390037 4.83053M23.86 2.88427L12.3101 4.83053M79.71 4.83054L68.9 6.84271M79.71 4.83054L113.4 4.83054M79.71 4.83054L46.01 4.83054M113.4 4.83054L103.16 6.84272M113.4 4.83054L147.11 4.83055M214.5 4.83055L205.97 6.84272M214.5 4.83055L248.2 4.83055M214.5 4.83055L180.8 4.83055M248.2 4.83055L240.24 6.84273M248.2 4.83055L281.9 4.83056M349.3 4.83056L343.04 6.84274M349.3 4.83056L383 4.83057M349.3 4.83056L315.6 4.83056M383 4.83057L379.47 6.08043L377.31 6.84274M383 4.83057L416.7 4.83057M484.102 4.83058L480.119 6.84275M484.102 4.83058L517.802 4.83058M484.102 4.83058L450.403 4.83057M517.802 4.83058L515.682 6.08044L514.388 6.84275M517.802 4.83058L551.501 4.83058M618.901 4.83059L618.479 5.32722L617.841 6.08045L617.41 6.58715L617.194 6.84276M618.901 4.83059L652.601 4.83059M618.901 4.83059L585.201 4.83058M652.601 4.83059L686.3 4.83059M753.7 4.8306L787.399 4.8306M753.7 4.8306L720 4.8306M787.399 4.8306L787.822 5.5773L788.393 6.58717L788.537 6.84278M787.399 4.8306L821.099 4.8306M888.499 4.83061L889.201 5.32724L891.344 6.84278M888.499 4.83061L922.198 4.83061M888.499 4.83061L854.798 4.83061M922.198 4.83061L924.318 6.08048L925.612 6.84279M922.198 4.83061L955.898 4.83062M1023.3 4.83062L1027.77 6.58719L1028.42 6.8428M1023.3 4.83062L1057 4.83063M1023.3 4.83062L989.598 4.83062M1057 4.83063L1060.53 6.08049L1062.69 6.8428M1057 4.83063L1090.7 4.83063M1158.1 4.83063L1165.49 6.84281M1158.1 4.83063L1191.8 4.83064M1158.1 4.83063L1124.4 4.83063M1191.8 4.83064L1199.76 6.84281M1191.8 4.83064L1225.5 4.83064M1292.9 4.83065L1302.57 6.84282M1292.9 4.83065L1259.2 4.83064M1292.9 4.83065L1326.6 4.83065M1326.6 4.83065L1336.84 6.84282M1326.6 4.83065L1360.3 4.83065M0.27004 20.5038L0.390035 20.5038M0.390035 20.5038L33.64 20.5038M0.390035 20.5038L0.390035 23.0855M0.390035 20.5038L0.390036 19.5945M33.64 20.5038L46.2901 18.0171M33.64 20.5038L20.5 23.0855M33.64 20.5038L71.77 20.5038M46.2901 18.0171L8.86001 18.0171M46.2901 18.0171L58.49 15.6205M46.2901 18.0171L83.72 18.0171M20.5 23.0855L6.83999 25.7684M20.5 23.0855L59.36 23.0855M20.5 23.0855L0.390035 23.0855M71.77 20.5038L83.72 18.0171M71.77 20.5038L59.36 23.0855M71.77 20.5038L109.9 20.5038M8.86001 18.0171L21.74 15.6205M8.86001 18.0171L0.390036 18.0171M8.86001 18.0171L0.390036 19.5945M58.49 15.6205L70.26 13.3089M58.49 15.6205L95.24 15.6205M58.49 15.6205L21.74 15.6205M83.72 18.0171L95.24 15.6205M83.72 18.0171L121.15 18.0171M21.74 15.6205L34.1601 13.3089M21.74 15.6205L0.390036 15.6205M0.390036 18.0171L0.390036 19.5945M0.390036 18.0171L0.390036 15.6205M46.14 11.0779L81.61 11.0779M46.14 11.0779L57.71 8.92383M46.14 11.0779L10.6801 11.0779M46.14 11.0779L34.1601 13.3089M81.61 11.0779L92.57 8.92383M81.61 11.0779L70.26 13.3089M81.61 11.0779L117.07 11.0779M57.71 8.92383L92.57 8.92383M57.71 8.92383L68.9 6.84271M57.71 8.92383L22.86 8.92383M10.6801 11.0779L22.86 8.92383M10.6801 11.0779L0.390036 11.0779M10.6801 11.0779L0.390036 12.8973M34.1601 13.3089L70.26 13.3089M34.1601 13.3089L0.390036 13.3089M92.57 8.92383L127.43 8.92384M92.57 8.92383L103.16 6.84272M70.26 13.3089L106.35 13.3089M117.07 11.0779L127.43 8.92384M117.07 11.0779L106.35 13.3089M117.07 11.0779L152.54 11.0779M68.9 6.84271L103.16 6.84272M68.9 6.84271L34.63 6.84271M22.86 8.92383L34.63 6.84271M22.86 8.92383L0.390037 8.92383M127.43 8.92384L162.29 8.92384M127.43 8.92384L137.43 6.84272M103.16 6.84272L137.43 6.84272M0.0200369 59.7536L0.390032 59.7536M0.390032 59.7536L30.7901 59.7536M0.390032 59.7536L0.390032 55.6311M0.390032 59.7536L0.390032 64.0813M30.7901 59.7536L47.11 55.6311M30.7901 59.7536L13.6601 64.0813M30.7901 59.7536L80.02 59.7536M47.11 55.6311L62.6801 51.6988M47.11 55.6311L95.1701 55.6311M47.11 55.6311L0.390032 55.6311M13.6601 64.0813L64.11 64.0813M13.6601 64.0813L0.390032 64.0813M13.6601 64.0813L0.390031 67.434M80.02 59.7536L95.1701 55.6311M80.02 59.7536L64.11 64.0813M80.02 59.7536L129.25 59.7536M62.6801 51.6988L15.72 51.6988M62.6801 51.6988L77.5401 47.9447M62.6801 51.6988L109.63 51.6988M95.1701 55.6311L109.63 51.6988M95.1701 55.6311L143.24 55.6311M0.390032 55.6311L0.390032 55.3151M15.72 51.6988L31.65 47.9447M15.72 51.6988L0.390033 51.6988M15.72 51.6988L0.390032 55.3151M31.65 47.9447L46.87 44.356M31.65 47.9447L77.5401 47.9447M31.65 47.9447L0.390033 47.9447M0.390033 51.6988L0.390032 55.3151M0.390033 51.6988L0.390033 47.9447M46.87 44.356L91.74 44.3561M46.87 44.356L61.4301 40.9234M46.87 44.356L1.99001 44.356M91.74 44.3561L105.33 40.9234M91.74 44.3561L77.5401 47.9447M91.74 44.3561L136.62 44.3561M61.4301 40.9234L105.33 40.9234M61.4301 40.9234L17.52 40.9234M61.4301 40.9234L75.37 37.6357M1.99001 44.356L17.52 40.9234M1.99001 44.356L0.390033 44.356M1.99001 44.356L0.390033 44.7103M105.33 40.9234L118.34 37.6357M105.33 40.9234L149.24 40.9234M77.5401 47.9447L123.43 47.9447M136.62 44.3561L149.24 40.9234M136.62 44.3561L123.43 47.9447M136.62 44.3561L181.49 44.3561M17.52 40.9234L32.39 37.6357M17.52 40.9234L0.390034 40.9234M75.37 37.6357L118.34 37.6357M75.37 37.6357L32.39 37.6357M75.37 37.6357L88.73 34.4844M118.34 37.6357L130.82 34.4844M118.34 37.6357L161.32 37.6357M149.24 40.9234L161.32 37.6357M149.24 40.9234L193.14 40.9234M101.56 31.4608L142.79 31.4608M101.56 31.4608L113.87 28.558M101.56 31.4608L60.33 31.4608M101.56 31.4608L88.73 34.4844M142.79 31.4608L154.28 28.558M142.79 31.4608L130.82 34.4844M142.79 31.4608L184.02 31.4608M113.87 28.558L154.28 28.558M113.87 28.558L73.46 28.558M113.87 28.558L125.7 25.7685M60.33 31.4608L19.1 31.4608M60.33 31.4608L73.46 28.558M60.33 31.4608L46.65 34.4844M88.73 34.4844L130.82 34.4844M88.73 34.4844L46.65 34.4844M154.28 28.558L165.32 25.7685M154.28 28.558L194.69 28.558M130.82 34.4844L172.9 34.4844M184.02 31.4608L194.69 28.558M184.02 31.4608L172.9 34.4844M184.02 31.4608L225.25 31.4608M73.46 28.558L33.0501 28.558M73.46 28.558L86.08 25.7685M125.7 25.7685L165.32 25.7685M125.7 25.7685L86.08 25.7685M125.7 25.7685L137.08 23.0856M165.32 25.7685L175.94 23.0856M165.32 25.7685L204.94 25.7685M194.69 28.558L204.94 25.7685M194.69 28.558L235.1 28.558M148.03 20.5038L186.16 20.5038M148.03 20.5038L158.58 18.0171M148.03 20.5038L109.9 20.5038M148.03 20.5038L137.08 23.0856M186.16 20.5038L196.01 18.0171M186.16 20.5038L175.94 23.0856M186.16 20.5038L224.29 20.5038M158.58 18.0171L196.01 18.0171M158.58 18.0171L121.15 18.0171M158.58 18.0171L168.74 15.6205M109.9 20.5038L121.15 18.0171M109.9 20.5038L98.22 23.0856M137.08 23.0856L175.94 23.0856M137.08 23.0856L98.22 23.0856M196.01 18.0171L205.49 15.6205M196.01 18.0171L233.43 18.0171M175.94 23.0856L214.8 23.0856M224.29 20.5038L233.43 18.0171M224.29 20.5038L214.8 23.0856M224.29 20.5038L262.42 20.5038M121.15 18.0171L131.99 15.6205M168.74 15.6205L205.49 15.6205M168.74 15.6205L131.99 15.6205M168.74 15.6205L178.55 13.309M205.49 15.6205L214.64 13.309M205.49 15.6205L242.24 15.6205M233.43 18.0171L242.24 15.6205M233.43 18.0171L270.86 18.0171M188.01 11.0779L223.47 11.0779M188.01 11.0779L197.14 8.92384M188.01 11.0779L152.54 11.0779M188.01 11.0779L178.55 13.309M223.47 11.0779L232 8.92385M223.47 11.0779L214.64 13.309M223.47 11.0779L258.94 11.0779M197.14 8.92384L232 8.92385M197.14 8.92384L205.97 6.84272M197.14 8.92384L162.29 8.92384M152.54 11.0779L162.29 8.92384M152.54 11.0779L142.45 13.3089M178.55 13.309L214.64 13.309M178.55 13.309L142.45 13.3089M232 8.92385L266.86 8.92385M232 8.92385L240.24 6.84273M214.64 13.309L250.74 13.309M258.94 11.0779L266.86 8.92385M258.94 11.0779L250.74 13.309M258.94 11.0779L294.41 11.0779M205.97 6.84272L240.24 6.84273M205.97 6.84272L171.7 6.84272M162.29 8.92384L171.7 6.84272M266.86 8.92385L301.71 8.92385M266.86 8.92385L274.51 6.84273M240.24 6.84273L274.51 6.84273M25.61 131.23L48.58 123.106M25.61 131.23L1.01002 139.929M25.61 131.23L95.0501 131.23M25.61 131.23L0.390026 131.23M48.58 123.106L70.08 115.503M48.58 123.106L115.72 123.106M48.58 123.106L0.390027 123.106M1.01002 139.929L72.91 139.929L95.0501 131.23M1.01002 139.929L0.390025 139.929M1.01002 139.929L0.390025 140.15M95.0501 131.23L115.72 123.106M95.0501 131.23L164.49 131.23M115.72 123.106L135.07 115.503L200.06 115.503L265.05 115.503M115.72 123.106L182.86 123.106M0.390027 123.106L0.390026 131.23L0.390025 139.929L0.390025 140.15M0.390027 123.106L0.390027 117.013M48.11 101.669L109.19 101.669M48.11 101.669L67.74 95.3579M48.11 101.669L27.27 108.371M48.11 101.669L0.390028 101.669M109.19 101.669L127.04 95.3579M109.19 101.669L90.24 108.371M109.19 101.669L170.27 101.669M67.74 95.3579L127.04 95.3579M67.74 95.3579L8.43996 95.3579M67.74 95.3579L86.25 89.4054M27.27 108.371L90.24 108.371M27.27 108.371L5.08998 115.503M27.27 108.371L0.390028 108.371M0.390028 101.669L0.390028 108.371M0.390028 101.669L0.390029 97.7323L0.390029 95.3579M127.04 95.3579L143.87 89.4054M127.04 95.3579L186.33 95.3579M90.24 108.371L70.08 115.503M90.24 108.371L153.22 108.371M170.27 101.669L186.33 95.3579M170.27 101.669L153.22 108.371M170.27 101.669L231.35 101.669M8.43996 95.3579L28.64 89.4054M8.43996 95.3579L0.390029 95.3579M8.43996 95.3579L0.390029 97.7328M86.25 89.4054L143.87 89.4054M86.25 89.4054L28.64 89.4054M86.25 89.4054L103.75 83.7814M143.87 89.4054L159.77 83.7815M143.87 89.4054L201.48 89.4054M186.33 95.3579L201.48 89.4054M186.33 95.3579L245.63 95.3579M120.3 78.4594L174.82 78.4594M120.3 78.4594L135.99 73.4162M120.3 78.4594L65.78 78.4594M120.3 78.4594L103.75 83.7814M174.82 78.4594L189.08 73.4162M174.82 78.4594L159.77 83.7815M174.82 78.4594L229.34 78.4594M135.99 73.4162L189.08 73.4162M135.99 73.4162L82.89 73.4162M135.99 73.4162L150.87 68.63M65.78 78.4594L11.26 78.4594M65.78 78.4594L82.89 73.4162M65.78 78.4594L47.72 83.7814M103.75 83.7814L159.77 83.7815M103.75 83.7814L47.72 83.7814M189.08 73.4162L202.61 68.63M189.08 73.4162L242.17 73.4162M159.77 83.7815L215.79 83.7815M229.34 78.4594L242.17 73.4162M229.34 78.4594L215.79 83.7815M229.34 78.4594L283.85 78.4594M82.89 73.4162L29.8001 73.4162M82.89 73.4162L99.13 68.63M150.87 68.63L202.61 68.63M150.87 68.63L99.13 68.63M150.87 68.63L165.02 64.0813M202.61 68.63L215.47 64.0814M202.61 68.63L254.35 68.63M242.17 73.4162L254.35 68.63M242.17 73.4162L295.26 73.4162M178.48 59.7536L227.71 59.7536M178.48 59.7536L191.3 55.6311M178.48 59.7536L129.25 59.7536M178.48 59.7536L165.02 64.0813M227.71 59.7536L239.36 55.6311M227.71 59.7536L215.47 64.0814M227.71 59.7536L276.94 59.7536M191.3 55.6311L239.36 55.6311M191.3 55.6311L143.24 55.6311M191.3 55.6311L203.53 51.6988M129.25 59.7536L143.24 55.6311M129.25 59.7536L114.57 64.0813M165.02 64.0813L215.47 64.0814M165.02 64.0813L114.57 64.0813M239.36 55.6311L250.48 51.6988M239.36 55.6311L287.43 55.6311M215.47 64.0814L265.92 64.0814M276.94 59.7536L287.43 55.6311M276.94 59.7536L265.92 64.0814M276.94 59.7536L326.17 59.7536M143.24 55.6311L156.58 51.6988M203.53 51.6988L250.48 51.6988M203.53 51.6988L156.58 51.6988M203.53 51.6988L215.21 47.9447M250.48 51.6988L261.1 47.9447M250.48 51.6988L297.43 51.6988M287.43 55.6311L297.43 51.6988M287.43 55.6311L335.49 55.6311M226.37 44.3561L271.24 44.3561M226.37 44.3561L237.05 40.9234M226.37 44.3561L181.49 44.3561M226.37 44.3561L215.21 47.9447M271.24 44.3561L280.95 40.9234M271.24 44.3561L261.1 47.9447M271.24 44.3561L316.12 44.3561M237.05 40.9234L280.95 40.9234M237.05 40.9234L193.14 40.9234M237.05 40.9234L247.27 37.6357M181.49 44.3561L193.14 40.9234M181.49 44.3561L169.32 47.9447M215.21 47.9447L261.1 47.9447M215.21 47.9447L169.32 47.9447M280.95 40.9234L290.25 37.6357M280.95 40.9234L324.86 40.9235M261.1 47.9447L306.99 47.9447M316.12 44.3561L324.86 40.9235M316.12 44.3561L306.99 47.9447M316.12 44.3561L361 44.3561M193.14 40.9234L204.3 37.6357M247.27 37.6357L290.25 37.6357M247.27 37.6357L204.3 37.6357M247.27 37.6357L257.07 34.4844M290.25 37.6357L299.16 34.4844M290.25 37.6357L333.22 37.6357M324.86 40.9235L333.22 37.6357M324.86 40.9235L368.76 40.9235M266.48 31.4608L307.7 31.4608M266.48 31.4608L275.5 28.5581M266.48 31.4608L225.25 31.4608M266.48 31.4608L257.07 34.4844M307.7 31.4608L308.75 31.092L315.91 28.5581M307.7 31.4608L299.16 34.4844M307.7 31.4608L348.93 31.4608M275.5 28.5581L315.91 28.5581M275.5 28.5581L235.1 28.558M275.5 28.5581L284.18 25.7685M225.25 31.4608L235.1 28.558M225.25 31.4608L214.99 34.4844M257.07 34.4844L299.16 34.4844M257.07 34.4844L214.99 34.4844M315.91 28.5581L323.8 25.7685M315.91 28.5581L356.32 28.5581M299.16 34.4844L341.24 34.4844M348.93 31.4608L356.32 28.5581M348.93 31.4608L341.24 34.4844M348.93 31.4608L390.16 31.4608M235.1 28.558L244.56 25.7685M284.18 25.7685L323.8 25.7685M284.18 25.7685L244.56 25.7685M284.18 25.7685L292.52 23.0856M323.8 25.7685L330.45 23.4156L331.39 23.0856M323.8 25.7685L363.42 25.7685M356.32 28.5581L363.42 25.7685M356.32 28.5581L396.73 28.5581M300.56 20.5038L338.69 20.5038M300.56 20.5038L308.29 18.0171M300.56 20.5038L262.42 20.5038M300.56 20.5038L292.52 23.0856M338.69 20.5038L345.72 18.0171M338.69 20.5038L335.98 21.4608L331.39 23.0856M338.69 20.5038L376.82 20.5038M308.29 18.0171L345.72 18.0171M308.29 18.0171L270.86 18.0171M308.29 18.0171L315.74 15.6205M262.42 20.5038L269.82 18.3226L270.86 18.0171M262.42 20.5038L253.66 23.0856M292.52 23.0856L331.39 23.0856M292.52 23.0856L253.66 23.0856M345.72 18.0171L352.49 15.6205M345.72 18.0171L383.15 18.0171M331.39 23.0856L370.25 23.0856M376.82 20.5038L383.15 18.0171M376.82 20.5038L375.2 21.1398L370.25 23.0856M376.82 20.5038L414.95 20.5038M270.86 18.0171L278.99 15.6205M315.74 15.6205L352.49 15.6205M315.74 15.6205L278.99 15.6205M315.74 15.6205L322.93 13.309M352.49 15.6205L359.03 13.309M352.49 15.6205L389.25 15.6205M383.15 18.0171L389.25 15.6205M383.15 18.0171L420.57 18.0171M329.87 11.0779L365.34 11.0779M329.87 11.0779L336.57 8.92386M329.87 11.0779L294.41 11.0779M329.87 11.0779L322.93 13.309M365.34 11.0779L369.93 9.4557L370.68 9.18902L371.43 8.92386M365.34 11.0779L359.03 13.309M365.34 11.0779L400.8 11.0779M336.57 8.92386L371.43 8.92386M336.57 8.92386L343.04 6.84274M336.57 8.92386L301.71 8.92385M294.41 11.0779L301.71 8.92385M294.41 11.0779L286.84 13.309M322.93 13.309L359.03 13.309M322.93 13.309L286.84 13.309M371.43 8.92386L406.29 8.92386M371.43 8.92386L377.31 6.84274M359.03 13.309L395.13 13.309M400.8 11.0779L406.29 8.92386M400.8 11.0779L395.13 13.309M400.8 11.0779L436.27 11.0779M343.04 6.84274L377.31 6.84274M343.04 6.84274L308.78 6.84273M301.71 8.92385L308.78 6.84273M406.29 8.92386L441.143 8.92387M406.29 8.92386L411.58 6.84274M377.31 6.84274L411.58 6.84274M50.77 223.769L146.37 223.769M50.77 223.769L80.87 208.56M50.77 223.769L17.6899 240.483M50.77 223.769L0.390018 223.769M146.37 223.769L172.18 208.56M146.37 223.769L118.02 240.483M146.37 223.769L241.98 223.769M80.87 208.56L172.18 208.56M80.87 208.56L108.38 194.659M80.87 208.56L0.390019 208.56M17.6899 240.483L118.02 240.483M17.6899 240.483L0.390016 249.224M17.6899 240.483L0.390016 240.483M0.390018 223.769L0.390016 240.483M0.390018 223.769L0.390019 208.56M172.18 208.56L195.76 194.659M172.18 208.56L263.48 208.56M118.02 240.483L86.72 258.934M118.02 240.483L218.35 240.483M241.98 223.769L263.48 208.56M241.98 223.769L218.35 240.483M241.98 223.769L337.58 223.769M108.38 194.659L195.76 194.659M108.38 194.659L21.01 194.659M108.38 194.659L133.63 181.906M0.390019 208.56L0.390019 203.776M195.76 194.659L217.39 181.906M195.76 194.659L283.13 194.659M263.48 208.56L283.13 194.659M263.48 208.56L354.78 208.56M156.87 170.164L237.31 170.164M156.87 170.164L178.33 159.317M156.87 170.164L76.4201 170.164M156.87 170.164L133.63 181.906M237.31 170.164L255.72 159.317M237.31 170.164L217.39 181.906M237.31 170.164L317.76 170.164M178.33 159.317L255.72 159.317M178.33 159.317L100.95 159.317M178.33 159.317L198.23 149.268M76.4201 170.164L100.95 159.317M76.4201 170.164L49.86 181.906M76.4201 170.164L0.390022 170.164M133.63 181.906L217.39 181.906M255.72 159.317L272.77 149.268M255.72 159.317L333.1 159.317M217.39 181.906L301.16 181.906M317.76 170.164L333.1 159.317M317.76 170.164L398.21 170.164M100.95 159.317L23.57 159.317M100.95 159.317L123.69 149.268M198.23 149.268L272.77 149.268M198.23 149.268L123.69 149.268M198.23 149.268L216.71 139.929L288.61 139.929L360.51 139.929M272.77 149.268L288.61 139.929L303.37 131.23M272.77 149.268L347.3 149.268M333.1 159.317L347.3 149.268M333.1 159.317L410.48 159.317M303.37 131.23L233.93 131.23L250.01 123.106M250.01 123.106L317.15 123.106M250.01 123.106L182.86 123.106M250.01 123.106L265.05 115.503M164.49 131.23L233.93 131.23L216.71 139.929L144.81 139.929L164.49 131.23ZM164.49 131.23L182.86 123.106M303.37 131.23L317.15 123.106M303.37 131.23L372.8 131.23M317.15 123.106L330.05 115.503M317.15 123.106L384.29 123.106M372.8 131.23L384.29 123.106M372.8 131.23L442.244 131.23M182.86 123.106L200.06 115.503L216.19 108.371M265.05 115.503L279.17 108.371M384.29 123.106L395.04 115.503L460.031 115.503L525.023 115.503M384.29 123.106L451.432 123.106M292.43 101.669L353.52 101.669M292.43 101.669L304.93 95.3579M292.43 101.669L231.35 101.669M292.43 101.669L279.17 108.371M353.52 101.669L364.22 95.3579M353.52 101.669L342.15 108.371M353.52 101.669L414.6 101.669M304.93 95.3579L364.22 95.3579M304.93 95.3579L245.63 95.3579M304.93 95.3579L316.71 89.4054M231.35 101.669L245.63 95.3579M231.35 101.669L216.19 108.371M279.17 108.371L342.15 108.371M279.17 108.371L216.19 108.371M364.22 95.3579L374.32 89.4054M364.22 95.3579L423.52 95.3579M342.15 108.371L330.05 115.503M342.15 108.371L405.12 108.371M414.6 101.669L423.52 95.3579M414.6 101.669L405.12 108.371M414.6 101.669L475.677 101.669M245.63 95.3579L259.09 89.4054M316.71 89.4054L374.32 89.4054M316.71 89.4054L259.09 89.4054M316.71 89.4054L327.84 83.7815M374.32 89.4054L383.86 83.7815M374.32 89.4054L431.93 89.4054M423.52 95.3579L431.93 89.4054M423.52 95.3579L482.815 95.3579M338.37 78.4594L392.89 78.4594M338.37 78.4594L348.35 73.4162M338.37 78.4594L283.85 78.4594M338.37 78.4594L327.84 83.7815M392.89 78.4594L401.45 73.4162M392.89 78.4594L383.86 83.7815M392.89 78.4594L447.409 78.4595M348.35 73.4162L401.45 73.4162M348.35 73.4162L295.26 73.4162M348.35 73.4162L357.83 68.63M283.85 78.4594L295.26 73.4162M283.85 78.4594L271.82 83.7815M327.84 83.7815L383.86 83.7815M327.84 83.7815L271.82 83.7815M401.45 73.4162L409.57 68.63M401.45 73.4162L454.539 73.4162M383.86 83.7815L439.88 83.7815M447.409 78.4595L454.539 73.4162M447.409 78.4595L439.88 83.7815M447.409 78.4595L501.927 78.4595M295.26 73.4162L306.09 68.63M357.83 68.63L409.57 68.63M357.83 68.63L306.09 68.63M357.83 68.63L366.83 64.0814M409.57 68.63L417.28 64.0814M409.57 68.63L461.305 68.63M454.539 73.4162L461.305 68.63M454.539 73.4162L507.631 73.4162M375.4 59.7536L424.62 59.7536M375.4 59.7536L383.56 55.6311M375.4 59.7536L326.17 59.7536M375.4 59.7536L366.83 64.0814M424.62 59.7536L431.62 55.6311M424.62 59.7536L417.28 64.0814M424.62 59.7536L473.854 59.7536M383.56 55.6311L431.62 55.6311M383.56 55.6311L335.49 55.6311M383.56 55.6311L391.34 51.6989M326.17 59.7536L335.49 55.6311M326.17 59.7536L316.38 64.0814M366.83 64.0814L417.28 64.0814M366.83 64.0814L316.38 64.0814M431.62 55.6311L438.29 51.6989M431.62 55.6311L479.682 55.6311M417.28 64.0814L467.735 64.0814M473.854 59.7536L479.682 55.6311M473.854 59.7536L467.735 64.0814M473.854 59.7536L523.083 59.7536M335.49 55.6311L344.39 51.6988M391.34 51.6989L438.29 51.6989M391.34 51.6989L344.39 51.6988M391.34 51.6989L398.77 47.9447M438.29 51.6989L444.659 47.9447M438.29 51.6989L485.241 51.6989M479.682 55.6311L483.188 53.152L485.241 51.6989M479.682 55.6311L527.746 55.6311M405.87 44.3561L450.747 44.3561M405.87 44.3561L412.67 40.9235M405.87 44.3561L361 44.3561M405.87 44.3561L398.77 47.9447M450.747 44.3561L456.57 40.9235M450.747 44.3561L444.659 47.9447M450.747 44.3561L495.622 44.3561M412.67 40.9235L456.57 40.9235M412.67 40.9235L368.76 40.9235M412.67 40.9235L419.17 37.6357M361 44.3561L368.76 40.9235M361 44.3561L352.88 47.9447M398.77 47.9447L444.659 47.9447M398.77 47.9447L352.88 47.9447M456.57 40.9235L462.148 37.6358M456.57 40.9235L500.476 40.9235M444.659 47.9447L490.549 47.9447M495.622 44.3561L500.476 40.9235M495.622 44.3561L494.375 45.2382L490.549 47.9447M495.622 44.3561L540.497 44.3561M368.76 40.9235L376.2 37.6357M419.17 37.6357L462.148 37.6358M419.17 37.6357L376.2 37.6357M419.17 37.6357L425.41 34.4844M462.148 37.6358L464.849 36.0432L467.494 34.4844M462.148 37.6358L505.123 37.6358M500.476 40.9235L505.123 37.6358M500.476 40.9235L544.38 40.9235M431.39 31.4608L472.624 31.4608M431.39 31.4608L437.14 28.5581M431.39 31.4608L390.16 31.4608M431.39 31.4608L425.41 34.4844M472.624 31.4608L471.993 31.8322L467.494 34.4844M472.624 31.4608L477.548 28.5581M472.624 31.4608L513.853 31.4609M437.14 28.5581L477.548 28.5581M437.14 28.5581L396.73 28.5581M437.14 28.5581L442.661 25.7685M390.16 31.4608L396.73 28.5581M390.16 31.4608L383.33 34.4844M425.41 34.4844L467.494 34.4844M425.41 34.4844L383.33 34.4844M467.494 34.4844L509.579 34.4844M477.548 28.5581L482.281 25.7685M477.548 28.5581L517.957 28.5581M513.853 31.4609L517.957 28.5581M513.853 31.4609L509.579 34.4844M513.853 31.4609L555.082 31.4609M396.73 28.5581L403.04 25.7685M442.661 25.7685L482.281 25.7685M442.661 25.7685L403.04 25.7685M442.661 25.7685L447.971 23.0856M482.281 25.7685L486.832 23.0856M482.281 25.7685L521.9 25.7685M517.957 28.5581L521.9 25.7685M517.957 28.5581L558.365 28.5581M453.081 20.5038L491.212 20.5038M453.081 20.5038L458.003 18.0172M453.081 20.5038L414.95 20.5038M453.081 20.5038L447.971 23.0856M491.212 20.5038L495.431 18.0172M491.212 20.5038L489.589 21.4608L488.494 22.1059L486.832 23.0856M491.212 20.5038L529.343 20.5038M458.003 18.0172L495.431 18.0172M458.003 18.0172L420.57 18.0171M458.003 18.0172L462.746 15.6206M414.95 20.5038L420.57 18.0171M414.95 20.5038L409.11 23.0856M447.971 23.0856L486.832 23.0856M447.971 23.0856L409.11 23.0856M495.431 18.0172L496.973 17.1079L497.99 16.5086L499.497 15.6206M495.431 18.0172L532.859 18.0172M486.832 23.0856L525.693 23.0856M529.343 20.5038L530.235 19.8734L532.859 18.0172M529.343 20.5038L528.895 20.8213L528.444 21.1398L527.079 22.1059L526.618 22.431L525.693 23.0856M529.343 20.5038L567.474 20.5038M420.57 18.0171L426 15.6206M462.746 15.6206L499.497 15.6206M462.746 15.6206L426 15.6206M462.746 15.6206L466.193 13.8786L467.322 13.309M499.497 15.6206L501.475 14.4542L503.418 13.309M499.497 15.6206L536.248 15.6206M532.859 18.0172L533.29 17.7127L533.718 17.4093L535.412 16.2113L536.248 15.6206M532.859 18.0172L570.288 18.0172M471.737 11.0779L507.202 11.0779M471.737 11.0779L474.948 9.45571L476 8.92387M471.737 11.0779L436.27 11.0779M471.737 11.0779L467.882 13.0257L467.322 13.309M507.202 11.0779L509.956 9.45571L510.407 9.18903L510.857 8.92387M507.202 11.0779L505.327 12.1834L503.418 13.309M507.202 11.0779L542.669 11.0779M476 8.92387L510.857 8.92387M476 8.92387L480.119 6.84275M476 8.92387L441.143 8.92387M436.27 11.0779L441.143 8.92387M436.27 11.0779L431.22 13.309M467.322 13.309L503.418 13.309M467.322 13.309L431.22 13.309M510.857 8.92387L545.714 8.92387M510.857 8.92387L514.388 6.84275M503.418 13.309L539.515 13.309M542.669 11.0779L545.714 8.92387M542.669 11.0779L539.515 13.309M542.669 11.0779L578.135 11.078M480.119 6.84275L514.388 6.84275M480.119 6.84275L445.851 6.84275M441.143 8.92387L444.689 7.35648L445.851 6.84275M545.714 8.92387L580.571 8.92388M545.714 8.92387L547.93 7.35649L548.657 6.84275M514.388 6.84275L548.657 6.84275M433.19 223.769L528.791 223.769M433.19 223.769L446.088 208.56M433.19 223.769L337.58 223.769M433.19 223.769L419.01 240.483M528.791 223.769L537.392 208.56M528.791 223.769L519.34 240.483M528.791 223.769L624.396 223.769L628.696 208.56M446.088 208.56L537.392 208.56M446.088 208.56L354.78 208.56M446.088 208.56L457.879 194.659M337.58 223.769L354.78 208.56M337.58 223.769L318.68 240.482M419.01 240.483L519.34 240.483M419.01 240.483L403.36 258.934M419.01 240.483L318.68 240.482M537.392 208.56L545.253 194.659M537.392 208.56L628.696 208.56M519.34 240.483L508.905 258.934M519.34 240.483L619.67 240.482M354.78 208.56L370.51 194.659M457.879 194.659L545.253 194.659M457.879 194.659L370.51 194.659M457.879 194.659L468.696 181.906M545.253 194.659L552.465 181.906M545.253 194.659L632.626 194.659M628.696 208.56L632.626 194.659M628.696 208.56L720 208.56M478.657 170.164L559.104 170.164M478.657 170.164L487.858 159.317M478.657 170.164L398.21 170.164M478.657 170.164L468.696 181.906M559.104 170.164L565.238 159.317M559.104 170.164L552.465 181.906M559.104 170.164L639.553 170.164M487.858 159.317L565.238 159.317M487.858 159.317L410.48 159.317M487.858 159.317L496.383 149.268M398.21 170.164L410.48 159.317M398.21 170.164L384.93 181.906M468.696 181.906L552.465 181.906M565.238 159.317L570.922 149.268M565.238 159.317L642.619 159.317M552.465 181.906L636.232 181.906M639.553 170.164L642.619 159.317M639.553 170.164L720 170.164M410.48 159.317L421.84 149.268M496.383 149.268L570.922 149.268M496.383 149.268L421.84 149.268M496.383 149.268L504.304 139.929L576.203 139.929L648.101 139.929M570.922 149.268L576.203 139.929L581.122 131.23M570.922 149.268L645.461 149.268M642.619 159.317L645.461 149.268M642.619 159.317L720 159.317M581.122 131.23L511.683 131.23L518.574 123.106M518.574 123.106L585.716 123.106M518.574 123.106L451.432 123.106M518.574 123.106L525.023 115.503M442.244 131.23L511.683 131.23L504.304 139.929L432.4 139.929L442.244 131.23ZM442.244 131.23L451.432 123.106M581.122 131.23L585.716 123.106M581.122 131.23L650.561 131.23M585.716 123.106L590.016 115.503M585.716 123.106L652.858 123.106M650.561 131.23L652.858 123.106M650.561 131.23L720 131.23L789.439 131.23L791.899 139.929L720 139.929L720 131.23L720 123.106M451.432 123.106L460.031 115.503L468.097 108.371M525.023 115.503L531.073 108.371M652.858 123.106L655.008 115.503L720 115.503L784.992 115.503M652.858 123.106L720 123.106M536.758 101.669L597.838 101.669M536.758 101.669L542.111 95.3579M536.758 101.669L475.677 101.669M536.758 101.669L531.073 108.371M597.838 101.669L601.407 95.3579M597.838 101.669L594.048 108.371M597.838 101.669L658.919 101.669M542.111 95.3579L601.407 95.3579M542.111 95.3579L482.815 95.3579M542.111 95.3579L547.16 89.4054M475.677 101.669L482.815 95.3579M475.677 101.669L468.097 108.371M531.073 108.371L594.048 108.371M531.073 108.371L468.097 108.371M601.407 95.3579L604.774 89.4054M601.407 95.3579L660.704 95.3579M594.048 108.371L590.016 115.503M594.048 108.371L657.024 108.371M658.919 101.669L660.704 95.3579M658.919 101.669L657.024 108.371M658.919 101.669L720 101.669M482.815 95.3579L489.547 89.4054M547.16 89.4054L604.774 89.4054M547.16 89.4054L489.547 89.4054M547.16 89.4054L551.931 83.7815M604.774 89.4054L607.954 83.7815M604.774 89.4054L662.387 89.4054M660.704 95.3579L662.387 89.4054M660.704 95.3579L720 95.3584M556.445 78.4595L610.964 78.4595M556.445 78.4595L560.723 73.4162M556.445 78.4595L501.927 78.4595M556.445 78.4595L551.931 83.7815M610.964 78.4595L613.815 73.4162M610.964 78.4595L607.954 83.7815M610.964 78.4595L665.482 78.4595M560.723 73.4162L613.815 73.4162M560.723 73.4162L507.631 73.4162M560.723 73.4162L564.783 68.63M501.927 78.4595L507.631 73.4162M501.927 78.4595L495.907 83.7815M551.931 83.7815L607.954 83.7815M551.931 83.7815L495.907 83.7815M613.815 73.4162L616.522 68.63M613.815 73.4162L666.908 73.4162M607.954 83.7815L663.977 83.7815M665.482 78.4595L666.908 73.4162M665.482 78.4595L663.977 83.7815M665.482 78.4595L720 78.4595M507.631 73.4162L513.044 68.63M564.783 68.63L616.522 68.63M564.783 68.63L513.044 68.63M564.783 68.63L568.642 64.0814M616.522 68.63L619.094 64.0814M616.522 68.63L668.261 68.63M666.908 73.4162L668.261 68.63M666.908 73.4162L720 73.4167M572.312 59.7536L621.541 59.7536M572.312 59.7536L575.809 55.6311M572.312 59.7536L523.083 59.7536M572.312 59.7536L568.642 64.0814M621.541 59.7536L623.873 55.6311M621.541 59.7536L619.094 64.0814M621.541 59.7536L670.771 59.7536M575.809 55.6311L623.873 55.6311M575.809 55.6311L527.746 55.6311M575.809 55.6311L577.079 54.1347L579.145 51.6989M523.083 59.7536L527.746 55.6311M523.083 59.7536L518.188 64.0814M568.642 64.0814L619.094 64.0814M568.642 64.0814L518.188 64.0814M623.873 55.6311L626.097 51.6989M623.873 55.6311L671.937 55.6312M619.094 64.0814L669.547 64.0814M670.771 59.7536L671.937 55.6312M670.771 59.7536L669.547 64.0814M670.771 59.7536L720 59.7536M527.746 55.6311L532.193 51.6989M579.145 51.6989L626.097 51.6989M579.145 51.6989L532.193 51.6989M579.145 51.6989L582.329 47.9447M626.097 51.6989L628.219 47.9447M626.097 51.6989L673.048 51.6989M671.937 55.6312L673.048 51.6989M671.937 55.6312L720 55.6316M585.373 44.3561L630.249 44.3561M585.373 44.3561L588.285 40.9235M585.373 44.3561L540.497 44.3561M585.373 44.3561L583.104 47.0325L582.329 47.9447M630.249 44.3561L630.987 43.0514L632.19 40.9235M630.249 44.3561L628.219 47.9447M630.249 44.3561L675.125 44.3561M588.285 40.9235L588.64 40.5048L591.074 37.6358M588.285 40.9235L632.19 40.9235M588.285 40.9235L544.38 40.9235M540.497 44.3561L544.38 40.9235M540.497 44.3561L540 44.7964L538.491 46.1303L536.439 47.9447M582.329 47.9447L628.219 47.9447M582.329 47.9447L536.439 47.9447M632.19 40.9235L632.897 39.6741L633.129 39.262L633.362 38.8524L634.049 37.6358M632.19 40.9235L676.095 40.9235M628.219 47.9447L674.11 47.9447M675.125 44.3561L676.095 40.9235M675.125 44.3561L674.11 47.9447M675.125 44.3561L720 44.3561M591.074 37.6358L634.049 37.6358M591.074 37.6358L548.099 37.6358M591.074 37.6358L593.747 34.4844M544.38 40.9235L548.099 37.6358M634.049 37.6358L634.727 36.4387L634.949 36.0432L635.832 34.4844M634.049 37.6358L677.025 37.6358M676.095 40.9235L676.213 40.5048L677.025 37.6358M676.095 40.9235L720 40.9235M596.311 31.4609L637.541 31.4609M596.311 31.4609L597.555 29.9951L597.862 29.6334L598.167 29.2731L598.472 28.9148L598.774 28.5581M596.311 31.4609L555.082 31.4609M596.311 31.4609L593.747 34.4844M637.541 31.4609L638.778 29.2731L638.981 28.9148L639.182 28.5581M637.541 31.4609L635.832 34.4844M637.541 31.4609L678.771 31.4609M598.774 28.5581L639.182 28.5581M598.774 28.5581L558.365 28.5581M598.774 28.5581L600.264 26.802L600.557 26.4553L601.14 25.7685M555.082 31.4609L557.557 29.2731L558.365 28.5581M555.082 31.4609L553.816 32.5804L552.53 33.7166L551.662 34.4844M593.747 34.4844L635.832 34.4844M593.747 34.4844L551.662 34.4844M639.182 28.5581L640.176 26.802L640.372 26.4553L640.566 26.1112L640.76 25.7685M639.182 28.5581L679.592 28.5581M635.832 34.4844L677.915 34.4844M678.771 31.4609L679.592 28.5581M678.771 31.4609L678.454 32.5804L678.133 33.7166L677.915 34.4844M678.771 31.4609L720 31.4609M558.365 28.5581L561.52 25.7685M601.14 25.7685L640.76 25.7685M601.14 25.7685L561.52 25.7685M601.14 25.7685L603.416 23.0856M640.76 25.7685L642.277 23.0856M640.76 25.7685L680.38 25.7685M679.592 28.5581L680.38 25.7685M679.592 28.5581L720 28.5586M605.606 20.5038L643.738 20.5038M605.606 20.5038L607.716 18.0172M605.606 20.5038L567.474 20.5038M605.606 20.5038L605.066 21.1398L604.247 22.1059L603.416 23.0856M643.738 20.5038L643.558 20.8213L642.463 22.7575L642.277 23.0856M643.738 20.5038L645.144 18.0172M643.738 20.5038L681.869 20.5038M607.716 18.0172L645.144 18.0172M607.716 18.0172L570.288 18.0172M607.716 18.0172L609.749 15.6206M567.474 20.5038L569.941 18.3226L570.288 18.0172M567.474 20.5038L567.116 20.8213L566.755 21.1398L566.393 21.4609L564.555 23.0856M603.416 23.0856L642.277 23.0856M603.416 23.0856L564.555 23.0856M642.277 23.0856L681.139 23.0856M645.144 18.0172L645.658 17.1079L645.827 16.8075L645.997 16.5087L646.499 15.6206M645.144 18.0172L682.572 18.0172M681.869 20.5038L682.399 18.6295L682.485 18.3221L682.572 18.0167M681.869 20.5038L681.139 23.0856M681.869 20.5038L720 20.5038M570.288 18.0172L572.998 15.6206M613.602 11.078L649.067 11.078M613.602 11.078L614.978 9.45572L615.428 8.92388M613.602 11.078L578.135 11.078M613.602 11.078L612.899 11.9052L612.664 12.1834L612.426 12.4632L611.709 13.309M649.067 11.078L649.222 10.8047L649.529 10.2618L649.834 9.72291L650.285 8.92388M649.067 11.078L648.442 12.1834L648.285 12.4632L647.966 13.0257L647.806 13.309M649.067 11.078L684.534 11.078M615.428 8.92388L650.285 8.92388M615.428 8.92388L616.976 7.09888L617.194 6.84276M615.428 8.92388L580.571 8.92388M578.135 11.078L580.571 8.92388M578.135 11.078L575.612 13.309M611.709 13.309L647.806 13.309M611.709 13.309L611.468 13.5928L611.225 13.8781L610.983 14.1654L610.737 14.4537L610.492 14.7435L610.245 15.0339L609.749 15.6201M611.709 13.309L575.612 13.309M650.285 8.92388L650.435 8.65971L650.584 8.39707L650.732 8.13541L650.879 7.87427L651.318 7.09888L651.463 6.84276M650.285 8.92388L685.143 8.92389M647.806 13.309L647.645 13.5928L647.484 13.8781L647.321 14.1654L647.159 14.4537L646.83 15.0339L646.665 15.3262L646.499 15.6201M647.806 13.309L683.903 13.3085M617.194 6.84276L582.925 6.84276M580.571 8.92388L581.759 7.87427L582.636 7.09887L582.925 6.84276M815.604 223.769L911.209 223.769M815.604 223.769L811.304 208.56M815.604 223.769L720 223.769M815.604 223.769L820.33 240.483M911.209 223.769L902.608 208.56M911.209 223.769L920.66 240.483M911.209 223.769L1006.81 223.769L993.912 208.56M811.304 208.56L902.608 208.56M811.304 208.56L720 208.56M811.304 208.56L807.374 194.659M820.33 240.483L920.66 240.483M820.33 240.483L825.548 258.934M820.33 240.483L720 240.482M902.608 208.56L894.747 194.659M902.608 208.56L993.912 208.56M920.66 240.483L931.095 258.934M920.66 240.483L1020.99 240.482M720 208.56L720 194.659M720 208.56L720 223.768M807.374 194.659L894.747 194.659M807.374 194.659L720 194.659M807.374 194.659L803.768 181.906M894.747 194.659L887.536 181.906M894.747 194.659L982.121 194.659M993.912 208.56L982.121 194.659M993.912 208.56L1085.22 208.56M800.447 170.164L880.896 170.164M800.447 170.164L797.381 159.317M800.447 170.164L720 170.164M800.447 170.164L803.768 181.906M880.896 170.164L874.762 159.317M880.896 170.164L887.536 181.906M880.896 170.164L961.343 170.164M797.381 159.317L874.762 159.317M797.381 159.317L720 159.317M797.381 159.317L794.539 149.268M720 170.164L720 159.317M720 170.164L720 181.906M803.768 181.906L887.536 181.906M874.762 159.317L869.078 149.268M874.762 159.317L952.142 159.317M887.536 181.906L971.304 181.906M961.343 170.164L952.142 159.317M961.343 170.164L1041.79 170.164M720 159.317L720 149.268M794.539 149.268L869.078 149.268M794.539 149.268L720 149.268M794.539 149.268L791.899 139.929L863.797 139.929L935.696 139.929M869.078 149.268L863.797 139.929L858.878 131.23M869.078 149.268L943.617 149.268M952.142 159.317L943.617 149.268M952.142 159.317L1029.52 159.317M858.878 131.23L789.439 131.23L787.142 123.106M787.142 123.106L854.284 123.106M787.142 123.106L720 123.106M787.142 123.106L784.992 115.503M858.878 131.23L854.284 123.106M858.878 131.23L928.317 131.23M854.284 123.106L849.985 115.503M854.284 123.106L921.426 123.106M928.317 131.23L921.426 123.106M928.317 131.23L997.756 131.23M720 123.106L720 115.503L720 108.371M784.992 115.503L782.976 108.371M921.426 123.106L914.977 115.503L979.969 115.503M921.426 123.106L988.568 123.106M781.081 101.669L842.162 101.669M781.081 101.669L779.296 95.3584M781.081 101.669L720 101.669M781.081 101.669L782.976 108.372M842.162 101.669L838.593 95.3584M842.162 101.669L845.952 108.372M842.162 101.669L903.242 101.669M779.296 95.3584L838.593 95.3584M779.296 95.3584L720 95.3584M779.296 95.3584L777.613 89.4059M720 101.669L720 95.3584M720 101.669L720 108.371M838.593 95.3584L835.226 89.406M838.593 95.3584L897.889 95.3585M720 95.3584L720 89.4054M897.889 95.3585L892.84 89.4055M897.889 95.3585L903.242 101.669M897.889 95.3585L957.185 95.358M774.518 78.46L829.036 78.46M774.518 78.46L773.092 73.4167M774.518 78.46L720 78.46M774.518 78.46L776.023 83.782M829.036 78.46L826.185 73.4167M829.036 78.46L832.046 83.782M829.036 78.46L883.555 78.46M773.092 73.4167L826.185 73.4167M773.092 73.4167L720 73.4167M773.092 73.4167L771.739 68.6306M826.185 73.4167L823.478 68.6306M826.185 73.4167L879.277 73.4167M720 73.4167L720 68.63M720 73.4167L720 78.4595M879.277 73.4167L875.217 68.6301M879.277 73.4167L883.555 78.4595M879.277 73.4167L932.369 73.4162M769.229 59.7541L818.459 59.7541M769.229 59.7541L768.063 55.6317M769.229 59.7541L720 59.7541M769.229 59.7541L770.453 64.0819M818.459 59.7541L816.127 55.6317M818.459 59.7541L820.906 64.0819M818.459 59.7541L867.688 59.7541M768.063 55.6317L816.127 55.6317M768.063 55.6317L720 55.6316M768.063 55.6317L766.952 51.6994M770.453 64.0819L820.906 64.0819M770.453 64.0819L770.61 64.6379L771.739 68.63M770.453 64.0819L720 64.0814M816.127 55.6317L813.903 51.6994M816.127 55.6317L864.191 55.6317M820.906 64.0819L823.478 68.6301M820.906 64.0819L871.359 64.0814M720 55.6316L720 51.6989M720 55.6316L720 59.7536M766.952 51.6994L813.903 51.6994M766.952 51.6994L720 51.6989M766.952 51.6994L765.89 47.9452M813.903 51.6994L811.781 47.9452M813.903 51.6994L860.855 51.6989M864.191 55.6317L863.342 54.6309L860.855 51.6989M864.191 55.6317L867.688 59.7536M864.191 55.6317L912.254 55.6312M764.875 44.3566L809.751 44.3566M764.875 44.3566L763.905 40.924M764.875 44.3566L720 44.3566M764.875 44.3566L765.89 47.9452M809.751 44.3566L808.048 41.3452L807.81 40.924M809.751 44.3566L811.781 47.9452M809.751 44.3566L854.627 44.3566M763.905 40.924L763.787 40.5054L762.975 37.6363M763.905 40.924L807.81 40.924M763.905 40.924L720 40.924M765.89 47.9452L811.781 47.9452M765.89 47.9452L720 47.9447M807.81 40.924L807.103 39.6746L806.871 39.2625L806.638 38.853L805.951 37.6363M807.81 40.924L851.715 40.924M811.781 47.9452L857.671 47.9447M761.229 31.4614L802.459 31.4614M761.229 31.4614L760.409 28.5586M761.229 31.4614L720 31.4614M761.229 31.4614L761.546 32.5809L761.653 32.9578L761.759 33.3367L761.975 34.1L762.085 34.4849M802.459 31.4614L801.222 29.2736L800.817 28.5586M802.459 31.4614L804.168 34.4849M802.459 31.4614L843.689 31.4614M760.409 28.5586L800.817 28.5586M760.409 28.5586L720 28.5586M760.409 28.5586L759.62 25.769M800.817 28.5586L799.825 26.8025L799.628 26.4558L799.434 26.1117L799.24 25.769M800.817 28.5586L841.226 28.5586M720 28.5586L720 25.7685M720 28.5586L720 31.4609M759.62 25.769L799.24 25.769M759.62 25.769L720 25.7685M759.62 25.769L758.861 23.0856M799.24 25.769L797.723 23.0856M799.24 25.769L838.86 25.7685M841.226 28.5586L841.528 28.9148L841.833 29.2731L842.138 29.6334L843.689 31.4609M841.226 28.5586L840.031 27.1497L839.736 26.802L839.443 26.4553L838.86 25.7685M841.226 28.5586L881.635 28.5581M758.131 20.5043L796.262 20.5043M758.131 20.5043L757.428 18.0177M758.131 20.5043L720 20.5043M758.131 20.5043L758.861 23.0861M796.262 20.5043L796.442 20.8219L797.537 22.7581L797.723 23.0861M796.262 20.5043L794.856 18.0177M796.262 20.5043L834.394 20.5044M757.428 18.0177L794.856 18.0177M757.428 18.0177L720 18.0177M757.428 18.0177L756.751 15.6211M794.856 18.0177L794.342 17.1085L794.173 16.8081L794.003 16.5092L793.501 15.6211M794.856 18.0177L832.284 18.0177M755.467 11.0785L790.933 11.0785M755.467 11.0785L754.857 8.92438M755.467 11.0785L720 11.0785M755.467 11.0785L756.097 13.3095M790.933 11.0785L790.778 10.8052L790.47 10.2623L790.318 9.99212L790.015 9.45624L789.865 9.18956L789.714 8.92439M790.933 11.0785L791.558 12.1839L791.715 12.4637L792.034 13.0262L792.194 13.3095M790.933 11.0785L826.399 11.0785M754.857 8.92438L754.783 8.66022L754.708 8.39757L754.634 8.13592L754.269 6.84328M754.857 8.92438L789.714 8.92439M754.857 8.92438L720 8.92438M789.714 8.92439L824.572 8.92439M789.714 8.92439L789.416 8.39757L789.268 8.13593L789.121 7.87478L788.683 7.0994L788.537 6.84328M826.399 11.0785L825.022 9.45574L824.572 8.92439M826.399 11.0785L827.574 12.4632L828.291 13.309M826.399 11.0785L861.865 11.078M824.572 8.92439L859.429 8.9239M824.572 8.92439L823.242 7.35651L822.806 6.84278M1198.02 223.769L1293.63 223.769M1198.02 223.769L1176.52 208.56M1198.02 223.769L1102.42 223.769M1198.02 223.769L1221.65 240.483M1293.63 223.769L1267.82 208.56M1293.63 223.769L1321.98 240.483M1293.63 223.769L1389.23 223.769M1176.52 208.56L1267.82 208.56M1176.52 208.56L1085.22 208.56M1176.52 208.56L1156.87 194.659M1221.65 240.483L1321.98 240.483M1221.65 240.483L1247.74 258.935M1221.65 240.483L1121.32 240.483M1267.82 208.56L1244.24 194.659M1267.82 208.56L1359.13 208.56M1321.98 240.483L1353.28 258.935M1321.98 240.483L1422.31 240.483M1389.23 223.769L1359.13 208.56M1389.23 223.769L1422.31 240.483M1389.23 223.769L1439.61 223.769M1085.22 208.56L1069.5 194.659M1085.22 208.56L1102.42 223.769M1156.87 194.659L1244.24 194.659M1156.87 194.659L1069.5 194.659M1156.87 194.659L1138.84 181.906M1244.24 194.659L1222.61 181.906M1244.24 194.659L1331.62 194.659M1359.13 208.56L1331.62 194.659M1359.13 208.56L1439.61 208.56M1122.24 170.164L1202.69 170.164M1122.24 170.164L1106.91 159.317M1122.24 170.164L1041.79 170.164M1122.24 170.164L1138.84 181.906M1202.69 170.164L1184.29 159.317M1202.69 170.164L1222.61 181.906M1202.69 170.164L1283.14 170.164M1106.91 159.317L1184.29 159.317M1106.91 159.317L1029.52 159.317M1106.91 159.317L1092.7 149.268M1184.29 159.317L1167.23 149.268M1184.29 159.317L1261.67 159.317M1283.14 170.164L1261.67 159.317M1283.14 170.164L1306.38 181.906M1283.14 170.164L1363.58 170.164M1029.52 159.317L1018.16 149.268M1029.52 159.317L1041.79 170.164M1092.7 149.268L1167.23 149.268M1092.7 149.268L1018.16 149.268M1092.7 149.268L1079.49 139.929M1167.23 149.268L1151.39 139.929L1136.64 131.23L1067.2 131.23M1167.23 149.268L1241.77 149.268M1261.67 159.317L1241.77 149.268M1261.67 159.317L1339.05 159.317M1067.2 131.23L1055.71 123.106M1067.2 131.23L997.756 131.23M1067.2 131.23L1079.49 139.929M1055.71 123.106L1122.85 123.106M1055.71 123.106L988.568 123.106M1055.71 123.106L1044.96 115.503M1122.85 123.106L1136.64 131.23L1206.07 131.23M1122.85 123.106L1109.95 115.503M1122.85 123.106L1190 123.106M988.568 123.106L979.969 115.503L971.903 108.371M988.568 123.106L997.756 131.23M1190 123.106L1174.95 115.503M1190 123.106L1206.07 131.23L1223.29 139.929M1190 123.106L1257.14 123.106M1025.4 101.669L1086.48 101.669M1025.4 101.669L1016.48 95.3585M1025.4 101.669L964.323 101.669M1025.4 101.669L1034.88 108.372L1044.96 115.504L979.969 115.504M1086.48 101.669L1075.78 95.3585M1086.48 101.669L1097.86 108.371M1016.48 95.3585L1075.78 95.3585M1016.48 95.3585L957.185 95.358M1016.48 95.3585L1008.07 89.4055L1065.68 89.4055M1075.78 95.3585L1065.68 89.4055M1075.78 95.3585L1135.07 95.358M1097.86 108.371L1109.95 115.503M1097.86 108.371L1160.83 108.371M1097.86 108.371L1034.88 108.371L971.903 108.371M1086.48 101.669L1147.57 101.669M1147.57 101.669L1160.83 108.371M1147.57 101.669L1208.65 101.669M957.185 95.358L950.453 89.4055M957.185 95.358L964.323 101.669M1065.68 89.4055L1056.14 83.7815M1065.68 89.4055L1123.29 89.4055M1135.07 95.358L1123.29 89.4055M1135.07 95.358L1147.57 101.669M1135.07 95.358L1194.37 95.358M992.591 78.4595L1047.11 78.4595M992.591 78.4595L985.461 73.4162M992.591 78.4595L938.073 78.4595M992.591 78.4595L1000.12 83.7815M1047.11 78.4595L1038.55 73.4162M1047.11 78.4595L1056.14 83.7815M1047.11 78.4595L1101.63 78.4595M985.461 73.4162L1038.55 73.4162M985.461 73.4162L932.369 73.4162M985.461 73.4162L978.695 68.6301M938.073 78.4595L883.555 78.4595M938.073 78.4595L936.618 77.1739L932.369 73.4162M938.073 78.4595L944.093 83.7815M1000.12 83.7815L1056.14 83.7815M1000.12 83.7815L944.093 83.7815M1038.55 73.4162L1030.43 68.6301M1038.55 73.4162L1091.65 73.4162M1056.14 83.7815L1112.16 83.7815M1101.63 78.4595L1091.65 73.4162M1101.63 78.4595L1112.16 83.7815M1101.63 78.4595L1156.15 78.4595M932.369 73.4162L926.956 68.6301M978.695 68.6301L1030.43 68.6301M978.695 68.6301L926.956 68.6301M978.695 68.6301L972.265 64.0814M1030.43 68.6301L1022.72 64.0814M1030.43 68.6301L1082.17 68.6301M1091.65 73.4162L1082.17 68.6301M1091.65 73.4162L1144.74 73.4162M966.146 59.7536L1015.38 59.7537M966.146 59.7536L960.318 55.6312M966.146 59.7536L916.917 59.7536M966.146 59.7536L972.265 64.0814M1015.38 59.7537L1008.38 55.6312M1015.38 59.7537L1022.72 64.0814M1015.38 59.7537L1064.6 59.7537M960.318 55.6312L1008.38 55.6312M960.318 55.6312L912.254 55.6312M960.318 55.6312L954.759 51.6989M916.917 59.7536L867.688 59.7536M916.917 59.7536L912.254 55.6312M916.917 59.7536L921.812 64.0814M972.265 64.0814L1022.72 64.0814M972.265 64.0814L921.812 64.0814M1008.38 55.6312L1001.71 51.6989M1008.38 55.6312L1056.44 55.6312M1022.72 64.0814L1073.17 64.0814M1064.6 59.7537L1056.44 55.6312M1064.6 59.7537L1073.17 64.0814M1064.6 59.7537L1113.83 59.7537M912.254 55.6312L907.807 51.6989M954.759 51.6989L1001.71 51.6989M954.759 51.6989L907.807 51.6989M954.759 51.6989L949.451 47.9447M1001.71 51.6989L995.341 47.9448M1001.71 51.6989L1048.66 51.6989M1056.44 55.6312L1048.66 51.6989M1056.44 55.6312L1104.51 55.6312M944.378 44.3561L945 44.7964L945.626 45.2382L949.451 47.9447M944.378 44.3561L989.254 44.3561M944.378 44.3561L939.525 40.9235M944.378 44.3561L899.503 44.3561M949.451 47.9447L995.341 47.9448M949.451 47.9447L903.561 47.9447M989.254 44.3561L983.43 40.9235M989.254 44.3561L995.341 47.9448M989.254 44.3561L1034.13 44.3561M939.525 40.9235L983.43 40.9235M939.525 40.9235L895.62 40.9235M939.525 40.9235L934.877 37.6358M899.503 44.3561L854.627 44.3561M899.503 44.3561L895.62 40.9235M899.503 44.3561L901.509 46.1303L903.561 47.9447M983.43 40.9235L977.852 37.6358M983.43 40.9235L1027.34 40.9235M995.341 47.9448L1041.23 47.9448M1034.13 44.3561L1027.34 40.9235M1034.13 44.3561L1041.23 47.9448M1034.13 44.3561L1079.01 44.3561M895.62 40.9235L851.715 40.9235M895.62 40.9235L891.901 37.6358M934.877 37.6358L977.852 37.6358M934.877 37.6358L891.901 37.6358M934.877 37.6358L933.745 36.8358L930.421 34.4844M977.852 37.6358L975.821 36.4388L975.151 36.0433L972.506 34.4844M977.852 37.6358L1020.83 37.6358M1027.34 40.9235L1020.83 37.6358M1027.34 40.9235L1071.24 40.9235M926.147 31.4609L967.377 31.4609M926.147 31.4609L922.043 28.5581M926.147 31.4609L884.918 31.4609M926.147 31.4609L930.421 34.4844M967.377 31.4609L964.275 29.6334L962.452 28.5581M967.377 31.4609L972.506 34.4844M967.377 31.4609L1008.61 31.4609M922.043 28.5581L962.452 28.5581M922.043 28.5581L881.635 28.5581M922.043 28.5581L918.585 26.1112L918.1 25.7685M884.918 31.4609L843.689 31.4609M884.918 31.4609L882.444 29.2731L881.635 28.5581M884.918 31.4609L886.184 32.5804L888.338 34.4844M930.421 34.4844L972.506 34.4844M930.421 34.4844L888.338 34.4844M962.452 28.5581L957.72 25.7685M962.452 28.5581L1002.86 28.5581M972.506 34.4844L1014.59 34.4844M1008.61 31.4609L1002.86 28.5581M1008.61 31.4609L1014.59 34.4844M1008.61 31.4609L1049.84 31.4609M881.635 28.5581L878.48 25.7685M918.1 25.7685L957.72 25.7685M918.1 25.7685L878.48 25.7685M918.1 25.7685L914.307 23.0856M957.72 25.7685L953.168 23.0856M957.72 25.7685L997.339 25.7685M1002.86 28.5581L999.384 26.8021L998.7 26.4554L997.339 25.7685M1002.86 28.5581L1043.27 28.5581M910.657 20.5039L948.788 20.5039M910.657 20.5039L909.766 19.8734L907.141 18.0172M910.657 20.5039L872.526 20.5038M910.657 20.5039L911.556 21.1399L913.382 22.431L914.307 23.0856M948.788 20.5039L944.569 18.0172M948.788 20.5039L950.411 21.4609L951.506 22.106L953.168 23.0856M948.788 20.5039L986.919 20.5039M907.141 18.0172L944.569 18.0172M907.141 18.0172L869.712 18.0172M907.141 18.0172L904.588 16.2113L903.752 15.6206M872.526 20.5038L834.394 20.5038M872.526 20.5038L870.059 18.3226L869.712 18.0172M872.526 20.5038L872.884 20.8214L873.245 21.1399L873.607 21.4609L875.445 23.0856M914.307 23.0856L953.168 23.0856M914.307 23.0856L875.445 23.0856M944.569 18.0172L943.027 17.108L942.01 16.5087L940.503 15.6206M944.569 18.0172L981.997 18.0172M953.168 23.0856L992.029 23.0856M986.919 20.5039L981.997 18.0172M986.919 20.5039L990.09 22.106L990.734 22.431L992.029 23.0856M986.919 20.5039L1025.05 20.5039M869.712 18.0172L832.284 18.0172M869.712 18.0172L867.002 15.6206M903.752 15.6206L940.503 15.6206M903.752 15.6206L867.002 15.6206M903.752 15.6206L900.485 13.309M940.503 15.6206L938.524 14.4542L938.035 14.1659L936.581 13.309M940.503 15.6206L977.254 15.6206M981.997 18.0172L977.254 15.6206M981.997 18.0172L1019.43 18.0172M897.331 11.078L932.798 11.078M897.331 11.078L895.415 9.72293L894.286 8.9239M897.331 11.078L861.865 11.078M897.331 11.078L900.485 13.309M932.798 11.078L930.044 9.45575L929.593 9.18907L929.143 8.92391M932.798 11.078L934.673 12.1834L936.582 13.309M932.798 11.078L968.263 11.078M894.286 8.9239L929.143 8.92391M894.286 8.9239L892.802 7.87429L892.07 7.35652L891.706 7.0989L891.344 6.84278M894.286 8.9239L859.429 8.9239M861.865 11.078L860.03 9.45574L859.429 8.9239M861.865 11.078L864.388 13.309M900.485 13.309L936.581 13.309M900.485 13.309L864.388 13.309M929.143 8.92391L964 8.92391M929.143 8.92391L925.612 6.84279M891.344 6.84278L925.612 6.84279M891.344 6.84278L857.075 6.84278M859.429 8.9239L858.241 7.87429L857.364 7.0989L857.075 6.84278M964 8.92391L998.857 8.92391M964 8.92391L959.881 6.84279M925.612 6.84279L959.881 6.84279M1416.43 159.317L1339.05 159.317M1416.43 159.317L1390.85 149.268M1416.43 159.317L1439.61 159.317M1416.43 159.317L1439.61 168.428M1339.05 159.317L1316.31 149.268M1339.05 159.317L1363.58 170.164M1390.85 149.268L1367.09 139.929L1295.19 139.929M1390.85 149.268L1316.31 149.268M1390.85 149.268L1439.61 149.268M1439.61 159.317L1439.61 149.268M1439.61 159.317L1439.61 168.428M1439.61 168.428L1439.61 170.164L1439.61 181.906M1344.95 131.231L1414.39 131.231L1438.99 139.929L1367.09 139.929L1344.95 131.231ZM1344.95 131.231L1324.28 123.107M1344.95 131.231L1275.51 131.231M1324.28 123.107L1391.42 123.106M1324.28 123.107L1257.14 123.106M1324.28 123.107L1304.93 115.503M1275.51 131.231L1257.14 123.106M1275.51 131.231L1295.19 139.929M1391.42 123.106L1414.39 131.23L1439.61 131.23M1391.42 123.106L1369.92 115.503M1391.42 123.106L1439.61 123.106M1257.14 123.106L1239.94 115.503M1253.67 95.3585L1269.73 101.669L1330.81 101.669L1349.76 108.371M1208.65 101.669L1269.73 101.669L1286.78 108.371M1208.65 101.669L1194.37 95.358M1208.65 101.669L1223.81 108.371M1286.78 108.371L1349.76 108.371M1286.78 108.371L1304.93 115.503M1286.78 108.371L1223.81 108.371M1312.96 95.358L1330.81 101.669L1391.89 101.669M1312.96 95.358L1253.67 95.358M1312.96 95.358L1296.13 89.4055M1312.96 95.358L1372.26 95.358M1349.76 108.371L1369.92 115.503M1349.76 108.371L1412.73 108.371M1391.89 101.669L1412.73 108.371M1391.89 101.669L1439.61 101.669M1253.67 95.358L1194.37 95.358M1253.67 95.358L1238.52 89.4055M1194.37 95.358L1180.91 89.4055M1238.52 89.4055L1296.13 89.4055M1238.52 89.4055L1180.91 89.4055M1238.52 89.4055L1224.21 83.7815M1296.13 89.4055L1280.23 83.7816M1296.13 89.4055L1353.75 89.4055M1372.26 95.358L1353.75 89.4055M1372.26 95.358L1391.89 101.669M1372.26 95.358L1431.56 95.358M1210.67 78.4595L1265.18 78.4595M1210.67 78.4595L1197.83 73.4163M1210.67 78.4595L1156.15 78.4595M1210.67 78.4595L1224.21 83.7815M1265.18 78.4595L1250.92 73.4163M1265.18 78.4595L1280.23 83.7816M1265.18 78.4595L1319.7 78.4595M1197.83 73.4163L1250.92 73.4163M1197.83 73.4163L1144.74 73.4162M1197.83 73.4163L1185.65 68.6301M1156.15 78.4595L1144.74 73.4162M1156.15 78.4595L1168.18 83.7815M1224.21 83.7815L1280.23 83.7816M1224.21 83.7815L1168.18 83.7815M1250.92 73.4163L1237.39 68.6301M1250.92 73.4163L1304.02 73.4163M1280.23 83.7816L1336.25 83.7816M1319.7 78.4595L1304.02 73.4163M1319.7 78.4595L1336.25 83.7816M1319.7 78.4595L1374.22 78.4595M1144.74 73.4162L1133.91 68.6301M1185.65 68.6301L1237.39 68.6301M1185.65 68.6301L1133.91 68.6301M1185.65 68.6301L1174.08 64.0814M1237.39 68.6301L1224.53 64.0814M1237.39 68.6301L1289.13 68.6301M1304.02 73.4163L1289.13 68.6301M1304.02 73.4163L1357.11 73.4163M1163.06 59.7537L1212.29 59.7537M1163.06 59.7537L1152.57 55.6312M1163.06 59.7537L1113.83 59.7537M1163.06 59.7537L1174.08 64.0814M1212.29 59.7537L1200.64 55.6312M1212.29 59.7537L1224.53 64.0814M1212.29 59.7537L1261.52 59.7537M1152.57 55.6312L1200.64 55.6312M1152.57 55.6312L1104.51 55.6312M1152.57 55.6312L1142.57 51.6989M1113.83 59.7537L1104.51 55.6312M1113.83 59.7537L1123.62 64.0814M1174.08 64.0814L1224.53 64.0814M1174.08 64.0814L1123.62 64.0814M1200.64 55.6312L1189.52 51.6989M1200.64 55.6312L1248.7 55.6312M1224.53 64.0814L1274.98 64.0814M1261.52 59.7537L1248.7 55.6312M1261.52 59.7537L1274.98 64.0814M1261.52 59.7537L1310.75 59.7537M1104.51 55.6312L1095.61 51.6989M1142.57 51.6989L1189.52 51.6989M1142.57 51.6989L1095.61 51.6989M1142.57 51.6989L1133.01 47.9448M1189.52 51.6989L1178.9 47.9448M1189.52 51.6989L1236.47 51.6989M1248.7 55.6312L1236.47 51.6989M1248.7 55.6312L1296.76 55.6312M1123.88 44.3561L1168.76 44.3561M1123.88 44.3561L1115.14 40.9235M1123.88 44.3561L1079.01 44.3561M1123.88 44.3561L1133.01 47.9448M1168.76 44.3561L1159.05 40.9235M1168.76 44.3561L1178.9 47.9448M1168.76 44.3561L1213.63 44.3562M1115.14 40.9235L1159.05 40.9235M1115.14 40.9235L1071.24 40.9235M1115.14 40.9235L1106.78 37.6358M1079.01 44.3561L1071.24 40.9235M1079.01 44.3561L1087.12 47.9448M1133.01 47.9448L1178.9 47.9448M1133.01 47.9448L1087.12 47.9448M1159.05 40.9235L1149.75 37.6358M1159.05 40.9235L1202.95 40.9235M1178.9 47.9448L1224.79 47.9448M1213.63 44.3562L1202.95 40.9235M1213.63 44.3562L1224.79 47.9448M1213.63 44.3562L1258.51 44.3562M1071.24 40.9235L1063.8 37.6358M1106.78 37.6358L1149.75 37.6358M1106.78 37.6358L1063.8 37.6358M1106.78 37.6358L1098.76 34.4845M1149.75 37.6358L1140.84 34.4845M1149.75 37.6358L1192.73 37.6358M1202.95 40.9235L1192.73 37.6358M1202.95 40.9235L1246.86 40.9235M1091.07 31.4609L1132.29 31.4609M1091.07 31.4609L1083.68 28.5581M1091.07 31.4609L1049.84 31.4609M1091.07 31.4609L1098.76 34.4845M1132.29 31.4609L1124.09 28.5581M1132.29 31.4609L1140.84 34.4845M1132.29 31.4609L1173.53 31.4609M1083.68 28.5581L1124.09 28.5581M1083.68 28.5581L1043.27 28.5581M1083.68 28.5581L1076.58 25.7685M1049.84 31.4609L1043.27 28.5581M1049.84 31.4609L1056.67 34.4844M1098.76 34.4845L1140.84 34.4845M1098.76 34.4845L1056.67 34.4844M1124.09 28.5581L1116.2 25.7685M1124.09 28.5581L1164.5 28.5581M1140.84 34.4845L1182.93 34.4845M1173.53 31.4609L1164.5 28.5581M1173.53 31.4609L1182.93 34.4845M1173.53 31.4609L1214.75 31.4609M1043.27 28.5581L1036.96 25.7685M1076.58 25.7685L1116.2 25.7685M1076.58 25.7685L1036.96 25.7685M1076.58 25.7685L1069.75 23.0856M1116.2 25.7685L1109.55 23.4157L1108.61 23.0856M1116.2 25.7685L1155.82 25.7685M1164.5 28.5581L1155.82 25.7685M1164.5 28.5581L1204.9 28.5581M1063.18 20.5039L1101.31 20.5039M1063.18 20.5039L1056.85 18.0172M1063.18 20.5039L1025.05 20.5039M1063.18 20.5039L1064.8 21.1399L1065.62 21.4609L1069.75 23.0856M1101.31 20.5039L1094.28 18.0172M1101.31 20.5039L1108.61 23.0856M1101.31 20.5039L1139.44 20.5039M1056.85 18.0172L1094.28 18.0172M1056.85 18.0172L1019.43 18.0172M1056.85 18.0172L1050.76 15.6206M1025.05 20.5039L1019.43 18.0172M1025.05 20.5039L1030.89 23.0856M1069.75 23.0856L1108.61 23.0856M1069.75 23.0856L1030.89 23.0856M1094.28 18.0172L1087.51 15.6206M1094.28 18.0172L1131.71 18.0172M1108.61 23.0856L1147.48 23.0856M1139.44 20.5039L1131.71 18.0172M1139.44 20.5039L1147.48 23.0856M1139.44 20.5039L1177.58 20.5039M1019.43 18.0172L1014 15.6206M1050.76 15.6206L1087.51 15.6206M1050.76 15.6206L1014 15.6206M1050.76 15.6206L1044.87 13.309M1087.51 15.6206L1080.97 13.309M1087.51 15.6206L1124.26 15.6206M1131.71 18.0172L1124.26 15.6206M1131.71 18.0172L1169.14 18.0172M1039.2 11.078L1074.66 11.078M1039.2 11.078L1033.71 8.92392M1039.2 11.078L1003.73 11.078M1039.2 11.078L1044.87 13.309M1074.66 11.078L1070.07 9.45576L1069.32 9.18908L1068.57 8.92392M1074.66 11.078L1080.97 13.309M1074.66 11.078L1110.13 11.078M1033.71 8.92392L1068.57 8.92392M1033.71 8.92392L1029.07 7.09891L1028.42 6.8428M1033.71 8.92392L998.857 8.92391M1003.73 11.078L968.262 11.078M1003.73 11.078L998.857 8.92391M1003.73 11.078L1008.78 13.309M1044.87 13.309L1080.97 13.309M1044.87 13.309L1008.78 13.309M1068.57 8.92392L1103.43 8.92392M1068.57 8.92392L1062.69 6.8428M1080.97 13.309L1117.07 13.309M1110.13 11.078L1103.43 8.92392M1110.13 11.078L1117.07 13.309M1110.13 11.078L1145.6 11.078M1028.42 6.8428L1062.69 6.8428M1028.42 6.8428L994.149 6.84279M998.857 8.92391L995.311 7.35653L994.149 6.84279M1103.43 8.92392L1138.29 8.92393M1103.43 8.92392L1096.96 6.8428M1062.69 6.8428L1096.96 6.8428M1428.74 78.4595L1410.2 73.4163M1428.74 78.4595L1374.22 78.4595M1428.74 78.4595L1439.61 81.4182M1428.74 78.4595L1439.61 78.4595M1410.2 73.4163L1357.11 73.4163M1410.2 73.4163L1392.61 68.6301M1410.2 73.4163L1439.61 73.4163M1374.22 78.4595L1357.11 73.4163M1374.22 78.4595L1392.28 83.7816M1439.61 81.4182L1439.61 78.4595M1439.61 81.4182L1439.61 83.7816M1439.61 78.4595L1439.61 73.4163M1357.11 73.4163L1340.87 68.6301M1392.61 68.6301L1375.89 64.0815M1392.61 68.6301L1340.87 68.6301M1392.61 68.6301L1439.61 68.6301M1439.61 73.4163L1439.61 68.6301M1359.98 59.7537L1409.21 59.7537M1359.98 59.7537L1344.83 55.6312M1359.98 59.7537L1310.75 59.7537M1359.98 59.7537L1375.89 64.0815M1409.21 59.7537L1392.89 55.6312M1409.21 59.7537L1426.34 64.0815M1409.21 59.7537L1439.61 59.7537M1344.83 55.6312L1392.89 55.6312M1344.83 55.6312L1296.76 55.6312M1344.83 55.6312L1330.37 51.6989M1310.75 59.7537L1296.76 55.6312M1310.75 59.7537L1325.44 64.0815M1375.89 64.0815L1426.34 64.0815M1375.89 64.0815L1325.44 64.0815M1392.89 55.6312L1377.33 51.6989M1392.89 55.6312L1439.61 55.6312M1426.34 64.0815L1439.61 67.4341M1426.34 64.0815L1439.61 64.0815M1439.61 59.7537L1439.98 59.7537M1439.61 59.7537L1439.61 55.6312M1439.61 59.7537L1439.61 64.0815M1330.37 51.6989L1377.33 51.6989M1330.37 51.6989L1283.42 51.6989M1330.37 51.6989L1316.57 47.9448M1377.33 51.6989L1362.46 47.9448M1377.33 51.6989L1424.28 51.6989M1439.61 55.6312L1439.61 55.3152M1303.38 44.3562L1348.26 44.3562M1303.38 44.3562L1290.76 40.9235M1303.38 44.3562L1258.51 44.3562M1303.38 44.3562L1316.57 47.9448M1348.26 44.3562L1334.67 40.9235M1348.26 44.3562L1362.46 47.9448M1348.26 44.3562L1393.14 44.3562M1290.76 40.9235L1334.67 40.9235M1290.76 40.9235L1246.86 40.9235M1290.76 40.9235L1278.68 37.6358M1258.51 44.3562L1246.86 40.9235M1258.51 44.3562L1270.68 47.9448M1316.57 47.9448L1362.46 47.9448M1316.57 47.9448L1270.68 47.9448M1334.67 40.9235L1321.66 37.6358M1334.67 40.9235L1378.57 40.9235M1362.46 47.9448L1408.35 47.9448M1393.14 44.3562L1378.57 40.9235M1393.14 44.3562L1408.35 47.9448M1393.14 44.3562L1438.01 44.3562M1246.86 40.9235L1235.7 37.6358M1278.68 37.6358L1321.66 37.6358M1278.68 37.6358L1235.7 37.6358M1278.68 37.6358L1267.1 34.4845M1321.66 37.6358L1309.18 34.4845M1321.66 37.6358L1364.63 37.6358M1378.57 40.9235L1364.63 37.6358M1378.57 40.9235L1422.48 40.9235M1255.98 31.4609L1297.21 31.4609M1255.98 31.4609L1245.31 28.5581M1255.98 31.4609L1214.75 31.4609M1255.98 31.4609L1267.1 34.4845M1297.21 31.4609L1285.72 28.5581M1297.21 31.4609L1309.18 34.4845M1297.21 31.4609L1338.44 31.4609M1245.31 28.5581L1285.72 28.5581M1245.31 28.5581L1204.9 28.5581M1245.31 28.5581L1235.06 25.7686M1214.75 31.4609L1204.9 28.5581M1214.75 31.4609L1225.01 34.4845M1267.1 34.4845L1309.18 34.4845M1267.1 34.4845L1225.01 34.4845M1285.72 28.5581L1274.68 25.7686M1285.72 28.5581L1326.13 28.5581M1309.18 34.4845L1351.27 34.4845M1338.44 31.4609L1326.13 28.5581M1338.44 31.4609L1351.27 34.4845M1338.44 31.4609L1379.67 31.4609M1204.9 28.5581L1195.44 25.7686M1235.06 25.7686L1274.68 25.7686M1235.06 25.7686L1195.44 25.7686M1235.06 25.7686L1225.2 23.0857M1274.68 25.7686L1264.06 23.0857M1274.68 25.7686L1314.3 25.7686M1326.13 28.5581L1314.3 25.7686M1326.13 28.5581L1366.54 28.5581L1406.95 28.5581L1420.9 31.4609M1215.71 20.5039L1253.84 20.5039M1215.71 20.5039L1206.57 18.0172M1215.71 20.5039L1177.58 20.5039M1215.71 20.5039L1225.2 23.0857M1253.84 20.5039L1244 18.0172M1253.84 20.5039L1264.06 23.0857M1253.84 20.5039L1291.97 20.5039M1206.57 18.0172L1244 18.0172M1206.57 18.0172L1169.14 18.0172M1206.57 18.0172L1197.76 15.6206M1177.58 20.5039L1170.18 18.3226L1169.14 18.0172M1177.58 20.5039L1186.34 23.0856M1225.2 23.0857L1264.06 23.0857M1225.2 23.0857L1186.34 23.0856M1244 18.0172L1234.51 15.6206M1244 18.0172L1281.42 18.0172M1264.06 23.0857L1302.92 23.0857M1291.97 20.5039L1281.42 18.0172M1291.97 20.5039L1302.92 23.0857M1291.97 20.5039L1330.1 20.5039M1169.14 18.0172L1161.01 15.6206M1197.76 15.6206L1234.51 15.6206M1197.76 15.6206L1161.01 15.6206M1197.76 15.6206L1189.26 13.309M1234.51 15.6206L1225.36 13.309M1234.51 15.6206L1271.26 15.6206M1281.42 18.0172L1271.26 15.6206M1281.42 18.0172L1318.85 18.0172M1181.06 11.078L1216.53 11.078M1181.06 11.078L1173.14 8.92393M1181.06 11.078L1145.6 11.078M1181.06 11.078L1189.26 13.309M1216.53 11.078L1208 8.92393M1216.53 11.078L1225.36 13.309M1216.53 11.078L1251.99 11.078M1173.14 8.92393L1208 8.92393M1173.14 8.92393L1165.49 6.84281M1173.14 8.92393L1138.29 8.92393M1145.6 11.078L1138.29 8.92393M1145.6 11.078L1153.16 13.309M1189.26 13.309L1225.36 13.309M1189.26 13.309L1153.16 13.309M1208 8.92393L1242.86 8.92394M1208 8.92393L1199.76 6.84281M1225.36 13.309L1261.45 13.309M1251.99 11.078L1242.86 8.92394M1251.99 11.078L1261.45 13.309M1251.99 11.078L1287.46 11.078M1165.49 6.84281L1199.76 6.84281M1165.49 6.84281L1131.22 6.84281M1138.29 8.92393L1131.22 6.84281M1242.86 8.92394L1277.72 8.92394M1242.86 8.92394L1234.03 6.84281M1199.76 6.84281L1234.03 6.84281M1420.9 31.4609L1379.67 31.4609M1420.9 31.4609L1435.43 34.4845M1420.9 31.4609L1439.61 31.4609M1379.67 31.4609L1366.54 28.5581L1353.92 25.7686M1379.67 31.4609L1393.35 34.4845M1435.43 34.4845L1393.35 34.4845M1435.43 34.4845L1439.61 34.4845M1435.43 34.4845L1439.61 35.3535M1439.61 31.4609L1439.61 28.5582M1439.61 31.4609L1439.61 34.4845M1393.54 25.7686L1406.95 28.5581L1439.61 28.5582M1393.54 25.7686L1433.16 25.7686M1393.54 25.7686L1353.92 25.7686M1393.54 25.7686L1380.64 23.0857M1439.61 28.5582L1439.61 27.0366M1368.23 20.5039L1406.36 20.5039M1368.23 20.5039L1356.28 18.0172M1368.23 20.5039L1330.1 20.5039M1368.23 20.5039L1380.64 23.0857M1406.36 20.5039L1393.71 18.0172M1406.36 20.5039L1419.5 23.0857M1406.36 20.5039L1439.61 20.5039M1356.28 18.0172L1393.71 18.0172M1356.28 18.0172L1318.85 18.0172M1356.28 18.0172L1344.76 15.6206M1330.1 20.5039L1318.85 18.0172M1330.1 20.5039L1341.78 23.0857M1380.64 23.0857L1419.5 23.0857M1380.64 23.0857L1341.78 23.0857M1393.71 18.0172L1381.51 15.6206M1393.71 18.0172L1431.14 18.0172M1419.5 23.0857L1433.16 25.7686M1419.5 23.0857L1439.61 23.0857M1439.61 20.5039L1439.73 20.5039M1439.61 20.5039L1439.61 19.5947M1439.61 20.5039L1439.61 23.0857M1318.85 18.0172L1308.01 15.6206M1344.76 15.6206L1381.51 15.6206M1344.76 15.6206L1308.01 15.6206M1344.76 15.6206L1333.65 13.3091M1381.51 15.6206L1369.75 13.3091M1381.51 15.6206L1418.26 15.6206M1431.14 18.0172L1418.26 15.6206M1431.14 18.0172L1439.61 19.5947M1431.14 18.0172L1439.61 18.0172M1322.93 11.078L1358.39 11.078M1322.93 11.078L1312.57 8.92394M1322.93 11.078L1287.46 11.078M1322.93 11.078L1333.65 13.3091M1358.39 11.078L1347.43 8.92394M1358.39 11.078L1369.75 13.3091M1358.39 11.078L1393.86 11.078M1312.57 8.92394L1347.43 8.92394M1312.57 8.92394L1302.57 6.84282M1312.57 8.92394L1277.72 8.92394M1287.46 11.078L1277.72 8.92394M1287.46 11.078L1297.55 13.3091M1333.65 13.3091L1369.75 13.3091M1333.65 13.3091L1297.55 13.3091M1347.43 8.92394L1382.29 8.92395M1347.43 8.92394L1336.84 6.84282M1369.75 13.3091L1405.84 13.3091M1302.57 6.84282L1336.84 6.84282M1302.57 6.84282L1268.3 6.84282M1277.72 8.92394L1268.3 6.84282M1382.29 8.92395L1393.86 11.078M1382.29 8.92395L1417.14 8.92395M1382.29 8.92395L1371.11 6.84283M1336.84 6.84282L1371.11 6.84283M1405.84 13.3091L1393.86 11.078M1405.84 13.3091L1418.26 15.6206M1405.84 13.3091L1439.61 13.3091M1393.86 11.078L1429.32 11.078M1429.32 11.078L1417.14 8.92395M1429.32 11.078L1439.61 12.8975M1429.32 11.078L1439.61 11.078M1417.14 8.92395L1405.37 6.84283M1417.14 8.92395L1439.61 8.92395M1371.11 6.84283L1405.37 6.84283M1371.11 6.84283L1360.3 4.83065M1418.26 15.6206L1439.61 15.6206M1439.61 12.8975L1439.61 11.078M1439.61 12.8975L1439.61 13.3091L1439.61 15.6206M1439.61 11.078L1439.61 8.92395M1405.37 6.84283L1393.99 4.83065M1405.37 6.84283L1439.61 6.84283M1439.61 8.92395L1439.61 6.84283M1360.3 4.83065L1393.99 4.83065M1393.99 4.83065L1427.69 4.83066M1439.61 19.5947L1439.61 18.0172M1439.61 18.0172L1439.61 15.6206M1308.01 15.6206L1297.55 13.3091M1308.01 15.6206L1271.26 15.6206M1297.55 13.3091L1261.45 13.309M1433.16 25.7686L1439.61 27.0366M1433.16 25.7686L1439.61 25.7686M1439.61 23.0857L1439.61 25.7686M1439.61 27.0366L1439.61 25.7686M1353.92 25.7686L1341.78 23.0857M1353.92 25.7686L1314.3 25.7686M1341.78 23.0857L1302.92 23.0857M1261.45 13.309L1271.26 15.6206M1234.03 6.84281L1268.3 6.84282M1234.03 6.84281L1225.5 4.83064M1268.3 6.84282L1259.2 4.83064M1225.5 4.83064L1259.2 4.83064M1161.01 15.6206L1153.16 13.309M1161.01 15.6206L1124.26 15.6206M1153.16 13.309L1117.07 13.309M1302.92 23.0857L1314.3 25.7686M1195.44 25.7686L1186.34 23.0856M1195.44 25.7686L1155.82 25.7685M1186.34 23.0856L1147.48 23.0856M1351.27 34.4845L1364.63 37.6358M1351.27 34.4845L1393.35 34.4845M1393.35 34.4845L1407.61 37.6358M1364.63 37.6358L1407.61 37.6358M1407.61 37.6358L1422.48 40.9235M1407.61 37.6358L1439.61 37.6358M1439.61 34.4845L1439.61 35.3535M1439.61 35.3535L1439.61 37.6358M1422.48 40.9235L1438.01 44.3562M1422.48 40.9235L1439.61 40.9235M1235.7 37.6358L1225.01 34.4845M1235.7 37.6358L1192.73 37.6358M1225.01 34.4845L1182.93 34.4845M1408.35 47.9448L1424.28 51.6989M1408.35 47.9448L1439.61 47.9448M1438.01 44.3562L1439.61 44.7104M1438.01 44.3562L1439.61 44.3562M1439.61 40.9235L1439.61 37.6358M1439.61 40.9235L1439.61 44.3562M1439.84 37.6358L1439.61 37.6358M1439.61 44.7104L1440 44.7964M1439.61 44.7104L1439.61 44.3562M1439.61 44.7104L1439.61 47.9448M1424.28 51.6989L1439.61 51.6989M1424.28 51.6989L1439.61 55.3152M1439.61 47.9448L1439.61 51.6989M1439.61 51.6989L1439.61 55.3152M1283.42 51.6989L1270.68 47.9448M1283.42 51.6989L1236.47 51.6989M1283.42 51.6989L1296.76 55.6312M1270.68 47.9448L1224.79 47.9448M1439.61 67.4341L1439.76 67.4713M1439.61 67.4341L1439.61 64.0815M1439.61 67.4341L1439.61 68.6301M1325.44 64.0815L1274.98 64.0814M1325.44 64.0815L1340.87 68.6301M1117.07 13.309L1124.26 15.6206M1096.96 6.8428L1131.22 6.84281M1096.96 6.8428L1090.7 4.83063M1131.22 6.84281L1130.36 6.5872L1128.64 6.0805L1124.4 4.83063M1090.7 4.83063L1124.4 4.83063M1014 15.6206L1008.78 13.309M1014 15.6206L977.254 15.6206M1008.78 13.309L972.678 13.309M1147.48 23.0856L1155.82 25.7685M1036.96 25.7685L1030.89 23.0856M1036.96 25.7685L997.339 25.7685M1030.89 23.0856L992.029 23.0856M1182.93 34.4845L1192.73 37.6358M1063.8 37.6358L1056.67 34.4844M1063.8 37.6358L1020.83 37.6358M1056.67 34.4844L1014.59 34.4844M1224.79 47.9448L1236.47 51.6989M1095.61 51.6989L1087.12 47.9448M1095.61 51.6989L1048.66 51.6989M1087.12 47.9448L1041.23 47.9448M1274.98 64.0814L1289.13 68.6301M1289.13 68.6301L1340.87 68.6301M1133.91 68.6301L1123.62 64.0814M1133.91 68.6301L1082.17 68.6301M1123.62 64.0814L1073.17 64.0814M1336.25 83.7816L1353.75 89.4055M1336.25 83.7816L1392.28 83.7816M1392.28 83.7816L1411.36 89.4055L1439.61 89.4055M1392.28 83.7816L1439.61 83.7816M1353.75 89.4055L1411.36 89.4055L1431.56 95.358M1439.61 83.7816L1439.61 89.4055M1431.56 95.358L1439.61 95.358M1431.56 95.358L1439.61 97.733L1439.61 101.669M1180.91 89.4055L1168.18 83.7815M1439.61 89.4055L1439.61 95.358M1168.18 83.7815L1112.16 83.7815M1412.73 108.371L1434.91 115.503M1412.73 108.371L1439.61 108.371M1439.61 101.669L1439.61 108.371M1439.61 95.358L1439.61 97.7325M1369.92 115.503L1434.91 115.503M1369.92 115.503L1304.93 115.503M1434.91 115.503L1439.61 117.013M1434.91 115.503L1439.61 115.503M1439.61 108.371L1439.61 115.503M1304.93 115.503L1239.94 115.503M1439.61 117.013L1439.61 115.503M1439.61 117.013L1439.61 123.107L1439.61 131.23L1439.61 139.929L1439.61 140.15L1439.61 149.268M1239.94 115.503L1223.81 108.371M1223.81 108.371L1160.83 108.371M1438.99 139.929L1439.61 139.929M1438.99 139.929L1439.61 140.15M1295.19 139.929L1223.29 139.929M1295.19 139.929L1316.31 149.268M936.581 13.309L972.678 13.309M972.678 13.309L972.118 13.0257L968.262 11.078M972.678 13.309L973.807 13.8786L977.254 15.6206M968.262 11.078L965.051 9.45575L963.999 8.92391M959.881 6.84279L994.149 6.84279M959.881 6.84279L955.898 4.83062M994.149 6.84279L992.424 6.08048L989.598 4.83062M955.898 4.83062L989.598 4.83062M867.002 15.6206L866.34 15.0344L864.388 13.309M867.002 15.6206L830.251 15.6206M864.388 13.309L828.291 13.309M992.029 23.0856L997.339 25.7685M878.48 25.7685L878.094 25.4274L877.71 25.0877L875.445 23.0856M878.48 25.7685L838.86 25.7685M875.445 23.0856L836.584 23.0856M1014.59 34.4844L1020.83 37.6358M891.901 37.6358L888.338 34.4844M891.901 37.6358L848.926 37.6358M888.338 34.4844L846.253 34.4844M1041.23 47.9448L1048.66 51.6989M907.807 51.6989L903.561 47.9447M907.807 51.6989L860.855 51.6989M903.561 47.9447L857.671 47.9447M1073.17 64.0814L1082.17 68.6301M926.956 68.6301L921.812 64.0814M926.956 68.6301L875.217 68.6301M921.812 64.0814L871.359 64.0814M1112.16 83.7815L1123.29 89.4055M1123.29 89.406L1180.91 89.406M950.453 89.406L1008.07 89.406L1000.12 83.782M944.093 83.7815L888.069 83.7815M944.093 83.7815L950.453 89.4055M1160.83 108.371L1174.95 115.503L1109.95 115.503M1109.95 115.503L1044.96 115.503M1174.95 115.504L1239.94 115.504M971.903 108.371L964.323 101.669M971.903 108.371L908.927 108.371M1223.29 139.929L1151.39 139.929L1079.49 139.929M1223.29 139.929L1241.77 149.268M1206.07 131.229L1275.51 131.229M1079.49 139.929L1007.6 139.929M1241.77 149.268L1316.31 149.268M1018.16 149.268L1007.6 139.929M1018.16 149.268L943.617 149.268M1007.6 139.929L935.696 139.929M1306.38 181.906L1222.61 181.906M1306.38 181.906L1331.62 194.659M1306.38 181.906L1390.14 181.906M1363.58 170.164L1390.14 181.906M1363.58 170.164L1439.61 170.164M1390.14 181.906L1418.99 194.659M1390.14 181.906L1439.61 181.906M1222.61 181.906L1138.84 181.906M1138.84 181.906L1055.07 181.906M1331.62 194.659L1418.99 194.659M1418.99 194.659L1439.61 194.659M1418.99 194.659L1439.61 203.777M1439.61 181.906L1439.61 194.659M1439.61 208.56L1439.61 203.777M1439.61 208.56L1439.61 223.769L1439.61 240.483L1439.61 249.224L1439.61 258.934M1069.5 194.659L1055.07 181.906M1069.5 194.659L982.121 194.659M1439.61 194.659L1439.61 203.777M1055.07 181.906L1041.79 170.164M1055.07 181.906L971.304 181.906M1422.31 240.483L1439.61 249.224M1422.31 240.483L1439.61 240.483M1353.28 258.935L1247.74 258.935M1353.28 258.935L1439.61 258.934M1247.74 258.935L1142.19 258.935M1439.61 258.934L1439.61 259L0.390015 259L0.390015 258.934M1121.32 240.483L1102.42 223.769M1121.32 240.483L1020.99 240.482M1121.32 240.483L1142.19 258.934L1036.64 258.934M792.194 13.309L792.355 13.5933L792.516 13.8786L792.679 14.1659L792.841 14.4542L793.335 15.3267L793.501 15.6206M792.194 13.309L828.291 13.309M792.194 13.309L756.097 13.309M793.501 15.6206L830.251 15.6206M793.501 15.6206L756.751 15.6206M828.291 13.309L828.532 13.5933L828.775 13.8786L829.018 14.1659L829.263 14.4542L830.251 15.6206M756.097 13.309L756.751 15.6206M756.097 13.309L720 13.309M822.806 6.84278L788.537 6.84278M822.806 6.84278L822.59 6.58717L822.16 6.08047L821.732 5.5773L821.521 5.32723L821.099 4.8306M822.806 6.84278L857.075 6.84278M788.537 6.84278L754.269 6.84277M830.251 15.6206L832.284 18.0172M857.075 6.84278L855.08 5.07817L854.798 4.83061M821.099 4.8306L854.798 4.83061M756.751 15.6206L720 15.6206L720 18.0172L720 20.5038M832.284 18.0172L834.394 20.5038M834.394 20.5038L834.934 21.1399L835.753 22.106L836.584 23.0856M720 13.309L683.903 13.3085M720 13.309L720 11.0774M720 13.309L720 15.6201L683.25 15.6201M836.584 23.0856L797.723 23.0856M836.584 23.0856L838.86 25.7685M797.723 23.0856L758.861 23.0856M758.861 23.0856L720 23.0856M843.689 31.4609L845.927 34.0995L846.253 34.4844M720 25.7685L720 23.0856M720 25.7685L680.38 25.7685M720 23.0856L720 20.5038M720 23.0856L681.139 23.0856M846.253 34.4844L804.168 34.4844M846.253 34.4844L848.926 37.6358M804.168 34.4844L805.051 36.0432L805.273 36.4387L805.951 37.6358M804.168 34.4844L762.085 34.4844M805.951 37.6358L848.926 37.6358M805.951 37.6358L762.975 37.6358M762.085 34.4844L762.304 35.2598L762.749 36.8357L762.975 37.6358M762.085 34.4844L720 34.4844M848.926 37.6358L851.715 40.9235M762.975 37.6358L720 37.6358M851.715 40.9235L854.627 44.3561M854.627 44.3561L856.897 47.0325L857.671 47.9447M720 37.6358L720 34.4844M720 37.6358L677.025 37.6358M720 37.6358L720 40.9235M720 34.4844L720 31.4609M720 34.4844L677.915 34.4844M857.671 47.9447L860.855 51.6989M867.688 59.7536L871.359 64.0814M720 51.6989L720 47.9447M720 51.6989L673.048 51.6989M720 47.9447L720 44.3561M720 47.9447L674.11 47.9447M871.359 64.0814L875.217 68.6301M823.478 68.6301L875.217 68.6301M823.478 68.6301L771.739 68.63M771.739 68.63L720 68.63M883.555 78.4595L888.069 83.7815M720 68.63L720 64.0814M720 68.63L668.261 68.63M720 64.0814L720 59.7536M720 64.0814L669.547 64.0814M888.069 83.7815L832.046 83.7815M888.069 83.7815L892.84 89.4055M832.046 83.7815L835.226 89.4054M832.046 83.7815L776.023 83.7815M835.226 89.4054L892.84 89.4055M835.226 89.4054L777.613 89.4054M776.023 83.7815L777.613 89.4054M776.023 83.7815L720 83.7815M892.84 89.4055L950.453 89.4055M777.613 89.4054L720 89.4054M903.242 101.669L908.927 108.371M903.242 101.669L964.323 101.669M720 89.4054L720 83.7815M720 89.4054L662.387 89.4054M720 83.7815L720 78.4595M720 83.7815L663.977 83.7815M908.927 108.371L845.952 108.371M908.927 108.371L914.977 115.503L849.985 115.503M845.952 108.371L849.985 115.503M845.952 108.371L782.976 108.371M849.985 115.503L784.992 115.503M782.976 108.371L720 108.371M720 108.371L657.024 108.371M928.317 131.23L935.696 139.929M997.756 131.23L1007.6 139.929M935.696 139.929L943.617 149.268M720 149.268L720 139.929L648.101 139.929M720 149.268L645.461 149.268M961.343 170.165L971.304 181.906M971.304 181.906L982.121 194.659M720 194.659L720 181.906M720 194.659L632.626 194.659M803.768 181.907L720 181.907M1020.99 240.482L1006.81 223.768L1102.42 223.769M1020.99 240.482L1036.64 258.934M931.095 258.934L1036.64 258.934M931.095 258.934L825.548 258.934M825.548 258.934L720 258.934M720 258.934L720 240.482M720 258.934L614.452 258.934M720 240.482L720 223.768M720 240.482L619.67 240.482M646.499 15.6201L683.25 15.6201M646.499 15.6201L609.749 15.6201M683.903 13.3085L684.534 11.0774M683.903 13.3085L683.822 13.5928L683.742 13.8781L683.66 14.1654L683.25 15.6201M684.534 11.0774L685.143 8.92336M684.534 11.0774L720 11.0774M685.143 8.92336L685.217 8.65922L685.292 8.39655L685.366 8.1349L685.732 6.84226M685.143 8.92336L720 8.92337M720 11.0774L720 8.92337M685.732 6.84226L651.463 6.84226M685.732 6.84226L720 6.84226M685.732 6.84226L685.947 6.07997L686.019 5.82787L686.3 4.83009M720 8.92337L720 6.84226M651.463 6.84226L651.607 6.58665L652.178 5.57679L652.601 4.83008M651.463 6.84226L617.194 6.84225M683.25 15.6201L682.572 18.0167M720 6.84226L754.269 6.84227L754.054 6.07997L753.982 5.82788L753.911 5.5768L753.84 5.32672L753.77 5.07765L753.7 4.83009M720 6.84226L720 4.83009M609.749 15.6201L572.998 15.6201M682.572 18.0167L720 18.0167M575.612 13.309L539.515 13.309M575.612 13.309L573.66 15.0344L572.998 15.6206M681.139 23.0856L680.38 25.7685M561.52 25.7685L564.555 23.0856M561.52 25.7685L521.9 25.7685M564.555 23.0856L525.693 23.0856M677.915 34.4844L677.697 35.2598L677.251 36.8357L677.025 37.6358M720 40.9235L720 44.3561M548.099 37.6358L551.662 34.4844M548.099 37.6358L505.123 37.6358M551.662 34.4844L509.579 34.4844M674.11 47.9447L673.048 51.6989M532.193 51.6989L536.439 47.9447M532.193 51.6989L485.241 51.6989M536.439 47.9447L490.549 47.9447M669.547 64.0814L668.261 68.63M513.044 68.63L518.188 64.0814M513.044 68.63L461.305 68.63M518.188 64.0814L467.735 64.0814M663.977 83.7815L662.387 89.4054M489.547 89.4054L495.907 83.7815M489.547 89.4054L431.93 89.4054M495.907 83.7815L439.88 83.7815M657.024 108.371L655.008 115.503L590.016 115.503M590.016 115.503L525.023 115.503M468.097 108.371L405.12 108.371M650.561 131.23L648.101 139.929M648.101 139.929L645.461 149.268M421.84 149.268L432.4 139.929L360.51 139.929M421.84 149.268L347.3 149.268M639.553 170.165L636.232 181.906M636.232 181.906L632.626 194.659M636.232 181.906L720 181.906M370.51 194.659L384.93 181.906M370.51 194.659L283.13 194.659M468.696 181.907L384.93 181.907M619.67 240.482L624.396 223.768L720 223.768M619.67 240.482L614.452 258.934M508.905 258.934L614.452 258.934M508.905 258.934L403.36 258.934M403.36 258.934L297.81 258.934M318.68 240.482L218.35 240.483M318.68 240.482L297.81 258.934L192.26 258.934M539.515 13.309L536.248 15.6206M548.657 6.84275L582.925 6.84276M548.657 6.84275L550.799 5.32721L551.501 4.83058M536.248 15.6206L572.998 15.6206M582.925 6.84276L583.214 6.58715L583.788 6.08045L585.201 4.83058M551.501 4.83058L585.201 4.83058M426 15.6206L431.22 13.309M426 15.6206L389.25 15.6205M431.22 13.309L395.13 13.309M525.693 23.0856L521.9 25.7685M403.04 25.7685L408.36 23.4156L409.11 23.0856M403.04 25.7685L363.42 25.7685M409.11 23.0856L370.25 23.0856M509.579 34.4844L505.123 37.6358M376.2 37.6357L383.33 34.4844M376.2 37.6357L333.22 37.6357M383.33 34.4844L341.24 34.4844M490.549 47.9447L485.241 51.6989M344.39 51.6988L352.88 47.9447M344.39 51.6988L297.43 51.6988M352.88 47.9447L306.99 47.9447M467.735 64.0814L461.305 68.63M306.09 68.63L316.38 64.0814M306.09 68.63L254.35 68.63M316.38 64.0814L265.92 64.0814M439.88 83.7815L431.93 89.4054M259.09 89.4054L271.82 83.7815M259.09 89.4054L201.48 89.4054M271.82 83.7815L215.79 83.7815M405.12 108.371L395.04 115.503L330.05 115.503M330.05 115.503L265.05 115.503M216.19 108.371L153.22 108.371M372.8 131.23L360.51 139.929M360.51 139.929L347.3 149.268M123.69 149.268L144.81 139.929L72.91 139.929L49.15 149.268M123.69 149.268L49.15 149.268M317.76 170.165L301.16 181.906M301.16 181.906L283.13 194.659M301.16 181.906L384.93 181.906M21.01 194.659L49.86 181.906M21.01 194.659L0.39002 194.659M21.01 194.659L0.390019 203.776M133.63 181.907L49.86 181.907M218.35 240.483L192.26 258.934M86.72 258.934L192.26 258.934M86.72 258.934L0.390015 258.934M0.390015 258.934L0.390016 249.224M0.390016 249.224L0.390016 240.483M395.13 13.309L389.25 15.6205M411.58 6.84274L412.23 6.58713L416.7 4.83057M411.58 6.84274L445.851 6.84275M445.851 6.84275L447.576 6.08044L450.403 4.83057M416.7 4.83057L450.403 4.83057M278.99 15.6205L286.84 13.309M278.99 15.6205L242.24 15.6205M286.84 13.309L250.74 13.309M370.25 23.0856L363.42 25.7685M244.56 25.7685L253.66 23.0856M244.56 25.7685L204.94 25.7685M253.66 23.0856L214.8 23.0856M341.24 34.4844L333.22 37.6357M204.3 37.6357L214.99 34.4844M204.3 37.6357L161.32 37.6357M214.99 34.4844L172.9 34.4844M306.99 47.9447L297.43 51.6988M156.58 51.6988L169.32 47.9447M156.58 51.6988L109.63 51.6988M169.32 47.9447L123.43 47.9447M265.92 64.0814L254.35 68.63M99.13 68.63L114.57 64.0813M99.13 68.63L47.39 68.63M114.57 64.0813L64.11 64.0813M215.79 83.7815L201.48 89.4054M28.64 89.4054L47.72 83.7814M28.64 89.4054L0.390029 89.4054M47.72 83.7814L0.39003 83.7814M153.22 108.371L135.07 115.503L70.08 115.503M70.08 115.503L5.08998 115.503M5.08998 115.503L0.390027 115.503M5.08998 115.503L0.390027 117.013M0.390027 117.013L0.390027 115.504L0.390028 108.371M0.390025 140.15L0.390024 149.268M49.15 149.268L23.57 159.317M49.15 149.268L0.390024 149.268M23.57 159.317L0.390023 159.317M23.57 159.317L0.390023 168.428M0.390023 159.317L0.390023 168.428M0.390023 159.317L0.390024 149.268M0.390023 168.428L0.390022 170.164M49.86 181.906L0.390021 181.906M0.390022 170.164L0.390021 181.906M0.390021 181.906L0.39002 194.659M0.39002 194.659L0.390019 203.776M250.74 13.309L242.24 15.6205M274.51 6.84273L275.45 6.58712L281.9 4.83056M274.51 6.84273L308.78 6.84273M308.78 6.84273L309.64 6.58713L315.6 4.83056M281.9 4.83056L315.6 4.83056M131.99 15.6205L142.45 13.3089M131.99 15.6205L95.24 15.6205M142.45 13.3089L106.35 13.3089M214.8 23.0856L204.94 25.7685M86.08 25.7685L98.22 23.0856M86.08 25.7685L46.46 25.7685M98.22 23.0856L59.36 23.0855M172.9 34.4844L161.32 37.6357M32.39 37.6357L46.65 34.4844M32.39 37.6357L0.390034 37.6357M46.65 34.4844L4.56997 34.4844M123.43 47.9447L109.63 51.6988M0.390033 47.9447L0.390033 44.7103M64.11 64.0813L47.39 68.63M0.390032 64.0813L0.390031 67.434M0.390031 67.434L0.240007 67.4712M0.390031 67.434L0.390031 68.63M47.39 68.63L29.8001 73.4162M47.39 68.63L0.390031 68.63M29.8001 73.4162L11.26 78.4594M29.8001 73.4162L0.390031 73.4161M11.26 78.4594L0.39003 78.4594M11.26 78.4594L0.39003 81.4181M0.390031 73.4161L0.39003 78.4594M0.390031 73.4161L0.390031 68.63M0.39003 78.4594L0.39003 81.4181M0.39003 81.4181L0.39003 83.7814M0.39003 83.7814L0.390029 89.4054M0.390029 95.3579L0.390029 89.4054M106.35 13.3089L95.24 15.6205M137.43 6.84272L171.7 6.84272M137.43 6.84272L147.11 4.83055M171.7 6.84272L180.8 4.83055M147.11 4.83055L180.8 4.83055M0.390036 15.6205L0.390036 13.3089M0.390036 13.3089L0.390036 12.8973M59.36 23.0855L46.46 25.7685M6.83999 25.7684L46.46 25.7685M6.83999 25.7684L0.390035 27.0364M6.83999 25.7684L0.390035 25.7684M0.390035 23.0855L0.390035 25.7684M46.46 25.7685L33.0501 28.558M33.0501 28.558L19.1 31.4608M33.0501 28.558L0.390035 28.558M19.1 31.4608L4.56997 34.4844M19.1 31.4608L0.390035 31.4608M0.390035 28.558L0.390035 31.4608M0.390035 28.558L0.390035 27.0364M0.390035 27.0364L0.390035 25.7684M4.56997 34.4844L0.390034 35.3533M4.56997 34.4844L0.390034 34.4844M0.390035 31.4608L0.390034 34.4844M0.390034 35.3533L0.390034 37.6357M0.390034 35.3533L0.390034 34.4844M0.390034 40.9234L0.390033 44.356M0.390034 40.9234L0.390034 37.6357M0.390034 37.6357L0.160054 37.6357M0.390033 44.356L0.390033 44.7103M0.390033 44.7103L1.87263e-05 44.7963M0.390036 11.0779L0.390036 12.8973M0.390036 11.0779L0.390037 8.92383M34.63 6.84271L46.01 4.83054M34.63 6.84271L0.390037 6.84271M0.390037 8.92383L0.390037 6.84271M46.01 4.83054L12.3101 4.83053M0.390037 6.84271L0.360007 6.84271L0.390037 6.83767M0.390037 6.84271L0.390037 6.83767M720 4.8306L686.3 4.83059M12.3101 4.83053L0.390037 6.83767M12.3101 4.83053L0.390037 4.83053M0.390037 6.83767L0.390037 4.83053M1427.69 4.83066L1439.61 6.8378M1427.69 4.83066L1439.61 4.83066M1439.61 6.8378L1439.61 4.83066M1439.61 6.8378L1439.64 6.84283L1439.61 6.84283M1439.61 6.8378L1439.61 6.84283" stroke="url(#paint0_linear_21_3661)" stroke-miterlimit="10" stroke-linecap="round" stroke-linejoin="round"/>
</g>
<defs>
<linearGradient id="paint0_linear_21_3661" x1="720" y1="0.999937" x2="720" y2="181.89" gradientUnits="userSpaceOnUse">
<stop stop-color="#CED2DF" stop-opacity="0"/>
<stop offset="1" stop-color="#8791AB"/>
</linearGradient>
</defs>
</svg>
