<?xml version="1.0" standalone="no"?>
<!DOCTYPE svg PUBLIC "-//W3C//DTD SVG 20010904//EN"
 "http://www.w3.org/TR/2001/REC-SVG-20010904/DTD/svg10.dtd">
<svg version="1.0" xmlns="http://www.w3.org/2000/svg"
 width="700.000000pt" height="700.000000pt" viewBox="0 0 700.000000 700.000000"
 preserveAspectRatio="xMidYMid meet">
<metadata>
Created by potrace 1.14, written by Peter Selinger 2001-2017
</metadata>
<g transform="translate(0.000000,700.000000) scale(0.100000,-0.100000)"
fill="#000000" stroke="none">
<path d="M524 6004 c-60 -21 -119 -77 -151 -142 l-28 -57 0 -2201 0 -2200 30
-59 c19 -37 46 -72 73 -92 90 -68 -153 -63 3003 -63 3240 0 2920 -9 3015 85
93 92 85 -143 82 2350 -3 2122 -4 2201 -22 2235 -31 59 -96 119 -154 140 -52
20 -81 20 -2930 19 -2495 0 -2882 -3 -2918 -15z m5814 -144 c18 -11 41 -34 52
-52 20 -33 20 -55 20 -2204 l0 -2171 -23 -34 c-12 -19 -38 -42 -57 -52 -33
-16 -187 -17 -2895 -15 l-2860 3 -31 22 c-63 45 -59 -116 -59 2260 l0 2172 21
28 c11 15 36 36 55 45 32 17 191 18 2889 18 2831 0 2855 0 2888 -20z"/>
<path d="M830 3605 l0 -1935 2618 2 2617 3 3 1933 2 1932 -2620 0 -2620 0 0
-1935z m1380 690 l0 -415 -415 0 -415 0 0 415 0 415 415 0 415 0 0 -415z
m3308 -2 l2 -413 -415 0 -415 0 0 415 0 415 413 -2 412 -3 3 -412z m2 -1653
l0 -410 -2070 0 -2070 0 0 410 0 410 2070 0 2070 0 0 -410z"/>
</g>
</svg>
