<svg width="181" height="40" viewBox="0 0 181 40" fill="none" xmlns="http://www.w3.org/2000/svg">
<g clip-path="url(#clip0_35_8566)">
<mask id="mask0_35_8566" style="mask-type:luminance" maskUnits="userSpaceOnUse" x="0" y="0" width="50" height="40">
<path d="M50 0H0V40H50V0Z" fill="white"/>
</mask>
<g mask="url(#mask0_35_8566)">
<path d="M49.9999 35.4286C49.9999 37.9529 48.6358 40 46.9543 40H3.04554C1.36352 40 0 37.9529 0 35.4286V4.57209C0 2.0465 1.36352 0 3.04554 0H46.9543C48.6358 0 49.9999 2.0465 49.9999 4.57209V35.4286Z" fill="#98CBF9"/>
<path d="M47.0326 1.04062H4.2674C2.62849 1.04062 1.30078 3.03367 1.30078 5.49358V35.547C1.30078 38.0056 2.62849 39.9993 4.2674 39.9993H46.9537C48.6357 39.9993 49.9998 37.9522 49.9998 35.4279V5.49358C49.9998 3.03367 48.6716 1.04062 47.0326 1.04062Z" fill="#98CBF9"/>
<path d="M3 4.5C3 3.67157 3.67157 3 4.5 3H45.5C46.3284 3 47 3.67157 47 4.5V35.5C47 36.3284 46.3284 37 45.5 37H4.5C3.67157 37 3 36.3284 3 35.5V4.5Z" stroke="#202020" stroke-miterlimit="10"/>
<path d="M6 6H44V34H6V6Z" fill="#202020"/>
<path d="M16 18H10V12H16V18Z" fill="white"/>
<path d="M12 18H16V14H12V18Z" fill="#98CBF9"/>
<path d="M16 18H10V12H16V18Z" fill="white"/>
<path d="M12 18H16V14H12V18Z" fill="#98CBF9"/>
<path d="M40 18H34V12H40V18Z" fill="white"/>
<path d="M36 18H40V14H36V18Z" fill="#98CBF9"/>
<path d="M40 30H10V24H40V30Z" fill="white"/>
<path d="M40 30H12V26H40V30Z" fill="#98CBF9"/>
</g>
</g>
<path d="M75.952 32.504C72.832 32.504 70.36 31.64 68.536 29.912C66.712 28.16 65.8 25.664 65.8 22.424V16.376C65.8 13.136 66.712 10.652 68.536 8.924C70.36 7.172 72.832 6.296 75.952 6.296C79.048 6.296 81.436 7.148 83.116 8.852C84.82 10.532 85.672 12.848 85.672 15.8V16.016H80.992V15.656C80.992 14.168 80.572 12.944 79.732 11.984C78.916 11.024 77.656 10.544 75.952 10.544C74.272 10.544 72.952 11.06 71.992 12.092C71.032 13.124 70.552 14.528 70.552 16.304V22.496C70.552 24.248 71.032 25.652 71.992 26.708C72.952 27.74 74.272 28.256 75.952 28.256C77.656 28.256 78.916 27.776 79.732 26.816C80.572 25.832 80.992 24.608 80.992 23.144V22.496H85.672V23C85.672 25.952 84.82 28.28 83.116 29.984C81.436 31.664 79.048 32.504 75.952 32.504ZM98.184 32.504C96.408 32.504 94.812 32.144 93.396 31.424C91.98 30.704 90.864 29.66 90.048 28.292C89.232 26.924 88.824 25.28 88.824 23.36V22.784C88.824 20.864 89.232 19.22 90.048 17.852C90.864 16.484 91.98 15.44 93.396 14.72C94.812 14 96.408 13.64 98.184 13.64C99.96 13.64 101.556 14 102.972 14.72C104.388 15.44 105.504 16.484 106.32 17.852C107.136 19.22 107.544 20.864 107.544 22.784V23.36C107.544 25.28 107.136 26.924 106.32 28.292C105.504 29.66 104.388 30.704 102.972 31.424C101.556 32.144 99.96 32.504 98.184 32.504ZM98.184 28.472C99.576 28.472 100.728 28.028 101.64 27.14C102.552 26.228 103.008 24.932 103.008 23.252V22.892C103.008 21.212 102.552 19.928 101.64 19.04C100.752 18.128 99.6 17.672 98.184 17.672C96.792 17.672 95.64 18.128 94.728 19.04C93.816 19.928 93.36 21.212 93.36 22.892V23.252C93.36 24.932 93.816 26.228 94.728 27.14C95.64 28.028 96.792 28.472 98.184 28.472ZM111.731 32V14.144H116.195V16.16H116.843C117.107 15.44 117.539 14.912 118.139 14.576C118.763 14.24 119.483 14.072 120.299 14.072H122.459V18.104H120.227C119.075 18.104 118.127 18.416 117.383 19.04C116.639 19.64 116.267 20.576 116.267 21.848V32H111.731ZM132.844 32C131.668 32 130.708 31.64 129.964 30.92C129.244 30.176 128.884 29.192 128.884 27.968V17.888H124.42V14.144H128.884V8.6H133.42V14.144H138.316V17.888H133.42V27.176C133.42 27.896 133.756 28.256 134.428 28.256H137.884V32H132.844ZM149.926 32.504C148.15 32.504 146.578 32.132 145.21 31.388C143.866 30.62 142.81 29.552 142.042 28.184C141.298 26.792 140.926 25.16 140.926 23.288V22.856C140.926 20.984 141.298 19.364 142.042 17.996C142.786 16.604 143.83 15.536 145.174 14.792C146.518 14.024 148.078 13.64 149.854 13.64C151.606 13.64 153.13 14.036 154.426 14.828C155.722 15.596 156.73 16.676 157.45 18.068C158.17 19.436 158.53 21.032 158.53 22.856V24.404H145.534C145.582 25.628 146.038 26.624 146.902 27.392C147.766 28.16 148.822 28.544 150.07 28.544C151.342 28.544 152.278 28.268 152.878 27.716C153.478 27.164 153.934 26.552 154.246 25.88L157.954 27.824C157.618 28.448 157.126 29.132 156.478 29.876C155.854 30.596 155.014 31.22 153.958 31.748C152.902 32.252 151.558 32.504 149.926 32.504ZM145.57 21.02H153.922C153.826 19.988 153.406 19.16 152.662 18.536C151.942 17.912 150.994 17.6 149.818 17.6C148.594 17.6 147.622 17.912 146.902 18.536C146.182 19.16 145.738 19.988 145.57 21.02ZM159.823 32L166.303 23L159.895 14.144H165.151L169.219 20.084H169.867L173.935 14.144H179.191L172.783 23L179.263 32H173.935L169.867 25.988H169.219L165.151 32H159.823Z" fill="black"/>
<defs>
<clipPath id="clip0_35_8566">
<rect width="50" height="40" fill="white"/>
</clipPath>
</defs>
</svg>
