<svg width="106" height="106" viewBox="0 0 106 106" fill="none" xmlns="http://www.w3.org/2000/svg">
<path d="M92.5472 3.41739H12.6867C7.56742 3.41739 3.41739 7.56743 3.41739 12.6867V92.5472C3.41739 97.6665 7.56742 101.817 12.6867 101.817H92.5472C97.6665 101.817 101.817 97.6665 101.817 92.5472V12.6867C101.817 7.56743 97.6665 3.41739 92.5472 3.41739Z" fill="#27272A"/>
<g opacity="0.2">
<path d="M92.5472 3.41739H12.6867C7.56742 3.41739 3.41739 7.56743 3.41739 12.6867V92.5472C3.41739 97.6665 7.56742 101.817 12.6867 101.817H92.5472C97.6665 101.817 101.817 97.6665 101.817 92.5472V12.6867C101.817 7.56743 97.6665 3.41739 92.5472 3.41739Z" stroke="#B0AEF9" stroke-width="2.417"/>
<path d="M92.5472 3.41739H12.6867C7.56742 3.41739 3.41739 7.56743 3.41739 12.6867V92.5472C3.41739 97.6665 7.56742 101.817 12.6867 101.817H92.5472C97.6665 101.817 101.817 97.6665 101.817 92.5472V12.6867C101.817 7.56743 97.6665 3.41739 92.5472 3.41739Z" stroke="black" stroke-opacity="0.2" stroke-width="2.417"/>
</g>
<path opacity="0.4" d="M92.5489 6.27115H12.6885C9.14427 6.27115 6.27112 9.14431 6.27112 12.6885V92.549C6.27112 96.0932 9.14427 98.9663 12.6885 98.9663H92.5489C96.0932 98.9663 98.9663 96.0932 98.9663 92.549V12.6885C98.9663 9.14431 96.0932 6.27115 92.5489 6.27115Z" stroke="url(#paint0_linear_7_607)" stroke-opacity="0.1" stroke-width="0.806"/>
<path d="M92.5489 0.56543H12.6867C5.99227 0.56543 0.565369 5.99233 0.565369 12.6867V92.549C0.565369 99.2434 5.99227 104.67 12.6867 104.67H92.5489C99.2433 104.67 104.67 99.2434 104.67 92.549V12.6867C104.67 5.99233 99.2433 0.56543 92.5489 0.56543Z" stroke="url(#paint1_linear_7_607)" stroke-width="0.806"/>
<path fill-rule="evenodd" clip-rule="evenodd" d="M47.9987 64.2625L47.9999 75.1656H51.0786V64.2628L47.9987 64.2625ZM23.7755 64.2479V75.1656H26.8821V66.8754L29.2888 66.8763C30.086 66.8763 30.6537 67.0746 31.0378 67.4844C31.5251 68.0035 31.7238 68.8403 31.7238 70.3714V75.1656H34.7337V69.1336C34.7337 64.8284 31.9894 64.2476 29.3045 64.2476L23.7755 64.2479ZM52.9566 64.2628V75.1656H57.9512C60.6122 75.1656 61.4805 74.7229 62.4198 73.7309C63.0839 73.0342 63.5129 71.505 63.5129 69.8341C63.5129 68.3017 63.1497 66.9342 62.5162 66.0829C61.3753 64.5604 59.7317 64.2628 57.2784 64.2628H52.9566ZM56.0111 66.6366H57.3352C59.2558 66.6366 60.4983 67.4993 60.4983 69.7374C60.4983 71.976 59.2558 72.8384 57.3352 72.8384H56.0111V66.6366ZM43.559 64.2628L40.9892 72.904L38.5265 64.2633L35.2026 64.2628L38.7194 75.1656H43.1576L46.702 64.2628H43.5593H43.559ZM64.9457 75.1656H68.0255V64.2636L64.9451 64.2628L64.9457 75.1656ZM73.5778 64.2665L69.2779 75.1619H72.3143L72.9947 73.236H78.0831L78.7268 75.1619H82.0239L77.6911 64.2657L73.5778 64.2665ZM75.5768 66.2544L77.442 71.3585H73.6527L75.5768 66.2544Z" fill="white"/>
<path fill-rule="evenodd" clip-rule="evenodd" d="M43.9276 38.723V36.1036C44.1849 36.0854 44.4426 36.0722 44.7004 36.064C51.8643 35.8389 56.5644 42.2196 56.5644 42.2196C56.5644 42.2196 51.4883 49.2699 46.0454 49.2699C45.2613 49.2699 44.56 49.1438 43.9276 48.9315V40.9887C46.7165 41.3254 47.2772 42.5574 48.9543 45.3524L52.6833 42.2082C52.6833 42.2082 49.9615 38.6379 45.3726 38.6379C44.8731 38.6379 44.396 38.6729 43.9276 38.723ZM43.9276 30.0704V33.9829C44.1845 33.9625 44.442 33.9462 44.7004 33.9369C54.6631 33.6014 61.1536 42.1074 61.1536 42.1074C61.1536 42.1074 53.6981 51.1727 45.9315 51.1727C45.22 51.1727 44.5539 51.1072 43.9276 50.9962V53.4146C44.463 53.4828 45.0176 53.523 45.5966 53.523C52.8243 53.523 58.051 49.8321 63.1126 45.4634C63.9512 46.1353 67.3869 47.7699 68.0932 48.4861C63.2807 52.5149 52.0656 55.7619 45.7076 55.7619C45.1131 55.7597 44.5191 55.7288 43.9276 55.6693V59.0683H71.3985V30.0701H43.9279L43.9276 30.0704ZM43.9276 48.9315V50.9962C37.2425 49.8041 35.3872 42.8557 35.3872 42.8557C35.3872 42.8557 38.5969 39.2994 43.9276 38.723V40.9887C43.9236 40.9887 43.9207 40.9875 43.9172 40.9875C41.1199 40.6514 38.9342 43.2652 38.9342 43.2652C38.9342 43.2652 40.1587 47.6651 43.9276 48.9315ZM32.0546 42.5542C32.0546 42.5542 36.0163 36.708 43.9276 36.1036V33.9829C35.1653 34.686 27.5772 42.1072 27.5772 42.1072C27.5772 42.1072 31.8743 54.5319 43.9276 55.6693L43.9279 53.4149C35.0828 52.3017 32.0546 42.5542 32.0546 42.5542Z" fill="#76B900"/>
<defs>
<linearGradient id="paint0_linear_7_607" x1="4.13081" y1="20.7611" x2="94.4343" y2="98.3131" gradientUnits="userSpaceOnUse">
<stop stop-color="#1D0062" stop-opacity="0"/>
<stop offset="1" stop-color="#070317"/>
</linearGradient>
<linearGradient id="paint1_linear_7_607" x1="52.6178" y1="1.27886" x2="52.6178" y2="103.957" gradientUnits="userSpaceOnUse">
<stop stop-color="#DECFFF" stop-opacity="0.36"/>
<stop offset="1" stop-color="white" stop-opacity="0.15"/>
</linearGradient>
</defs>
</svg>
