<svg width="107" height="26" viewBox="0 0 107 26" fill="none" xmlns="http://www.w3.org/2000/svg">
<path d="M62.8654 10.1165V10.1253C62.8126 10.1253 62.7596 10.134 62.7069 10.134C62.6542 10.134 62.6011 10.1253 62.5484 10.1253C59.4052 10.1253 57.4594 12.0889 57.4594 15.2408V16.7904C57.4594 19.8278 59.4317 21.7122 62.5924 21.7122C62.6571 21.7138 62.7218 21.7109 62.7861 21.7034C62.8301 21.7034 62.8654 21.7122 62.9094 21.7122C65.0311 21.7122 66.5105 20.9375 67.4524 19.3349L65.5771 18.2517C64.9519 19.1761 64.1155 19.8718 62.9181 19.8718C61.3158 19.8718 60.3561 18.8856 60.3561 17.2215V16.7813H67.7871V14.95C67.7871 12.0093 65.8591 10.1165 62.8654 10.1165ZM62.7069 11.9216C64.1685 11.9922 65.0489 12.9605 65.0489 14.5541V14.9943H60.3474V14.7388C60.3474 12.978 61.1838 11.9922 62.7069 11.9216ZM51.1643 10.1253C49.7645 10.1253 48.5583 10.7065 47.9244 11.6749L47.7659 11.9213V10.3892H45.1069V25.2603H47.8979V20.0658L48.0564 20.3036C48.6551 21.1927 49.8262 21.7209 51.1908 21.7209H51.2613H51.3228C53.6208 21.7209 55.9363 20.224 55.9363 16.8696V14.9856C55.9363 12.5731 54.51 10.1343 51.305 10.1343L51.2875 10.1256H51.2261L51.1643 10.1253ZM50.5129 12.2208C52.133 12.2473 53.1366 13.3477 53.1366 15.1088V16.7286C53.1366 18.4894 52.1239 19.5813 50.4864 19.6166C48.9633 19.5901 47.8979 18.428 47.8979 16.7726V15.1085C47.8979 13.4357 48.972 12.2561 50.5129 12.2208ZM86.6818 6.45391L81.3111 21.457H84.331L85.3612 18.2433H91.2248V18.2785L92.255 21.4657H95.2749L89.8955 6.46264H89.5785L89.5698 6.45391H86.6818ZM88.2844 9.03366L90.5294 16.1215H86.0213L88.2844 9.03366ZM106.078 8.56694V6.45391H96.8685V8.56694H100.1V19.3261H96.8685V21.4392H106.078V19.3261H102.847V8.56694H106.078ZM75.7729 10.1256H75.6936H75.6496C74.0913 10.1256 72.9819 10.6538 72.4359 11.6664L72.2687 11.9747V10.3898H69.6097V21.4482H72.4007V14.8624C72.4007 13.3128 73.2371 12.4236 74.6809 12.3971C76.0633 12.4236 76.8557 13.2953 76.8557 14.8009V21.4482H79.6467V14.3251C79.6467 11.6926 78.2029 10.1253 75.7816 10.1253L75.7729 10.1256ZM36.1347 6.14567C32.0229 6.14567 29.4609 8.70795 29.4609 12.8373V15.0648C29.4609 19.1942 32.0141 21.7561 36.1347 21.7561H36.1965H36.258C40.3698 21.7561 42.9318 19.1942 42.9318 15.0648V12.8373C42.9318 8.70795 40.3698 6.14567 36.258 6.14567H36.1965H36.1347ZM36.1965 8.38225C38.6443 8.40876 40.0529 9.97583 40.0529 12.6875V15.2233C40.0529 17.935 38.6443 19.5024 36.1965 19.5286C33.7487 19.5021 32.3398 17.935 32.3398 15.2233V12.6875C32.3398 9.97583 33.7487 8.40845 36.1965 8.38225ZM11.8871 0.000318585C9.04314 0.000318585 6.51643 1.83163 5.63571 4.53462C4.73189 4.72092 3.87811 5.09759 3.1312 5.63956C2.38428 6.18152 1.76136 6.87635 1.30389 7.6778C-0.122475 10.1431 0.20323 13.2422 2.1141 15.3553C1.52415 17.1251 1.72662 19.0619 2.6688 20.6645C4.08643 23.1385 6.93885 24.4064 9.73012 23.8164C10.3413 24.5062 11.0924 25.0577 11.9335 25.4342C12.7747 25.8107 13.6864 26.0036 14.6079 26C17.4519 26 19.9786 24.1687 20.8593 21.4657C22.6906 21.0869 24.2668 19.9423 25.1824 18.3225C26.6175 15.8573 26.2918 12.7581 24.3813 10.645V10.6363C24.6727 9.76147 24.774 8.8345 24.6783 7.91739C24.5826 7.00027 24.2922 6.11416 23.8266 5.31831C22.4086 2.85305 19.5559 1.58486 16.7737 2.17481C16.1597 1.48687 15.4065 0.937249 14.5641 0.562369C13.7217 0.18749 12.8092 -0.00409155 11.8871 0.000318585ZM11.8871 1.69093L11.8784 1.69967C13.0231 1.69967 14.1237 2.09588 15.0041 2.82684C14.9689 2.84432 14.8984 2.8883 14.8456 2.91482L9.66866 5.89952C9.40441 6.04927 9.24593 6.33099 9.24593 6.63922V13.6475L7.0184 12.3622V6.56872C7.0179 5.27643 7.5304 4.0368 8.4433 3.12214C9.35621 2.20748 10.5949 1.69291 11.8871 1.69093ZM18.1236 3.73127C18.9815 3.72962 19.8246 3.95449 20.5678 4.38315C21.3109 4.8118 21.9278 5.42905 22.3559 6.1725C22.9193 7.15867 23.1305 8.31205 22.9368 9.43018C22.9015 9.40366 22.8313 9.36872 22.787 9.3422L17.6101 6.34846C17.4798 6.2748 17.3328 6.23609 17.1831 6.23609C17.0335 6.23609 16.8864 6.2748 16.7562 6.34846L10.6898 9.8526V7.28159L15.6995 4.38487C16.4361 3.95782 17.2722 3.73229 18.1236 3.73096V3.73127ZM5.31905 6.39245V12.5468C5.31905 12.8551 5.47754 13.1281 5.74178 13.2865L11.7992 16.782L9.56259 18.076L4.56157 15.1881C3.44396 14.5404 2.629 13.4757 2.2956 12.2277C1.9622 10.9797 2.1376 9.65046 2.78329 8.53168C3.35289 7.54437 4.24997 6.78777 5.31905 6.39245ZM16.9234 7.91553L21.9332 10.8035C24.2664 12.1506 25.0586 15.1266 23.7114 17.4599L23.7202 17.4686C23.148 18.4548 22.2498 19.212 21.1844 19.5994V13.4447C21.1844 13.1365 21.0259 12.8548 20.7617 12.7053L14.6956 9.20088L16.9234 7.91553ZM13.243 10.0376L15.7965 11.5167V14.4661L13.243 15.9452L10.6898 14.4661V11.5167L13.243 10.0376ZM17.2578 12.3622L19.4854 13.6475V19.4322C19.4854 22.1265 17.3018 24.31 14.6166 24.31V24.3013C13.4807 24.3013 12.3713 23.9051 11.4997 23.1744C11.5349 23.1569 11.6142 23.1126 11.6581 23.0861L16.8351 20.1014C17.0994 19.9517 17.2666 19.6699 17.2575 19.3617L17.2578 12.3622ZM15.805 16.148V18.7187L10.7952 21.6067C8.46193 22.9451 5.48596 22.1527 4.13884 19.8281H4.14757C3.57541 18.8507 3.37262 17.6886 3.56636 16.5704C3.60161 16.597 3.67212 16.6319 3.71611 16.6584L8.89308 19.6522C9.02332 19.7258 9.1704 19.7645 9.32002 19.7645C9.46965 19.7645 9.61673 19.7258 9.74697 19.6522L15.805 16.148Z" fill="white" fill-opacity="0.6"/>
</svg>
