<svg width="106" height="21" viewBox="0 0 106 21" fill="none" xmlns="http://www.w3.org/2000/svg">
<path fill-rule="evenodd" clip-rule="evenodd" d="M74.149 4.39236C72.549 4.39236 71.349 4.99236 70.749 5.99236L70.449 6.59236V4.69236H67.849V16.2924H70.649V9.39236C70.649 7.79236 71.549 6.79236 73.149 6.79236C74.649 6.79236 75.449 7.69236 75.449 9.29236V16.2924H78.249V8.79236C78.149 6.09236 76.649 4.39236 74.149 4.39236ZM60.649 4.39236C57.349 4.39236 55.349 6.49236 55.349 9.79236V11.3924C55.349 14.5924 57.449 16.4924 60.749 16.4924C62.949 16.4924 64.549 15.6924 65.449 13.9924L63.749 12.9924C63.049 13.9924 61.849 14.5924 60.749 14.5924C59.049 14.5924 58.049 13.5924 58.049 11.7924V11.2924H65.849V9.39236C65.749 6.39236 63.749 4.39236 60.649 4.39236ZM63.249 9.59236H58.049V9.29236C58.049 7.39236 58.949 6.29236 60.649 6.29236C62.249 6.29236 63.249 7.29236 63.249 9.09236V9.59236ZM105.849 2.79236V0.592358H96.249V2.79236H99.649V14.0924H96.249V16.2924H105.849V14.0924H102.449V2.79236H105.849ZM32.749 0.292358C28.449 0.292358 25.749 2.99236 25.749 7.29236V9.59236C25.749 13.8924 28.449 16.5924 32.749 16.5924C37.049 16.5924 39.749 13.8924 39.749 9.59236V7.29236C39.749 2.99236 37.049 0.292358 32.749 0.292358ZM36.849 9.79236C36.849 12.6924 35.349 14.2924 32.749 14.2924C30.149 14.2924 28.649 12.6924 28.649 9.79236V7.09236C28.649 4.19236 30.149 2.59236 32.749 2.59236C35.349 2.59236 36.849 4.19236 36.849 7.09236V9.79236ZM48.549 4.49236C47.049 4.49236 45.849 5.09236 45.149 6.09236L44.849 6.49236V4.69236H42.249V20.2924H45.049V14.6924L45.349 15.0924C45.949 15.9924 47.249 16.5924 48.649 16.5924C51.049 16.5924 53.449 14.9924 53.449 11.4924V9.49236C53.349 6.99236 51.849 4.39236 48.549 4.49236ZM50.549 11.3924C50.549 13.2924 49.449 14.3924 47.749 14.3924C46.149 14.3924 44.949 13.1924 44.949 11.3924V9.69236C44.949 7.89236 46.049 6.69236 47.749 6.69236C49.449 6.69236 50.549 7.89236 50.549 9.69236V11.3924ZM85.849 0.592358L80.249 16.2924H83.049L84.149 12.8924H90.649L91.749 16.1924H94.549L88.949 0.492359L85.849 0.592358ZM84.849 10.6924L87.349 2.79236L89.849 10.6924H84.849ZM18.549 8.49236C19.049 7.09236 18.849 5.59236 18.149 4.39236C17.049 2.49236 14.849 1.49236 12.749 1.99236C11.549 0.692359 9.74895 0.0923569 7.94895 0.392357C6.14895 0.792357 4.74895 2.09236 4.14895 3.79236C2.74895 4.09236 1.54896 4.99236 0.848956 6.19236C-0.251044 8.09236 -0.0510439 10.4924 1.44896 12.0924C0.948956 13.4924 1.14896 14.9924 1.84896 16.1924C2.94896 18.0924 5.14896 19.0924 7.24896 18.5924C8.24895 19.6924 9.54896 20.2924 11.049 20.2924C13.249 20.2924 15.149 18.8924 15.849 16.7924C17.249 16.4924 18.449 15.5924 19.149 14.3924C20.249 12.4924 20.049 10.0924 18.549 8.49236ZM11.049 18.9924C10.149 18.9924 9.34896 18.6924 8.64896 18.0924L8.74896 17.9924L12.749 15.6924C12.949 15.5924 13.049 15.3924 13.049 15.0924V9.49236L14.749 10.4924V15.1924C14.749 17.2924 13.149 18.9924 11.049 18.9924ZM2.94896 15.4924C2.54896 14.6924 2.34896 13.8924 2.54896 12.9924L2.64895 13.0924L6.64895 15.3924C6.84895 15.4924 7.04896 15.4924 7.34896 15.3924L12.249 12.5924V14.4924C12.249 14.4924 12.249 14.4924 12.249 14.5924L8.24896 16.8924C6.34896 17.8924 4.04896 17.2924 2.94896 15.4924ZM1.94896 6.89236C2.34896 6.09236 3.04896 5.59236 3.94896 5.29236V9.99236C3.94896 10.1924 4.04896 10.3924 4.24896 10.5924L9.04896 13.3924L7.34896 14.3924C7.34896 14.3924 7.34896 14.3924 7.24896 14.3924L3.24896 12.0924C1.54896 10.8924 0.948956 8.59236 1.94896 6.89236ZM15.749 10.0924L10.949 7.29236L12.649 6.29236C12.649 6.29236 12.649 6.29236 12.749 6.29236L16.749 8.59236C18.049 9.29236 18.749 10.6924 18.649 12.1924C18.549 13.5924 17.549 14.8924 16.249 15.3924V10.6924C16.149 10.3924 15.949 10.1924 15.749 10.0924ZM17.449 7.59236L17.349 7.49236L13.349 5.19236C13.149 5.09236 12.849 5.09236 12.649 5.19236L7.84896 7.99236V6.09236C7.84896 6.09236 7.84896 6.09236 7.84896 5.99236L11.849 3.69236C13.149 2.99236 14.649 2.99236 15.849 3.89236C17.049 4.69236 17.649 6.09236 17.449 7.59236ZM6.94896 10.9924L5.24896 9.99236V5.29236C5.24896 3.79236 6.04896 2.49236 7.44896 1.89236C8.74896 1.29236 10.349 1.49236 11.449 2.39236L11.349 2.49236L7.34896 4.79236C7.14896 4.89236 7.04896 5.09236 7.04896 5.39236L6.94896 10.9924ZM7.84896 8.99236L10.049 7.79236L12.249 8.99236V11.4924L10.049 12.6924L7.84896 11.4924V8.99236Z" fill="white"/>
</svg>
