<svg width="106" height="106" viewBox="0 0 106 106" fill="none" xmlns="http://www.w3.org/2000/svg">
<path d="M92.5472 3.41739H12.6867C7.56739 3.41739 3.41736 7.56743 3.41736 12.6867V92.5472C3.41736 97.6665 7.56739 101.817 12.6867 101.817H92.5472C97.6665 101.817 101.817 97.6665 101.817 92.5472V12.6867C101.817 7.56743 97.6665 3.41739 92.5472 3.41739Z" fill="#27272A"/>
<g opacity="0.2">
<path d="M92.5472 3.41739H12.6867C7.56739 3.41739 3.41736 7.56743 3.41736 12.6867V92.5472C3.41736 97.6665 7.56739 101.817 12.6867 101.817H92.5472C97.6665 101.817 101.817 97.6665 101.817 92.5472V12.6867C101.817 7.56743 97.6665 3.41739 92.5472 3.41739Z" stroke="#B0AEF9" stroke-width="2.417"/>
<path d="M92.5472 3.41739H12.6867C7.56739 3.41739 3.41736 7.56743 3.41736 12.6867V92.5472C3.41736 97.6665 7.56739 101.817 12.6867 101.817H92.5472C97.6665 101.817 101.817 97.6665 101.817 92.5472V12.6867C101.817 7.56743 97.6665 3.41739 92.5472 3.41739Z" stroke="black" stroke-opacity="0.2" stroke-width="2.417"/>
</g>
<path opacity="0.4" d="M92.5489 6.27115H12.6885C9.14427 6.27115 6.27112 9.1443 6.27112 12.6885V92.549C6.27112 96.0932 9.14427 98.9663 12.6885 98.9663H92.5489C96.0932 98.9663 98.9663 96.0932 98.9663 92.549V12.6885C98.9663 9.1443 96.0932 6.27115 92.5489 6.27115Z" stroke="url(#paint0_linear_7_607)" stroke-opacity="0.1" stroke-width="0.806"/>
<path d="M92.5489 0.56543H12.6867C5.99227 0.56543 0.565369 5.99233 0.565369 12.6867V92.549C0.565369 99.2434 5.99227 104.67 12.6867 104.67H92.5489C99.2433 104.67 104.67 99.2434 104.67 92.549V12.6867C104.67 5.99233 99.2433 0.56543 92.5489 0.56543Z" stroke="url(#paint1_linear_7_607)" stroke-width="0.806"/>
<rect x="23" y="23" width="60" height="60" rx="12" fill="#9068D0" fill-opacity="0.2"/>
<path fill-rule="evenodd" clip-rule="evenodd" d="M67.2761 40.0572C67.7968 40.5779 67.7968 41.4221 67.2761 41.9428L61.9428 47.2761C61.4221 47.7968 60.5779 47.7968 60.0572 47.2761L57.3905 44.6095C56.8698 44.0888 56.8698 43.2446 57.3905 42.7239C57.9112 42.2032 58.7555 42.2032 59.2761 42.7239L61 44.4477L65.3905 40.0572C65.9112 39.5365 66.7555 39.5365 67.2761 40.0572Z" fill="white"/>
<path fill-rule="evenodd" clip-rule="evenodd" d="M44.3333 48.3333C44.3333 46.1242 46.1242 44.3333 48.3333 44.3333C50.5425 44.3333 52.3333 46.1242 52.3333 48.3333C52.3333 50.5425 50.5425 52.3333 48.3333 52.3333C46.1242 52.3333 44.3333 50.5425 44.3333 48.3333Z" fill="white"/>
<path fill-rule="evenodd" clip-rule="evenodd" d="M53.6667 39.6667H47.3449C46.2717 39.6667 45.3858 39.6666 44.6642 39.7256C43.9148 39.7868 43.2258 39.9182 42.5787 40.248C41.5752 40.7593 40.7593 41.5752 40.248 42.5787C39.9183 43.2258 39.7868 43.9148 39.7256 44.6642C39.6666 45.3858 39.6667 46.2716 39.6667 47.3449V58.6551C39.6667 59.7284 39.6666 60.6142 39.7256 61.3358C39.7868 62.0852 39.9183 62.7742 40.248 63.4213C40.7593 64.4248 41.5752 65.2407 42.5787 65.752C43.2258 66.0818 43.9148 66.2132 44.6642 66.2744C44.8981 66.2935 45.1492 66.3064 45.4183 66.3152C45.6974 66.3337 46.0312 66.3336 46.3753 66.3336C50.8057 66.3336 55.2362 66.3333 59.6667 66.3333C59.7287 66.3333 59.7899 66.3334 59.8501 66.3334C60.9106 66.334 61.6982 66.3344 62.3804 66.1516C64.2209 65.6584 65.6585 64.2209 66.1516 62.3804C66.3853 61.508 66.3337 60.5739 66.3333 59.6793C66.3357 59.4269 66.3335 59.1744 66.3335 58.922C66.3342 58.2968 66.3347 57.7459 66.1897 57.2195C66.0625 56.7576 65.8532 56.3222 65.572 55.9343C65.2516 55.4922 64.8211 55.1486 64.3324 54.7585L60.5577 51.7388C60.3312 51.5576 60.1073 51.3784 59.9039 51.2396C59.6777 51.0852 59.3993 50.9248 59.0509 50.8355C58.5612 50.7099 58.0458 50.7262 57.5649 50.8824C57.2228 50.9935 56.9551 51.1711 56.7391 51.3394C56.5449 51.4908 56.3327 51.6838 56.1181 51.8789L44.774 62.1917C44.4893 62.4504 44.2141 62.7005 44.0119 62.9194C43.9308 63.0071 43.8076 63.1436 43.6924 63.3241C43.235 63.0667 42.863 62.6797 42.624 62.2106C42.5177 62.0021 42.4312 61.7032 42.3834 61.1186C42.3344 60.5185 42.3333 59.7421 42.3333 58.6V47.4C42.3333 46.2579 42.3344 45.4815 42.3834 44.8814C42.4312 44.2968 42.5177 43.9979 42.624 43.7894C42.8797 43.2876 43.2876 42.8796 43.7894 42.624C43.9979 42.5177 44.2968 42.4312 44.8814 42.3834C45.4815 42.3344 46.2579 42.3333 47.4 42.3333H53.6667C54.4031 42.3333 55 41.7364 55 41C55 40.2636 54.4031 39.6667 53.6667 39.6667Z" fill="white"/>
<defs>
<linearGradient id="paint0_linear_7_607" x1="4.13081" y1="20.7611" x2="94.4343" y2="98.3131" gradientUnits="userSpaceOnUse">
<stop stop-color="#1D0062" stop-opacity="0"/>
<stop offset="1" stop-color="#070317"/>
</linearGradient>
<linearGradient id="paint1_linear_7_607" x1="52.6178" y1="1.27886" x2="52.6178" y2="103.957" gradientUnits="userSpaceOnUse">
<stop stop-color="#DECFFF" stop-opacity="0.36"/>
<stop offset="1" stop-color="white" stop-opacity="0.15"/>
</linearGradient>
</defs>
</svg>
