<svg width="36" height="36" viewBox="0 0 36 36" fill="none" xmlns="http://www.w3.org/2000/svg">
<path d="M16.75 6.41907C15.3522 6.41907 14.0437 6.80146 12.9234 7.46734C12.7705 6.09803 12.3847 4.90961 11.7269 3.84998C13.2388 3.09427 14.9448 2.66907 16.75 2.66907C22.5407 2.66907 27.3095 7.04413 27.9313 12.6691H31.125C33.5412 12.6691 35.5 14.6278 35.5 17.0441V28.2941C35.5 30.7103 33.5412 32.6691 31.125 32.6691H19.875C17.4588 32.6691 15.5 30.7103 15.5 28.2941V25.1004C14.6182 25.0029 13.7672 24.8035 12.9589 24.5143C12.986 23.9248 13.0002 23.3101 13.0002 22.6691L13.0002 22.468C13.0006 21.869 13.001 21.1621 12.976 20.4018C13.7415 20.8483 14.5931 21.1632 15.5 21.3154V17.0441C15.5 14.6278 17.4588 12.6691 19.875 12.6691H24.1463C23.5512 9.12193 20.4662 6.41907 16.75 6.41907ZM27.7212 16.4191C26.7668 20.625 23.4559 23.9359 19.25 24.8903V28.2941C19.25 28.6392 19.5298 28.9191 19.875 28.9191H31.125C31.4702 28.9191 31.75 28.6392 31.75 28.2941V17.0441C31.75 16.6989 31.4702 16.4191 31.125 16.4191H27.7212ZM23.8232 16.4191H19.875C19.5298 16.4191 19.25 16.6989 19.25 17.0441V20.9923C21.381 20.2391 23.07 18.5501 23.8232 16.4191ZM6.95225 0.481978C7.36763 0.848667 7.491 1.44371 7.25953 1.94381C7.2574 1.94963 7.25343 1.96104 7.24878 1.97732C7.23508 2.02526 7.21875 2.10372 7.21875 2.20033C7.21875 2.35987 7.25863 2.65994 7.63388 3.03519C7.8164 3.21771 7.95687 3.34722 8.11 3.48842C8.23419 3.60292 8.36671 3.72511 8.53675 3.88948C8.85815 4.20017 9.20326 4.56425 9.50881 5.02258C10.1469 5.97976 10.5 7.17571 10.5 8.91908C10.5 10.9987 9.74908 12.7768 8.57075 13.8986C9.29973 14.6393 9.72508 15.6076 9.98741 16.5718C10.5003 18.4569 10.5002 20.7808 10.5 22.5799L10.5 22.6691C10.5 27.8147 9.53652 30.8711 8.44688 32.6872C7.90057 33.5977 7.32956 34.1838 6.85337 34.5542C6.61656 34.7384 6.40703 34.8662 6.24115 34.9531C6.15834 34.9965 6.08671 35.0295 6.02834 35.0541C6.02834 35.0541 5.71115 35.1691 5.5 35.1691C5.28885 35.1691 4.97168 35.0541 4.97168 35.0541C4.91331 35.0295 4.84168 34.9965 4.75887 34.9531C4.59299 34.8662 4.38346 34.7384 4.14665 34.5542C3.67046 34.1838 3.09945 33.5977 2.55314 32.6872C1.46349 30.8711 0.50001 27.8147 0.50001 22.6691L0.500005 22.5799C0.499862 20.7808 0.499678 18.4569 1.01261 16.5718C1.27494 15.6076 1.70028 14.6393 2.42926 13.8987C1.25093 12.7768 0.5 10.9987 0.5 8.91908C0.5 8.10488 0.71832 7.13049 1.01771 6.2346C1.31853 5.33447 1.73825 4.40332 2.22157 3.65426C2.8002 2.67875 3.61355 1.86243 4.24178 1.31043C4.56555 1.02595 4.85625 0.797768 5.06791 0.639337C5.17403 0.559909 5.26106 0.497432 5.32339 0.453588L5.3979 0.401845L5.42011 0.386744L5.42724 0.381948L5.43162 0.379013C5.90322 0.0646134 6.52734 0.106874 6.95225 0.481978Z" fill="#5082EF"/>
</svg>
