<svg width="40" height="41" viewBox="0 0 40 41" fill="none" xmlns="http://www.w3.org/2000/svg">
<path d="M15.3894 5.95249C16.5605 5.15314 18.0754 4.66907 20 4.66907C21.9246 4.66907 23.4395 5.15314 24.6106 5.95249C25.7757 6.7477 26.5363 7.81077 27.0312 8.87118C27.6911 10.2852 27.9015 11.7469 27.9686 12.7036C29.263 12.7992 30.589 13.1099 31.6797 13.837C33.1169 14.7952 34 16.3778 34 18.6691C34 21.0089 33.1233 22.6008 31.6722 23.5495C30.3013 24.4458 28.5627 24.6691 27 24.6691H13C11.4205 24.6691 9.68595 24.4115 8.3203 23.5011C6.88309 22.543 6 20.9604 6 18.6691C6 16.3778 6.88309 14.7952 8.3203 13.837C9.411 13.1099 10.737 12.7992 12.0314 12.7036C12.0985 11.7469 12.3089 10.2852 12.9688 8.87118C13.4637 7.81077 14.2243 6.7477 15.3894 5.95249ZM20 30.6691C20 32.8782 18.2091 34.6691 16 34.6691C13.7909 34.6691 12 32.8782 12 30.6691C12 28.4599 13.7909 26.6691 16 26.6691C18.2091 26.6691 20 28.4599 20 30.6691ZM10 33.6691C10 35.3259 8.65685 36.6691 7 36.6691C5.34315 36.6691 4 35.3259 4 33.6691C4 32.0122 5.34315 30.6691 7 30.6691C8.65685 30.6691 10 32.0122 10 33.6691Z" fill="#5082EF"/>
</svg>
