<svg width="30" height="31" viewBox="0 0 30 31" fill="none" xmlns="http://www.w3.org/2000/svg">
<path d="M0 5.66907C0 2.90764 2.23858 0.669067 5 0.669067H8.75C9.44036 0.669067 10 1.22871 10 1.91907C10 2.60942 9.44036 3.16907 8.75 3.16907H5C3.61929 3.16907 2.5 4.28836 2.5 5.66907V9.41907C2.5 10.1094 1.94036 10.6691 1.25 10.6691C0.559644 10.6691 0 10.1094 0 9.41907V5.66907ZM0 25.6691C0 28.4305 2.23858 30.6691 5 30.6691H8.75C9.44036 30.6691 10 30.1094 10 29.4191C10 28.7287 9.44036 28.1691 8.75 28.1691H5C3.61929 28.1691 2.5 27.0498 2.5 25.6691V21.9191C2.5 21.2287 1.94036 20.6691 1.25 20.6691C0.559644 20.6691 0 21.2287 0 21.9191V25.6691ZM25 0.669067C27.7614 0.669067 30 2.90764 30 5.66907V9.41907C30 10.1094 29.4404 10.6691 28.75 10.6691C28.0596 10.6691 27.5 10.1094 27.5 9.41907V5.66907C27.5 4.28836 26.3807 3.16907 25 3.16907H21.25C20.5596 3.16907 20 2.60942 20 1.91907C20 1.22871 20.5596 0.669067 21.25 0.669067H25ZM30 25.6691C30 28.4305 27.7614 30.6691 25 30.6691H21.25C20.5596 30.6691 20 30.1094 20 29.4191C20 28.7287 20.5596 28.1691 21.25 28.1691H25C26.3807 28.1691 27.5 27.0498 27.5 25.6691V21.9191C27.5 21.2287 28.0596 20.6691 28.75 20.6691C29.4404 20.6691 30 21.2287 30 21.9191V25.6691ZM8.75 18.1691C8.75 14.7173 11.5482 11.9191 15 11.9191C18.4518 11.9191 21.25 14.7173 21.25 18.1691C21.25 21.6208 18.4518 24.4191 15 24.4191C11.5482 24.4191 8.75 21.6208 8.75 18.1691ZM3.28548 15.5796C3.92603 15.8358 4.65294 15.5247 4.9098 14.8846L4.90857 14.8877L4.92125 14.8586C4.93466 14.8286 4.95805 14.7779 4.99227 14.7095C5.06078 14.5725 5.17218 14.3654 5.33309 14.1113C5.65549 13.6022 6.17203 12.912 6.93431 12.219C8.43854 10.8515 10.9561 9.41907 14.9997 9.41907C19.0434 9.41907 21.5609 10.8515 23.0651 12.219C23.8274 12.912 24.344 13.6022 24.6664 14.1113C24.8273 14.3654 24.9387 14.5725 25.0072 14.7095C25.0414 14.7779 25.0648 14.8286 25.0782 14.8586C25.0782 14.8586 25.6888 15.9897 26.714 15.5796C27.3549 15.3232 27.6667 14.5958 27.4103 13.9548C27.1425 13.3968 27.4091 13.9518 27.4091 13.9518L27.4076 13.9482L27.404 13.9392L27.3937 13.9145C27.3855 13.8951 27.3746 13.8698 27.3608 13.839C27.3333 13.7775 27.2945 13.6939 27.2432 13.5915C27.1409 13.3867 26.9886 13.1055 26.7784 12.7737C26.3586 12.1108 25.7033 11.2386 24.7468 10.3691C22.8135 8.61161 19.7061 6.91907 14.9997 6.91907C10.2934 6.91907 7.18591 8.61161 5.25263 10.3691C4.29616 11.2386 3.64083 12.1108 3.22104 12.7737C3.01086 13.1055 2.85859 13.3867 2.7562 13.5915C2.70497 13.6939 2.6661 13.7775 2.63861 13.839C2.62487 13.8698 2.61395 13.8951 2.60575 13.9145L2.59546 13.9392L2.5899 13.9518L2.58913 13.9548C2.33273 14.5958 2.6445 15.3232 3.28548 15.5796Z" fill="#5082EF"/>
</svg>
