<svg width="33" height="29" viewBox="0 0 33 29" fill="none" xmlns="http://www.w3.org/2000/svg">
<path d="M23.3827 0.745217C23.7564 0.899998 24 1.26463 24 1.6691V13.6691C24 14.0736 23.7564 14.4382 23.3827 14.593C23.009 14.7478 22.5789 14.6622 22.2929 14.3762L18.5858 10.6691H17C16.4477 10.6691 16 10.2214 16 9.6691V5.6691C16 5.11681 16.4477 4.6691 17 4.6691H18.5858L22.2929 0.96199C22.5789 0.675992 23.009 0.590436 23.3827 0.745217ZM31.3 1.06913C31.5424 1.39241 31.8702 1.97518 32.1863 2.818C32.6965 4.17845 33 5.79713 33 7.66913C33 9.54112 32.6965 11.1598 32.1863 12.5202C31.8702 13.3631 31.5424 13.9458 31.3 14.2691C30.9686 14.711 30.3418 14.8005 29.9 14.4691C29.5072 14.1746 29.3928 13.6466 29.605 13.2226L29.8365 12.8588C29.9676 12.6344 30.1376 12.2874 30.3136 11.818C30.741 10.6785 31 9.29713 31 7.66913C31 6.04112 30.741 4.6598 30.3136 3.52025C30.1376 3.05084 29.9676 2.70385 29.8365 2.47949L29.7 2.26913C29.3686 1.8273 29.4581 1.2005 29.9 0.869126C30.3418 0.537755 30.9686 0.627298 31.3 1.06913ZM27.8944 3.22191C28.0391 3.51135 28.2447 3.99108 28.4487 4.6029C28.7924 5.63406 29 6.67204 29 7.66913C29 8.66621 28.7924 9.70419 28.4487 10.7354C28.2447 11.3472 28.0391 11.8269 27.8944 12.1163C27.6474 12.6103 27.0467 12.8105 26.5528 12.5636C26.0588 12.3166 25.8586 11.7159 26.1055 11.2219L26.2587 10.8848C26.3466 10.6763 26.4487 10.4108 26.5513 10.1029C26.8326 9.25906 27 8.42204 27 7.66913C27 6.91621 26.8326 6.07919 26.5513 5.23535C26.3802 4.72218 26.2108 4.32691 26.1055 4.11634C25.8586 3.62236 26.0588 3.02169 26.5528 2.7747C27.0467 2.52771 27.6474 2.72793 27.8944 3.22191ZM28.7 16.0692C28.186 15.6838 27.8313 15.1658 27.6473 14.5987C27.0777 14.7249 26.4683 14.6865 25.8945 14.4583C25.6542 15.3396 25.0188 16.0802 24.148 16.4409C23.027 16.9052 21.7367 16.6485 20.8787 15.7905L17.7574 12.6692H17C15.3431 12.6692 14 11.3261 14 9.66921V5.66921C14 5.31852 14.0602 4.98189 14.1708 4.66907H4C1.79086 4.66907 0 6.45993 0 8.66907V24.6691C0 26.8782 1.79086 28.6691 4 28.6691H28C30.2091 28.6691 32 26.8782 32 24.6691V16.2682C30.9911 16.8499 29.6906 16.8122 28.7 16.0692ZM13 22.6691H19C19.5523 22.6691 20 23.1168 20 23.6691C20 24.2214 19.5523 24.6691 19 24.6691H13C12.4477 24.6691 12 24.2214 12 23.6691C12 23.1168 12.4477 22.6691 13 22.6691Z" fill="#5082EF"/>
</svg>
