<svg width="69" height="23" viewBox="0 0 69 23" fill="none" xmlns="http://www.w3.org/2000/svg">
<path d="M13.6426 15.1733C14.9173 15.873 15.8952 15.2868 16.8905 15.2679C17.5715 15.2489 18.3049 15.2679 18.9161 15.5137C20.2257 16.0432 20.4353 18.0855 19.3003 18.8987C18.724 19.2958 18.0605 19.6173 17.3969 19.7875C13.2235 20.8465 9.03272 21.8865 4.82444 22.8699C4.05611 23.059 3.2005 23.0212 2.39725 22.8888C1.17493 22.6997 0.458984 21.2436 0.895531 20.0333C1.01776 19.6929 1.19239 19.3525 1.367 19.0311C3.11318 15.9108 4.82444 12.7717 6.623 9.68926C7.04209 8.97066 7.61832 8.28988 8.2644 7.7793C9.50419 6.79595 10.7789 7.43891 11.0408 9.12194C11.1107 9.5947 11.0583 10.1053 11.0583 10.9184C11.7568 10.6348 12.2457 10.4835 12.7172 10.2188C15.7206 8.55464 18.7066 6.89051 21.6925 5.20747C28.3455 1.4821 35.5397 0.215097 42.926 0.00708008C45.231 -0.0496502 47.6058 0.234001 49.8234 0.876959C53.2983 1.87922 56.7034 3.18403 60.0386 4.60232C63.7929 6.20972 66.2724 9.32995 67.8615 13.3012C68.1234 13.963 68.298 14.7762 68.2107 15.4759C68.1408 15.9865 67.6694 16.6672 67.2328 16.8374C66.7963 17.0076 66.028 16.7807 65.6962 16.4025C65.1374 15.8163 64.7533 14.9842 64.3516 14.2278C62.6928 11.1643 60.3529 9.04629 57.2447 7.91166C54.0492 6.75812 50.941 5.30202 47.5709 4.82926C40.1322 3.80809 32.9554 5.01835 26.0929 8.11967C22.3561 9.80271 18.8113 12.0153 15.1793 14.0009C14.6729 14.2845 14.2538 14.7005 13.6426 15.1733Z" fill="white"/>
</svg>
