<svg width="69" height="23" viewBox="0 0 69 23" fill="none" xmlns="http://www.w3.org/2000/svg">
<path d="M13.6426 15.1733C14.9173 15.873 15.8951 15.2868 16.8905 15.2679C17.5715 15.2489 18.3049 15.2679 18.916 15.5137C20.2257 16.0432 20.4352 18.0855 19.3002 18.8987C18.724 19.2958 18.0604 19.6173 17.3969 19.7875C13.2235 20.8465 9.03266 21.8865 4.82438 22.8699C4.05605 23.059 3.20044 23.0212 2.39719 22.8888C1.17487 22.6997 0.458923 21.2436 0.89547 20.0333C1.0177 19.6929 1.19233 19.3525 1.36694 19.0311C3.11312 15.9108 4.82438 12.7717 6.62294 9.68926C7.04203 8.97066 7.61826 8.28988 8.26434 7.7793C9.50413 6.79595 10.7788 7.43891 11.0408 9.12194C11.1106 9.5947 11.0582 10.1053 11.0582 10.9184C11.7567 10.6348 12.2456 10.4835 12.7171 10.2188C15.7205 8.55464 18.7065 6.89051 21.6925 5.20747C28.3454 1.4821 35.5396 0.215097 42.926 0.00708008C45.2309 -0.0496502 47.6057 0.234001 49.8234 0.876959C53.2983 1.87922 56.7033 3.18403 60.0385 4.60232C63.7928 6.20972 66.2724 9.32995 67.8614 13.3012C68.1233 13.963 68.2979 14.7762 68.2106 15.4759C68.1408 15.9865 67.6693 16.6672 67.2328 16.8374C66.7962 17.0076 66.0279 16.7807 65.6961 16.4025C65.1374 15.8163 64.7532 14.9842 64.3516 14.2278C62.6927 11.1643 60.3528 9.04629 57.2446 7.91166C54.0491 6.75812 50.9409 5.30202 47.5708 4.82926C40.1321 3.80809 32.9553 5.01835 26.0928 8.11967C22.356 9.80271 18.8113 12.0153 15.1792 14.0009C14.6728 14.2845 14.2537 14.7005 13.6426 15.1733Z" fill="black"/>
</svg>
