<svg width="208" height="182" viewBox="0 0 208 182" fill="none" xmlns="http://www.w3.org/2000/svg">
<g filter="url(#filter0_d_534_7914)">
<path d="M159.756 0.421204C171.093 0.421204 181.965 4.91985 189.981 12.9275C197.997 20.9351 202.5 31.7958 202.5 43.1203V83.7002H117.013V43.1203C117.013 31.7958 121.516 20.9351 129.532 12.9275C137.548 4.91985 148.42 0.421204 159.756 0.421204Z" fill="#D7D7D7"/>
</g>
<path d="M146.558 46.603C146.558 47.8568 146.323 48.9307 145.853 49.8246C145.388 50.7148 144.751 51.3966 143.944 51.8701C143.141 52.3436 142.23 52.5803 141.211 52.5803C140.192 52.5803 139.28 52.3436 138.473 51.8701C137.67 51.3928 137.033 50.7091 136.564 49.8189C136.098 48.925 135.865 47.853 135.865 46.603C135.865 45.3492 136.098 44.2773 136.564 43.3871C137.033 42.4932 137.67 41.8095 138.473 41.336C139.28 40.8625 140.192 40.6257 141.211 40.6257C142.23 40.6257 143.141 40.8625 143.944 41.336C144.751 41.8095 145.388 42.4932 145.853 43.3871C146.323 44.2773 146.558 45.3492 146.558 46.603ZM144.439 46.603C144.439 45.7204 144.3 44.9761 144.024 44.3701C143.751 43.7602 143.372 43.3 142.888 42.9894C142.403 42.675 141.844 42.5178 141.211 42.5178C140.579 42.5178 140.02 42.675 139.535 42.9894C139.05 43.3 138.67 43.7602 138.393 44.3701C138.12 44.9761 137.984 45.7204 137.984 46.603C137.984 47.4856 138.12 48.2318 138.393 48.8417C138.67 49.4477 139.05 49.9079 139.535 50.2223C140.02 50.5329 140.579 50.6882 141.211 50.6882C141.844 50.6882 142.403 50.5329 142.888 50.2223C143.372 49.9079 143.751 49.4477 144.024 48.8417C144.3 48.2318 144.439 47.4856 144.439 46.603ZM158.113 40.7848L158.113 52.4212L156.238 52.4212L150.755 44.4951L150.659 44.4951L150.659 52.4212L148.551 52.4212L148.551 40.7848L150.437 40.7848L155.915 48.7167L156.017 48.7167L156.017 40.7848L158.113 40.7848ZM169.973 40.7848L169.973 52.4212L168.098 52.4212L162.615 44.4951L162.518 44.4951L162.518 52.4212L160.41 52.4212L160.41 40.7848L162.297 40.7848L167.774 48.7167L167.876 48.7167L167.876 40.7848L169.973 40.7848ZM174.031 40.7848L176.593 45.0462L176.684 45.0462L179.258 40.7848L181.662 40.7848L178.076 46.603L181.718 52.4212L179.275 52.4212L176.684 48.1883L176.593 48.1883L174.003 52.4212L171.571 52.4212L175.247 46.603L171.616 40.7848L174.031 40.7848Z" fill="#191A23"/>
<g filter="url(#filter1_d_534_7914)">
<path d="M188.872 124.683V156.315C188.872 159.26 186.547 161.887 183.087 162.833C177.792 164.278 173.601 167.655 171.806 171.92C170.633 174.709 167.371 176.579 163.714 176.579H100.171C96.5134 176.579 93.2517 174.709 92.0782 171.92C90.2831 167.653 86.0925 164.278 80.7971 162.833C77.3342 161.887 75.0125 159.26 75.0125 156.315V124.683C75.0125 121.738 77.3373 119.111 80.7981 118.165C86.0935 116.72 90.2831 113.343 92.0782 109.08C93.2517 106.291 96.5134 104.421 100.171 104.421H163.714C167.371 104.421 170.633 106.291 171.806 109.08C173.601 113.346 177.792 116.72 183.087 118.165C186.547 119.111 188.872 121.738 188.872 124.683Z" fill="#D7D7D7"/>
</g>
<mask id="mask0_534_7914" style="mask-type:alpha" maskUnits="userSpaceOnUse" x="70" y="100" width="114" height="73">
<path d="M183.872 120.683V152.315C183.872 155.26 181.547 157.887 178.087 158.833C172.792 160.278 168.601 163.655 166.806 167.92C165.633 170.709 162.371 172.579 158.714 172.579H95.1714C91.5134 172.579 88.2517 170.709 87.0782 167.92C85.2831 163.653 81.0925 160.278 75.7971 158.833C72.3342 157.887 70.0125 155.26 70.0125 152.315V120.683C70.0125 117.738 72.3373 115.111 75.7981 114.165C81.0935 112.72 85.2831 109.343 87.0782 105.08C88.2517 102.291 91.5134 100.421 95.1714 100.421H158.714C162.371 100.421 165.633 102.291 166.806 105.08C168.601 109.346 172.792 112.72 178.087 114.165C181.547 115.111 183.872 117.738 183.872 120.683Z" fill="#D7D7D7"/>
</mask>
<g mask="url(#mask0_534_7914)">
<rect x="67.3876" y="75.4212" width="119.625" height="102.419" fill="#2F2F2F"/>
<path d="M186.454 152.625L66.8288 152.625" stroke="#444444" stroke-width="0.93858"/>
<path d="M157.945 75.4212L157.945 177.84" stroke="#444444" stroke-width="0.93858"/>
<path d="M186.454 126.631L66.8288 126.631" stroke="#444444" stroke-width="0.93858"/>
<path d="M127.759 75.4212L127.759 177.84" stroke="#444444" stroke-width="0.93858"/>
<path d="M186.454 100.896L66.8288 100.896" stroke="#444444" stroke-width="0.93858"/>
<path d="M97.5737 75.4212L97.5737 177.84" stroke="#444444" stroke-width="0.93858"/>
</g>
<path d="M89.6489 135.552L89.6489 133.785L98.933 133.785L98.933 135.552L95.3364 135.552L95.3364 145.421L93.2455 145.421L93.2455 135.552L89.6489 135.552ZM103.23 145.592C102.355 145.592 101.599 145.41 100.963 145.046C100.33 144.679 99.8435 144.16 99.5026 143.489C99.1617 142.815 98.9912 142.022 98.9912 141.109C98.9912 140.211 99.1617 139.423 99.5026 138.745C99.8473 138.063 100.328 137.533 100.946 137.154C101.563 136.772 102.289 136.58 103.122 136.58C103.66 136.58 104.167 136.667 104.645 136.842C105.126 137.012 105.55 137.277 105.917 137.637C106.289 137.997 106.58 138.455 106.792 139.012C107.004 139.565 107.111 140.224 107.111 140.989L107.111 141.62L99.9571 141.62L99.9571 140.234L105.139 140.234C105.135 139.84 105.05 139.489 104.883 139.183C104.717 138.872 104.484 138.628 104.184 138.45C103.889 138.272 103.544 138.183 103.15 138.183C102.73 138.183 102.361 138.285 102.042 138.489C101.724 138.69 101.476 138.955 101.298 139.285C101.124 139.611 101.035 139.969 101.031 140.359L101.031 141.569C101.031 142.077 101.124 142.512 101.309 142.876C101.495 143.236 101.754 143.512 102.088 143.705C102.421 143.895 102.811 143.989 103.258 143.989C103.557 143.989 103.828 143.948 104.071 143.864C104.313 143.777 104.523 143.65 104.701 143.484C104.879 143.317 105.014 143.111 105.105 142.864L107.025 143.08C106.904 143.588 106.673 144.031 106.332 144.41C105.995 144.785 105.563 145.077 105.037 145.285C104.51 145.489 103.908 145.592 103.23 145.592ZM110.907 140.308L110.907 145.421L108.851 145.421L108.851 136.694L110.816 136.694L110.816 138.177L110.919 138.177C111.12 137.688 111.44 137.3 111.879 137.012C112.322 136.724 112.87 136.58 113.521 136.58C114.123 136.58 114.648 136.709 115.095 136.967C115.546 137.224 115.894 137.597 116.14 138.086C116.39 138.575 116.513 139.167 116.51 139.864L116.51 145.421L114.453 145.421L114.453 140.183C114.453 139.599 114.301 139.143 113.998 138.813C113.699 138.484 113.284 138.319 112.754 138.319C112.394 138.319 112.074 138.398 111.794 138.558C111.517 138.713 111.299 138.938 111.14 139.234C110.985 139.529 110.907 139.887 110.907 140.308ZM125.498 139.001L123.623 139.205C123.57 139.016 123.477 138.838 123.345 138.671C123.216 138.505 123.042 138.37 122.822 138.268C122.602 138.166 122.334 138.114 122.015 138.114C121.587 138.114 121.227 138.207 120.936 138.393C120.648 138.578 120.506 138.819 120.51 139.114C120.506 139.368 120.599 139.575 120.788 139.734C120.981 139.893 121.299 140.023 121.743 140.126L123.231 140.444C124.057 140.622 124.671 140.904 125.072 141.291C125.477 141.677 125.682 142.183 125.686 142.808C125.682 143.357 125.521 143.842 125.203 144.262C124.888 144.679 124.451 145.005 123.89 145.239C123.33 145.474 122.686 145.592 121.959 145.592C120.89 145.592 120.031 145.368 119.379 144.921C118.727 144.47 118.339 143.844 118.214 143.041L120.22 142.847C120.311 143.241 120.504 143.539 120.799 143.739C121.095 143.94 121.479 144.041 121.953 144.041C122.441 144.041 122.834 143.94 123.129 143.739C123.428 143.539 123.578 143.291 123.578 142.995C123.578 142.745 123.481 142.539 123.288 142.376C123.099 142.213 122.803 142.088 122.402 142.001L120.913 141.688C120.076 141.514 119.457 141.22 119.055 140.808C118.654 140.391 118.455 139.864 118.459 139.228C118.455 138.69 118.601 138.224 118.896 137.83C119.195 137.433 119.61 137.126 120.14 136.91C120.674 136.69 121.29 136.58 121.987 136.58C123.01 136.58 123.815 136.798 124.402 137.234C124.993 137.669 125.358 138.258 125.498 139.001ZM131.189 145.592C130.336 145.592 129.598 145.404 128.973 145.029C128.348 144.654 127.863 144.13 127.518 143.455C127.177 142.781 127.007 141.993 127.007 141.092C127.007 140.19 127.177 139.4 127.518 138.722C127.863 138.044 128.348 137.518 128.973 137.143C129.598 136.768 130.336 136.58 131.189 136.58C132.041 136.58 132.78 136.768 133.405 137.143C134.03 137.518 134.513 138.044 134.853 138.722C135.198 139.4 135.37 140.19 135.37 141.092C135.37 141.993 135.198 142.781 134.853 143.455C134.513 144.13 134.03 144.654 133.405 145.029C132.78 145.404 132.041 145.592 131.189 145.592ZM131.2 143.944C131.662 143.944 132.048 143.817 132.359 143.563C132.67 143.306 132.901 142.961 133.052 142.529C133.208 142.097 133.285 141.616 133.285 141.086C133.285 140.552 133.208 140.069 133.052 139.637C132.901 139.202 132.67 138.855 132.359 138.597C132.048 138.34 131.662 138.211 131.2 138.211C130.727 138.211 130.333 138.34 130.018 138.597C129.708 138.855 129.475 139.202 129.319 139.637C129.168 140.069 129.092 140.552 129.092 141.086C129.092 141.616 129.168 142.097 129.319 142.529C129.475 142.961 129.708 143.306 130.018 143.563C130.333 143.817 130.727 143.944 131.2 143.944ZM137.116 145.421L137.116 136.694L139.111 136.694L139.111 138.148L139.201 138.148C139.361 137.645 139.633 137.256 140.02 136.984C140.41 136.707 140.855 136.569 141.355 136.569C141.468 136.569 141.595 136.575 141.736 136.586C141.879 136.594 141.999 136.607 142.093 136.626L142.093 138.518C142.006 138.487 141.868 138.461 141.679 138.438C141.493 138.412 141.313 138.398 141.139 138.398C140.764 138.398 140.427 138.48 140.128 138.643C139.832 138.802 139.599 139.023 139.429 139.308C139.258 139.592 139.173 139.919 139.173 140.291L139.173 145.421L137.116 145.421ZM143.551 145.421L143.551 133.785L147.915 133.785C148.808 133.785 149.558 133.94 150.165 134.251C150.774 134.561 151.235 134.997 151.545 135.558C151.86 136.114 152.017 136.764 152.017 137.506C152.017 138.253 151.858 138.9 151.54 139.45C151.225 139.995 150.761 140.417 150.147 140.717C149.534 141.012 148.78 141.16 147.886 141.16L144.778 141.16L144.778 139.41L147.602 139.41C148.125 139.41 148.553 139.338 148.886 139.194C149.219 139.046 149.466 138.832 149.625 138.552C149.788 138.268 149.869 137.919 149.869 137.506C149.869 137.094 149.788 136.741 149.625 136.45C149.462 136.154 149.214 135.931 148.88 135.779C148.547 135.624 148.117 135.546 147.591 135.546L145.659 135.546L145.659 145.421L143.551 145.421ZM149.562 140.148L152.443 145.421L150.091 145.421L147.261 140.148L149.562 140.148ZM153.446 135.552L153.446 133.785L162.73 133.785L162.73 135.552L159.133 135.552L159.133 145.421L157.042 145.421L157.042 135.552L153.446 135.552Z" fill="white"/>
<path d="M62.0019 18.4212H31.39C28.5689 18.4212 25.7975 19.1647 23.3543 20.577C20.9112 21.9893 18.8824 24.0207 17.4719 26.4669L2.16557 53.0102C0.755064 55.4564 0.0125122 58.2313 0.0125122 61.0559C0.0125122 63.8805 0.755064 66.6554 2.16557 69.1016L17.4719 95.6449C18.8824 98.0911 20.9112 100.122 23.3543 101.535C25.7975 102.947 28.5689 103.691 31.39 103.691H62.0019C64.8231 103.691 67.5945 102.947 70.0377 101.535C72.4808 100.123 74.5096 98.0912 75.9201 95.6449L91.2284 69.1016C92.6389 66.6554 93.3814 63.8805 93.3814 61.0559C93.3814 58.2313 92.6389 55.4564 91.2284 53.0102L75.9221 26.4669C74.5114 24.0203 72.4823 21.9888 70.0388 20.5764C67.5953 19.1641 64.8234 18.4208 62.0019 18.4212Z" fill="#CDCDCD"/>
<mask id="mask1_534_7914" style="mask-type:alpha" maskUnits="userSpaceOnUse" x="6" y="17" width="95" height="86">
<path d="M68.8182 17.4212H38.2063C35.3852 17.4212 32.6137 18.1647 30.1706 19.577C27.7274 20.9893 25.6986 23.0207 24.2881 25.4669L8.98185 52.0102C7.57135 54.4564 6.8288 57.2313 6.8288 60.0559C6.8288 62.8805 7.57135 65.6554 8.98185 68.1016L24.2881 94.6449C25.6986 97.0911 27.7274 99.1225 30.1706 100.535C32.6137 101.947 35.3852 102.691 38.2063 102.691H68.8182C71.6394 102.691 74.4108 101.947 76.854 100.535C79.2971 99.1226 81.3259 97.0912 82.7364 94.6449L98.0446 68.1016C99.4551 65.6554 100.198 62.8805 100.198 60.0559C100.198 57.2313 99.4551 54.4564 98.0446 52.0102L82.7383 25.4669C81.3277 23.0203 79.2986 20.9888 76.8551 19.5764C74.4115 18.1641 71.6397 17.4208 68.8182 17.4212Z" fill="#2F2F2F"/>
</mask>
<g mask="url(#mask1_534_7914)">
<path d="M10.7576 17.973C6.62478 17.973 3.27445 21.3233 3.27445 25.4562L3.27444 183.861C3.27444 187.994 6.62478 191.344 10.7576 191.344L91.4507 191.344C95.5835 191.344 98.9338 187.994 98.9338 183.861L98.9338 25.4562C98.9338 21.3233 95.5835 17.973 91.4507 17.973L10.7576 17.973Z" fill="#454545" stroke="black" stroke-width="1.10346"/>
<path d="M-0.486755 -10.1667H116.429V191.797H-0.486755V-10.1667Z" fill="#7B7B7B"/>
<mask id="mask2_534_7914" style="mask-type:alpha" maskUnits="userSpaceOnUse" x="29" y="63" width="138" height="88">
<path fill-rule="evenodd" clip-rule="evenodd" d="M136.514 67.0262C131.347 61.1598 123.43 65.544 116.378 76.8455C115.599 72.6149 114.25 69.2165 112.319 67.0244C107.153 61.159 99.2383 65.5406 92.1869 76.8376C91.4077 72.6103 90.0593 69.2144 88.1295 67.0235C82.9631 61.1582 75.0486 65.5396 67.9972 76.8363C67.2181 72.6096 65.8697 69.2142 63.9401 67.0235C56.8175 58.9374 44.4718 70.3265 36.3653 92.4619C28.2588 114.597 27.4612 139.097 34.5838 147.183C39.7502 153.048 47.6647 148.667 54.7161 137.37C55.4952 141.597 56.8436 144.992 58.7732 147.183C63.9397 153.048 71.8543 148.666 78.9057 137.369C79.6848 141.597 81.0332 144.993 82.9631 147.184C88.1305 153.05 96.047 148.666 103.099 137.364C103.878 141.595 105.227 144.993 107.158 147.185C112.325 153.052 120.242 148.668 127.294 137.367C128.073 141.595 129.422 144.991 131.352 147.183C138.474 155.269 150.82 143.88 158.926 121.744C167.033 99.609 167.831 75.1096 160.708 67.0235C155.541 61.1572 147.624 65.5411 140.572 76.8421C139.793 72.614 138.444 69.2175 136.514 67.0262Z" fill="#FF8577"/>
<path d="M116.378 76.8455L115.835 76.9454C115.877 77.1693 116.051 77.345 116.275 77.3875C116.499 77.43 116.726 77.3308 116.846 77.1376L116.378 76.8455ZM136.514 67.0262L136.928 66.6615L136.514 67.0262ZM112.319 67.0244L111.905 67.389L111.905 67.389L112.319 67.0244ZM92.1869 76.8376L91.6443 76.9376C91.6855 77.1615 91.8601 77.3371 92.0838 77.3796C92.3075 77.4221 92.5343 77.3229 92.6549 77.1297L92.1869 76.8376ZM88.1295 67.0235L88.5435 66.6588L88.1295 67.0235ZM67.9972 76.8363L67.4547 76.9363C67.4959 77.1602 67.6705 77.3358 67.8942 77.3783C68.1179 77.4209 68.3447 77.3216 68.4653 77.1284L67.9972 76.8363ZM63.9401 67.0235L63.5261 67.3882L63.9401 67.0235ZM36.3653 92.4619L35.8472 92.2721L36.3653 92.4619ZM34.5838 147.183L34.1698 147.547L34.1698 147.547L34.5838 147.183ZM54.7161 137.37L55.2586 137.27C55.2174 137.046 55.0428 136.87 54.8191 136.828C54.5954 136.785 54.3686 136.885 54.248 137.078L54.7161 137.37ZM58.7732 147.183L58.3592 147.547L58.7732 147.183ZM78.9057 137.369L79.4483 137.269C79.407 137.046 79.2324 136.87 79.0087 136.827C78.7851 136.785 78.5582 136.884 78.4377 137.077L78.9057 137.369ZM82.9631 147.184L83.3771 146.819L83.3771 146.819L82.9631 147.184ZM103.099 137.364L103.642 137.264C103.601 137.04 103.426 136.865 103.202 136.822C102.979 136.78 102.752 136.879 102.631 137.072L103.099 137.364ZM107.158 147.185L106.744 147.55L107.158 147.185ZM127.294 137.367L127.837 137.267C127.795 137.043 127.621 136.867 127.397 136.825C127.173 136.782 126.946 136.881 126.826 137.075L127.294 137.367ZM131.352 147.183L130.938 147.547L131.352 147.183ZM158.926 121.744L158.408 121.555L158.926 121.744ZM160.708 67.0235L160.294 67.3882L160.708 67.0235ZM140.572 76.8421L140.029 76.9421C140.071 77.1661 140.245 77.3416 140.469 77.3842C140.693 77.4267 140.92 77.3274 141.04 77.1342L140.572 76.8421ZM116.846 77.1376C120.351 71.5214 124.027 67.699 127.402 65.9901C129.082 65.1398 130.66 64.8258 132.098 65.0419C133.529 65.2571 134.881 66.0062 136.1 67.3909L136.928 66.6615C135.564 65.113 133.989 64.2103 132.262 63.9507C130.542 63.6921 128.731 64.0806 126.904 65.0056C123.266 66.8476 119.458 70.8681 115.91 76.5534L116.846 77.1376ZM111.905 67.389C113.742 69.4739 115.065 72.7597 115.835 76.9454L116.921 76.7456C116.133 72.4701 114.759 68.9591 112.733 66.6597L111.905 67.389ZM92.6549 77.1297C96.1591 71.5158 99.8347 67.6952 103.209 65.9873C104.888 65.1375 106.466 64.8239 107.904 65.0402C109.335 65.2555 110.686 66.0046 111.905 67.389L112.733 66.6597C111.37 65.1115 109.794 64.2087 108.068 63.949C106.348 63.6902 104.538 64.0783 102.711 65.0028C99.0735 66.8437 95.2661 70.8624 91.7188 76.5454L92.6549 77.1297ZM87.7155 67.3882C89.5508 69.4718 90.8734 72.7552 91.6443 76.9376L92.7295 76.7376C91.9421 72.4654 90.5678 68.957 88.5435 66.6588L87.7155 67.3882ZM68.4653 77.1284C71.9694 71.5146 75.645 67.6942 79.0194 65.9864C80.6985 65.1366 82.2762 64.823 83.7137 65.0393C85.1447 65.2546 86.496 66.0037 87.7155 67.3882L88.5435 66.6588C87.1798 65.1106 85.6043 64.2079 83.8779 63.9481C82.1581 63.6894 80.3478 64.0774 78.5211 65.0019C74.8838 66.8427 71.0765 70.8612 67.5292 76.5442L68.4653 77.1284ZM63.5261 67.3882C65.3613 69.4716 66.6838 72.7545 67.4547 76.9363L68.5398 76.7363C67.7524 72.4647 66.3782 68.9567 64.3541 66.6588L63.5261 67.3882ZM36.8834 92.6516C40.9216 81.6251 45.9961 73.3352 50.8958 68.8152C53.3472 66.5537 55.7079 65.2789 57.8329 65.0219C59.9214 64.7692 61.854 65.4899 63.5261 67.3882L64.3541 66.6588C62.4649 64.514 60.1833 63.6261 57.7004 63.9264C55.2541 64.2223 52.6862 65.6622 50.1476 68.0041C45.0671 72.6909 39.9156 81.1633 35.8472 92.2721L36.8834 92.6516ZM34.9978 146.818C33.3054 144.897 32.0475 141.953 31.2571 138.22C30.4685 134.495 30.1549 130.029 30.3151 125.109C30.6355 115.268 32.849 103.668 36.8834 92.6516L35.8472 92.2721C31.7751 103.391 29.5366 115.108 29.2122 125.073C29.05 130.055 29.3658 134.614 30.1776 138.448C30.9875 142.274 32.301 145.426 34.1698 147.547L34.9978 146.818ZM54.248 137.078C50.7439 142.692 47.0683 146.512 43.6939 148.22C42.0148 149.07 40.4371 149.383 38.9996 149.167C37.5686 148.952 36.2173 148.202 34.9978 146.818L34.1698 147.547C35.5335 149.096 37.109 149.998 38.8354 150.258C40.5552 150.517 42.3655 150.129 44.1922 149.204C47.8295 147.364 51.6368 143.345 55.1841 137.662L54.248 137.078ZM59.1872 146.818C57.352 144.735 56.0295 141.452 55.2586 137.27L54.1735 137.47C54.9609 141.742 56.3351 145.249 58.3592 147.547L59.1872 146.818ZM78.4377 137.077C74.9335 142.691 71.2579 146.512 67.8835 148.22C66.2043 149.07 64.6266 149.383 63.189 149.167C61.758 148.952 60.4068 148.202 59.1872 146.818L58.3592 147.547C59.7229 149.096 61.2984 149.998 63.0248 150.258C64.7447 150.517 66.555 150.129 68.3817 149.204C72.0191 147.363 75.8264 143.345 79.3737 137.662L78.4377 137.077ZM83.3771 146.819C81.5417 144.735 80.2191 141.452 79.4483 137.269L78.3631 137.469C79.1505 141.742 80.5248 145.25 82.5491 147.548L83.3771 146.819ZM102.631 137.072C99.1266 142.688 95.4503 146.511 92.0751 148.22C90.3956 149.07 88.8175 149.384 87.3797 149.168C85.9484 148.953 84.5968 148.204 83.3771 146.819L82.5491 147.548C83.913 149.097 85.4889 149.999 87.2156 150.259C88.9358 150.518 90.7465 150.129 92.5736 149.204C96.2116 147.362 100.02 143.342 103.567 137.656L102.631 137.072ZM107.572 146.821C105.736 144.736 104.413 141.45 103.642 137.264L102.557 137.464C103.344 141.74 104.719 145.251 106.744 147.55L107.572 146.821ZM126.826 137.075C123.321 142.691 119.645 146.513 116.27 148.222C114.59 149.072 113.012 149.386 111.575 149.17C110.143 148.955 108.792 148.205 107.572 146.821L106.744 147.55C108.108 149.099 109.684 150.001 111.41 150.261C113.131 150.519 114.941 150.131 116.768 149.206C120.406 147.364 124.214 143.344 127.762 137.659L126.826 137.075ZM131.766 146.818C129.93 144.734 128.607 141.45 127.837 137.267L126.751 137.467C127.539 141.74 128.913 145.249 130.938 147.547L131.766 146.818ZM158.408 121.555C154.37 132.581 149.296 140.871 144.396 145.391C141.945 147.653 139.584 148.927 137.459 149.184C135.37 149.437 133.438 148.716 131.766 146.818L130.938 147.547C132.827 149.692 135.108 150.58 137.591 150.28C140.038 149.984 142.606 148.544 145.144 146.202C150.225 141.515 155.376 133.043 159.444 121.934L158.408 121.555ZM160.294 67.3882C161.986 69.3096 163.244 72.2529 164.035 75.9864C164.823 79.7115 165.137 84.1774 164.977 89.0975C164.656 98.9377 162.443 110.538 158.408 121.555L159.444 121.934C163.517 110.815 165.755 99.0982 166.08 89.1334C166.242 84.151 165.926 79.5924 165.114 75.7579C164.304 71.9319 162.991 68.7804 161.122 66.6588L160.294 67.3882ZM141.04 77.1342C144.545 71.5183 148.221 67.6961 151.596 65.9873C153.276 65.137 154.854 64.823 156.291 65.0392C157.723 65.2544 159.074 66.0035 160.294 67.3882L161.122 66.6588C159.758 65.1104 158.182 64.2076 156.455 63.948C154.735 63.6894 152.925 64.0778 151.098 65.0028C147.46 66.8447 143.652 70.865 140.104 76.55L141.04 77.1342ZM136.1 67.3909C137.936 69.4749 139.259 72.7588 140.029 76.9421L141.115 76.7422C140.327 72.4691 138.953 68.96 136.928 66.6615L136.1 67.3909Z" fill="black"/>
</mask>
<g mask="url(#mask2_534_7914)">
<rect x="-14.4315" y="16.1485" width="120.4" height="136.689" fill="#CDCDCD"/>
<path d="M90.215 16.1485V152.838" stroke="black" stroke-width="1.10346"/>
<path d="M72.774 16.1485V152.838" stroke="black" stroke-width="1.10346"/>
<path d="M55.333 16.1485V152.838" stroke="black" stroke-width="1.10346"/>
<path d="M105.406 94.3942L-14.9944 94.3942" stroke="black" stroke-width="1.10346"/>
<path d="M37.8911 16.1485V152.838" stroke="black" stroke-width="1.10346"/>
<path d="M105.406 74.5933L-14.9944 74.5933" stroke="black" stroke-width="1.10346"/>
</g>
<path d="M39.9557 40.5007C39.861 40.1939 39.7303 39.9193 39.5636 39.6769C39.4008 39.4307 39.2038 39.2204 38.9727 39.0462C38.7455 38.872 38.4841 38.7413 38.1886 38.6542C37.8932 38.5632 37.5712 38.5178 37.2227 38.5178C36.5977 38.5178 36.0409 38.675 35.5523 38.9894C35.0636 39.3038 34.6792 39.7659 34.3989 40.3757C34.1224 40.9818 33.9841 41.7204 33.9841 42.5917C33.9841 43.4704 34.1224 44.2148 34.3989 44.8246C34.6754 45.4345 35.0599 45.8985 35.5523 46.2167C36.0447 46.5311 36.6167 46.6882 37.2682 46.6882C37.8591 46.6882 38.3705 46.5746 38.8023 46.3473C39.2379 46.1201 39.5731 45.7981 39.808 45.3814C40.0428 44.961 40.1602 44.4686 40.1602 43.9042L40.6375 43.978H37.4784V42.3303H42.2V43.728C42.2 44.7242 41.9879 45.586 41.5636 46.3132C41.1394 47.0405 40.5561 47.6011 39.8136 47.9951C39.0712 48.3852 38.219 48.5803 37.2568 48.5803C36.1849 48.5803 35.2436 48.3398 34.433 47.8587C33.6261 47.3739 32.9955 46.6864 32.5409 45.7962C32.0902 44.9023 31.8648 43.8417 31.8648 42.6144C31.8648 41.675 31.9974 40.836 32.2625 40.0973C32.5315 39.3587 32.9065 38.7318 33.3875 38.2167C33.8686 37.6977 34.433 37.3038 35.0807 37.0348C35.7284 36.7621 36.433 36.6257 37.1943 36.6257C37.8383 36.6257 38.4386 36.7204 38.9955 36.9098C39.5523 37.0954 40.0466 37.3606 40.4784 37.7053C40.914 38.05 41.272 38.4591 41.5523 38.9326C41.8326 39.4061 42.0163 39.9288 42.1034 40.5007H39.9557ZM52.0338 40.5007C51.9391 40.1939 51.8084 39.9193 51.6418 39.6769C51.4789 39.4307 51.2819 39.2204 51.0509 39.0462C50.8236 38.872 50.5622 38.7413 50.2668 38.6542C49.9713 38.5632 49.6493 38.5178 49.3009 38.5178C48.6759 38.5178 48.119 38.675 47.6304 38.9894C47.1418 39.3038 46.7573 39.7659 46.477 40.3757C46.2005 40.9818 46.0622 41.7204 46.0622 42.5917C46.0622 43.4704 46.2005 44.2148 46.477 44.8246C46.7535 45.4345 47.138 45.8985 47.6304 46.2167C48.1228 46.5311 48.6948 46.6882 49.3463 46.6882C49.9372 46.6882 50.4486 46.5746 50.8804 46.3473C51.316 46.1201 51.6512 45.7981 51.8861 45.3814C52.1209 44.961 52.2384 44.4686 52.2384 43.9042L52.7156 43.978H49.5565V42.3303H54.2781V43.728C54.2781 44.7242 54.066 45.586 53.6418 46.3132C53.2175 47.0405 52.6342 47.6011 51.8918 47.9951C51.1493 48.3852 50.2971 48.5803 49.335 48.5803C48.263 48.5803 47.3217 48.3398 46.5111 47.8587C45.7043 47.3739 45.0736 46.6864 44.619 45.7962C44.1683 44.9023 43.9429 43.8417 43.9429 42.6144C43.9429 41.675 44.0755 40.836 44.3406 40.0973C44.6096 39.3587 44.9846 38.7318 45.4656 38.2167C45.9467 37.6977 46.5111 37.3038 47.1588 37.0348C47.8065 36.7621 48.5111 36.6257 49.2725 36.6257C49.9164 36.6257 50.5168 36.7204 51.0736 36.9098C51.6304 37.0954 52.1247 37.3606 52.5565 37.7053C52.9922 38.05 53.3501 38.4591 53.6304 38.9326C53.9107 39.4061 54.0944 39.9288 54.1815 40.5007H52.0338ZM63.6517 36.7848H65.7597V44.3871C65.7597 45.2204 65.5627 45.9534 65.1688 46.586C64.7786 47.2186 64.2294 47.7129 63.521 48.0689C62.8127 48.4212 61.9851 48.5973 61.0381 48.5973C60.0873 48.5973 59.2578 48.4212 58.5494 48.0689C57.8411 47.7129 57.2919 47.2186 56.9017 46.586C56.5116 45.9534 56.3165 45.2204 56.3165 44.3871V36.7848H58.4244V44.211C58.4244 44.6958 58.5305 45.1276 58.7426 45.5064C58.9585 45.8852 59.2616 46.1826 59.6517 46.3985C60.0419 46.6106 60.504 46.7167 61.0381 46.7167C61.5722 46.7167 62.0343 46.6106 62.4244 46.3985C62.8184 46.1826 63.1214 45.8852 63.3335 45.5064C63.5457 45.1276 63.6517 44.6958 63.6517 44.211V36.7848ZM68.0509 48.4212V36.7848H75.5054V38.5519H70.1588V41.711H74.994V43.478H70.1588V48.4212H68.0509Z" fill="white"/>
</g>
<defs>
<filter id="filter0_d_534_7914" x="117.013" y="0.421204" width="90.4875" height="88.279" filterUnits="userSpaceOnUse" color-interpolation-filters="sRGB">
<feFlood flood-opacity="0" result="BackgroundImageFix"/>
<feColorMatrix in="SourceAlpha" type="matrix" values="0 0 0 0 0 0 0 0 0 0 0 0 0 0 0 0 0 0 127 0" result="hardAlpha"/>
<feOffset dx="5" dy="5"/>
<feComposite in2="hardAlpha" operator="out"/>
<feColorMatrix type="matrix" values="0 0 0 0 0.0980392 0 0 0 0 0.101961 0 0 0 0 0.137255 0 0 0 1 0"/>
<feBlend mode="normal" in2="BackgroundImageFix" result="effect1_dropShadow_534_7914"/>
<feBlend mode="normal" in="SourceGraphic" in2="effect1_dropShadow_534_7914" result="shape"/>
</filter>
<filter id="filter1_d_534_7914" x="75.0125" y="104.421" width="116.352" height="77.2558" filterUnits="userSpaceOnUse" color-interpolation-filters="sRGB">
<feFlood flood-opacity="0" result="BackgroundImageFix"/>
<feColorMatrix in="SourceAlpha" type="matrix" values="0 0 0 0 0 0 0 0 0 0 0 0 0 0 0 0 0 0 127 0" result="hardAlpha"/>
<feOffset dx="2.49246" dy="5.09822"/>
<feComposite in2="hardAlpha" operator="out"/>
<feColorMatrix type="matrix" values="0 0 0 0 0.803922 0 0 0 0 0.803922 0 0 0 0 0.803922 0 0 0 1 0"/>
<feBlend mode="normal" in2="BackgroundImageFix" result="effect1_dropShadow_534_7914"/>
<feBlend mode="normal" in="SourceGraphic" in2="effect1_dropShadow_534_7914" result="shape"/>
</filter>
</defs>
</svg>
