<svg width="251" height="193" viewBox="0 0 251 193" fill="none" xmlns="http://www.w3.org/2000/svg">
<path d="M250.5 98.5532H97.497V12.3192H250.5V98.5532Z" fill="#2F2F2F"/>
<path d="M178.497 104.713H250.497V98.5532H178.497V104.713Z" fill="#787878"/>
<path d="M142.497 104.713H166.497V98.5532H142.497V104.713Z" fill="#787878"/>
<path d="M112.497 104.713H136.497V98.5532H112.497V104.713Z" fill="#787878"/>
<path d="M118.497 104.713H115.497V101.633H118.497V104.713Z" fill="#3D3D3D"/>
<path d="M124.497 104.713H121.497V101.633H124.497V104.713Z" fill="#3D3D3D"/>
<path d="M130.497 104.713H127.497V101.633H130.497V104.713Z" fill="#3D3D3D"/>
<path d="M136.497 104.713H133.497V101.633H136.497V104.713Z" fill="#3D3D3D"/>
<path d="M148.497 104.713H145.497V101.633H148.497V104.713Z" fill="#3D3D3D"/>
<path d="M154.497 104.713H151.497V101.633H154.497V104.713Z" fill="#3D3D3D"/>
<path d="M160.497 104.713H157.497V101.633H160.497V104.713Z" fill="#3D3D3D"/>
<path d="M166.497 104.713H163.497V101.633H166.497V104.713Z" fill="#3D3D3D"/>
<path d="M184.497 104.713H181.497V101.633H184.497V104.713Z" fill="#3D3D3D"/>
<path d="M190.497 104.713H187.497V101.633H190.497V104.713Z" fill="#3D3D3D"/>
<path d="M196.497 104.713H193.497V101.633H196.497V104.713Z" fill="#3D3D3D"/>
<path d="M202.497 104.713H199.497V101.633H202.497V104.713Z" fill="#3D3D3D"/>
<path d="M208.497 104.713H205.497V101.633H208.497V104.713Z" fill="#3D3D3D"/>
<path d="M214.497 104.713H211.497V101.633H214.497V104.713Z" fill="#3D3D3D"/>
<path d="M220.497 104.713H217.497V101.633H220.497V104.713Z" fill="#3D3D3D"/>
<path d="M226.497 104.713H223.497V101.633H226.497V104.713Z" fill="#3D3D3D"/>
<path d="M232.497 104.713H229.497V101.633H232.497V104.713Z" fill="#3D3D3D"/>
<path d="M238.497 104.713H235.497V101.633H238.497V104.713Z" fill="#3D3D3D"/>
<path d="M244.497 104.713H241.497V101.633H244.497V104.713Z" fill="#3D3D3D"/>
<path d="M250.497 104.713H247.497V101.633H250.497V104.713Z" fill="#3D3D3D"/>
<path d="M112.497 30.7979H106.497V21.5585H112.497V30.7979Z" fill="#F9F8F7"/>
<path d="M111.497 23.6117H107.497V22.5851H111.497V23.6117Z" fill="#E9E5D9"/>
<path d="M111.497 25.6649H107.497V24.6383H111.497V25.6649Z" fill="#E9E5D9"/>
<path d="M111.497 29.7713H107.497V28.7447H111.497V29.7713Z" fill="#E9E5D9"/>
<path d="M111.497 27.7181H107.497V26.6915H111.497V27.7181Z" fill="#E9E5D9"/>
<path d="M124.497 30.7979H118.497V21.5585H124.497V30.7979Z" fill="#F9F8F7"/>
<path d="M123.497 23.6117H119.497V22.5851H123.497V23.6117Z" fill="#E9E5D9"/>
<path d="M123.497 25.6649H119.497V24.6383H123.497V25.6649Z" fill="#E9E5D9"/>
<path d="M123.497 29.7713H119.497V28.7447H123.497V29.7713Z" fill="#E9E5D9"/>
<path d="M123.497 27.7181H119.497V26.6915H123.497V27.7181Z" fill="#E9E5D9"/>
<path d="M136.497 30.7979H130.497V21.5585H136.497V30.7979Z" fill="#F9F8F7"/>
<path d="M135.497 23.6117H131.497V22.5851H135.497V23.6117Z" fill="#E9E5D9"/>
<path d="M135.497 25.6649H131.497V24.6383H135.497V25.6649Z" fill="#E9E5D9"/>
<path d="M135.497 29.7713H131.497V28.7447H135.497V29.7713Z" fill="#E9E5D9"/>
<path d="M135.497 27.7181H131.497V26.6915H135.497V27.7181Z" fill="#E9E5D9"/>
<path d="M148.497 51.3298H106.497V39.0106H148.497V51.3298Z" fill="#616161"/>
<path d="M146.497 49.2766H108.497V41.0638H146.497V49.2766Z" fill="#9F9F9F"/>
<path d="M107.747 39.0106H107.247V36.9575H107.747V39.0106Z" fill="#F9F8F7"/>
<path d="M108.747 39.0106H108.247V36.9575H108.747V39.0106Z" fill="#F9F8F7"/>
<path d="M109.747 39.0106H109.247V36.9575H109.747V39.0106Z" fill="#F9F8F7"/>
<path d="M110.747 39.0106H110.247V36.9575H110.747V39.0106Z" fill="#F9F8F7"/>
<path d="M111.747 39.0106H111.247V36.9575H111.747V39.0106Z" fill="#F9F8F7"/>
<path d="M112.747 39.0106H112.247V36.9575H112.747V39.0106Z" fill="#F9F8F7"/>
<path d="M113.747 39.0106H113.247V36.9575H113.747V39.0106Z" fill="#F9F8F7"/>
<path d="M114.747 39.0106H114.247V36.9575H114.747V39.0106Z" fill="#F9F8F7"/>
<path d="M115.747 39.0106H115.247V36.9575H115.747V39.0106Z" fill="#F9F8F7"/>
<path d="M116.747 39.0106H116.247V36.9575H116.747V39.0106Z" fill="#F9F8F7"/>
<path d="M117.747 39.0106H117.247V36.9575H117.747V39.0106Z" fill="#F9F8F7"/>
<path d="M118.747 39.0106H118.247V36.9575H118.747V39.0106Z" fill="#F9F8F7"/>
<path d="M119.747 39.0106H119.247V36.9575H119.747V39.0106Z" fill="#F9F8F7"/>
<path d="M120.747 39.0106H120.247V36.9575H120.747V39.0106Z" fill="#F9F8F7"/>
<path d="M121.747 39.0106H121.247V36.9575H121.747V39.0106Z" fill="#F9F8F7"/>
<path d="M122.747 39.0106H122.247V36.9575H122.747V39.0106Z" fill="#F9F8F7"/>
<path d="M123.747 39.0106H123.247V36.9575H123.747V39.0106Z" fill="#F9F8F7"/>
<path d="M124.747 39.0106H124.247V36.9575H124.747V39.0106Z" fill="#F9F8F7"/>
<path d="M125.747 39.0106H125.247V36.9575H125.747V39.0106Z" fill="#F9F8F7"/>
<path d="M126.747 39.0106H126.247V36.9575H126.747V39.0106Z" fill="#F9F8F7"/>
<path d="M127.747 39.0106H127.247V36.9575H127.747V39.0106Z" fill="#F9F8F7"/>
<path d="M128.747 39.0106H128.247V36.9575H128.747V39.0106Z" fill="#F9F8F7"/>
<path d="M129.747 39.0106H129.247V36.9575H129.747V39.0106Z" fill="#F9F8F7"/>
<path d="M130.747 39.0106H130.247V36.9575H130.747V39.0106Z" fill="#F9F8F7"/>
<path d="M131.747 39.0106H131.247V36.9575H131.747V39.0106Z" fill="#F9F8F7"/>
<path d="M132.747 39.0106H132.247V36.9575H132.747V39.0106Z" fill="#F9F8F7"/>
<path d="M133.747 39.0106H133.247V36.9575H133.747V39.0106Z" fill="#F9F8F7"/>
<path d="M134.747 39.0106H134.247V36.9575H134.747V39.0106Z" fill="#F9F8F7"/>
<path d="M135.747 39.0106H135.247V36.9575H135.747V39.0106Z" fill="#F9F8F7"/>
<path d="M136.747 39.0106H136.247V36.9575H136.747V39.0106Z" fill="#F9F8F7"/>
<path d="M137.747 39.0106H137.247V36.9575H137.747V39.0106Z" fill="#F9F8F7"/>
<path d="M138.747 39.0106H138.247V36.9575H138.747V39.0106Z" fill="#F9F8F7"/>
<path d="M139.747 39.0106H139.247V36.9575H139.747V39.0106Z" fill="#F9F8F7"/>
<path d="M140.747 39.0106H140.247V36.9575H140.747V39.0106Z" fill="#F9F8F7"/>
<path d="M141.747 39.0106H141.247V36.9575H141.747V39.0106Z" fill="#F9F8F7"/>
<path d="M142.747 39.0106H142.247V36.9575H142.747V39.0106Z" fill="#F9F8F7"/>
<path d="M143.747 39.0106H143.247V36.9575H143.747V39.0106Z" fill="#F9F8F7"/>
<path d="M144.747 39.0106H144.247V36.9575H144.747V39.0106Z" fill="#F9F8F7"/>
<path d="M145.747 39.0106H145.247V36.9575H145.747V39.0106Z" fill="#F9F8F7"/>
<path d="M146.747 39.0106H146.247V36.9575H146.747V39.0106Z" fill="#F9F8F7"/>
<path d="M147.747 39.0106H147.247V36.9575H147.747V39.0106Z" fill="#F9F8F7"/>
<path d="M107.747 53.383H107.247V51.3298H107.747V53.383Z" fill="#F9F8F7"/>
<path d="M108.747 53.383H108.247V51.3298H108.747V53.383Z" fill="#F9F8F7"/>
<path d="M109.747 53.383H109.247V51.3298H109.747V53.383Z" fill="#F9F8F7"/>
<path d="M110.747 53.383H110.247V51.3298H110.747V53.383Z" fill="#F9F8F7"/>
<path d="M111.747 53.383H111.247V51.3298H111.747V53.383Z" fill="#F9F8F7"/>
<path d="M112.747 53.383H112.247V51.3298H112.747V53.383Z" fill="#F9F8F7"/>
<path d="M113.747 53.383H113.247V51.3298H113.747V53.383Z" fill="#F9F8F7"/>
<path d="M114.747 53.383H114.247V51.3298H114.747V53.383Z" fill="#F9F8F7"/>
<path d="M115.747 53.383H115.247V51.3298H115.747V53.383Z" fill="#F9F8F7"/>
<path d="M116.747 53.383H116.247V51.3298H116.747V53.383Z" fill="#F9F8F7"/>
<path d="M117.747 53.383H117.247V51.3298H117.747V53.383Z" fill="#F9F8F7"/>
<path d="M118.747 53.383H118.247V51.3298H118.747V53.383Z" fill="#F9F8F7"/>
<path d="M119.747 53.383H119.247V51.3298H119.747V53.383Z" fill="#F9F8F7"/>
<path d="M120.747 53.383H120.247V51.3298H120.747V53.383Z" fill="#F9F8F7"/>
<path d="M121.747 53.383H121.247V51.3298H121.747V53.383Z" fill="#F9F8F7"/>
<path d="M122.747 53.383H122.247V51.3298H122.747V53.383Z" fill="#F9F8F7"/>
<path d="M123.747 53.383H123.247V51.3298H123.747V53.383Z" fill="#F9F8F7"/>
<path d="M124.747 53.383H124.247V51.3298H124.747V53.383Z" fill="#F9F8F7"/>
<path d="M125.747 53.383H125.247V51.3298H125.747V53.383Z" fill="#F9F8F7"/>
<path d="M126.747 53.383H126.247V51.3298H126.747V53.383Z" fill="#F9F8F7"/>
<path d="M127.747 53.383H127.247V51.3298H127.747V53.383Z" fill="#F9F8F7"/>
<path d="M128.747 53.383H128.247V51.3298H128.747V53.383Z" fill="#F9F8F7"/>
<path d="M129.747 53.383H129.247V51.3298H129.747V53.383Z" fill="#F9F8F7"/>
<path d="M130.747 53.383H130.247V51.3298H130.747V53.383Z" fill="#F9F8F7"/>
<path d="M131.747 53.383H131.247V51.3298H131.747V53.383Z" fill="#F9F8F7"/>
<path d="M132.747 53.383H132.247V51.3298H132.747V53.383Z" fill="#F9F8F7"/>
<path d="M133.747 53.383H133.247V51.3298H133.747V53.383Z" fill="#F9F8F7"/>
<path d="M134.747 53.383H134.247V51.3298H134.747V53.383Z" fill="#F9F8F7"/>
<path d="M135.747 53.383H135.247V51.3298H135.747V53.383Z" fill="#F9F8F7"/>
<path d="M136.747 53.383H136.247V51.3298H136.747V53.383Z" fill="#F9F8F7"/>
<path d="M137.747 53.383H137.247V51.3298H137.747V53.383Z" fill="#F9F8F7"/>
<path d="M138.747 53.383H138.247V51.3298H138.747V53.383Z" fill="#F9F8F7"/>
<path d="M139.747 53.383H139.247V51.3298H139.747V53.383Z" fill="#F9F8F7"/>
<path d="M140.747 53.383H140.247V51.3298H140.747V53.383Z" fill="#F9F8F7"/>
<path d="M141.747 53.383H141.247V51.3298H141.747V53.383Z" fill="#F9F8F7"/>
<path d="M142.747 53.383H142.247V51.3298H142.747V53.383Z" fill="#F9F8F7"/>
<path d="M143.747 53.383H143.247V51.3298H143.747V53.383Z" fill="#F9F8F7"/>
<path d="M144.747 53.383H144.247V51.3298H144.747V53.383Z" fill="#F9F8F7"/>
<path d="M145.747 53.383H145.247V51.3298H145.747V53.383Z" fill="#F9F8F7"/>
<path d="M146.747 53.383H146.247V51.3298H146.747V53.383Z" fill="#F9F8F7"/>
<path d="M147.747 53.383H147.247V51.3298H147.747V53.383Z" fill="#F9F8F7"/>
<path d="M118.497 87.2607H106.497V61.5958H118.497V87.2607Z" fill="#787878"/>
<path d="M116.497 64.6755H108.497V63.6489H116.497V64.6755Z" fill="#3D3D3D"/>
<path d="M116.497 66.7287H108.497V65.7021H116.497V66.7287Z" fill="#3D3D3D"/>
<path d="M116.497 68.7819H108.497V67.7553H116.497V68.7819Z" fill="#3D3D3D"/>
<path d="M116.497 70.8351H108.497V69.8085H116.497V70.8351Z" fill="#3D3D3D"/>
<path d="M116.497 72.8883H108.497V71.8617H116.497V72.8883Z" fill="#3D3D3D"/>
<path d="M116.497 74.9415H108.497V73.9149H116.497V74.9415Z" fill="#3D3D3D"/>
<path d="M116.497 76.9947H108.497V75.9681H116.497V76.9947Z" fill="#3D3D3D"/>
<path d="M116.497 79.0479H108.497V78.0213H116.497V79.0479Z" fill="#3D3D3D"/>
<path d="M116.497 81.1011H108.497V80.0745H116.497V81.1011Z" fill="#3D3D3D"/>
<path d="M116.497 83.1543H108.497V82.1277H116.497V83.1543Z" fill="#3D3D3D"/>
<path d="M116.497 85.2074H108.497V84.1808H116.497V85.2074Z" fill="#3D3D3D"/>
<path d="M97.497 104.713H94.497V6.15955H97.497V104.713Z" fill="#E9E5D9"/>
<path d="M97.497 6.15957H82.497V0H97.497V6.15957Z" fill="#E9E5D9"/>
<path d="M94.497 104.713H88.497V101.633H94.497V104.713Z" fill="#E9E5D9"/>
<path d="M238.497 55.4362C238.497 74.1469 223.723 89.3139 205.497 89.3139C187.272 89.3139 172.497 74.1469 172.497 55.4362C172.497 36.7255 187.272 21.5585 205.497 21.5585C223.723 21.5585 238.497 36.7255 238.497 55.4362Z" fill="#F9F8F7"/>
<path d="M235.497 55.4362C235.497 72.4448 222.066 86.234 205.497 86.234C188.929 86.234 175.497 72.4448 175.497 55.4362C175.497 38.4275 188.929 24.6383 205.497 24.6383C222.066 24.6383 235.497 38.4275 235.497 55.4362Z" fill="#616161"/>
<path d="M214.497 55.4361C214.497 60.5393 210.468 64.6755 205.497 64.6755C200.526 64.6755 196.497 60.5393 196.497 55.4361C196.497 50.3329 200.526 46.1968 205.497 46.1968C210.468 46.1968 214.497 50.3329 214.497 55.4361Z" fill="#3D3D3D"/>
<path d="M211.497 55.4362C211.497 58.8373 208.811 61.5958 205.497 61.5958C202.184 61.5958 199.497 58.8373 199.497 55.4362C199.497 52.0351 202.184 49.2766 205.497 49.2766C208.811 49.2766 211.497 52.0351 211.497 55.4362Z" fill="#787878"/>
<path d="M231.118 46.6906C232.018 49.4316 232.498 52.3779 232.498 55.4371C232.498 59.9028 231.478 64.1119 229.638 67.8384C223.358 68.8958 216.698 66.935 211.858 61.9663C213.488 60.3032 214.498 57.9831 214.498 55.4371C221.348 55.4371 227.408 51.9878 231.118 46.6906Z" fill="#787878"/>
<path d="M217.577 30.6552C218.607 37.1022 216.697 43.9383 211.857 48.9081C210.237 47.2337 207.977 46.1978 205.497 46.1978C205.497 39.1657 202.137 32.9435 196.977 29.1358C199.647 28.2119 202.517 27.7191 205.497 27.7191C209.847 27.7191 213.947 28.7662 217.577 30.6552Z" fill="#787878"/>
<path d="M205.498 64.6759C205.498 71.7091 208.858 77.9292 214.018 81.7379C211.348 82.6629 208.478 83.1546 205.498 83.1546C201.148 83.1546 197.048 82.1075 193.418 80.2196C192.388 73.7716 194.298 66.9344 199.138 61.9657C200.758 63.639 203.018 64.6759 205.498 64.6759Z" fill="#787878"/>
<path d="M199.137 48.9083C197.507 50.5704 196.497 52.8915 196.497 55.4364C189.647 55.4364 183.587 58.8868 179.877 64.184C178.977 61.443 178.497 58.4967 178.497 55.4364C178.497 50.9717 179.517 46.7617 181.357 43.0351C187.637 41.9788 194.297 43.9386 199.137 48.9083Z" fill="#787878"/>
<path d="M133.497 66.2154C133.497 68.7665 131.482 70.8351 128.997 70.8351C126.512 70.8351 124.497 68.7665 124.497 66.2154C124.497 63.6644 126.512 61.5958 128.997 61.5958C131.482 61.5958 133.497 63.6644 133.497 66.2154Z" fill="#616161"/>
<path d="M148.497 66.2154C148.497 68.7665 146.482 70.8351 143.997 70.8351C141.512 70.8351 139.497 68.7665 139.497 66.2154C139.497 63.6644 141.512 61.5958 143.997 61.5958C146.482 61.5958 148.497 63.6644 148.497 66.2154Z" fill="#616161"/>
<path d="M133.497 78.5346C133.497 81.0857 131.482 83.1543 128.997 83.1543C126.512 83.1543 124.497 81.0857 124.497 78.5346C124.497 75.9835 126.512 73.9149 128.997 73.9149C131.482 73.9149 133.497 75.9835 133.497 78.5346Z" fill="#787878"/>
<path d="M148.497 78.5346C148.497 81.0857 146.482 83.1543 143.997 83.1543C141.512 83.1543 139.497 81.0857 139.497 78.5346C139.497 75.9835 141.512 73.9149 143.997 73.9149C146.482 73.9149 148.497 75.9835 148.497 78.5346Z" fill="#787878"/>
<path d="M181.497 18.4787H139.497V15.3989H181.497V18.4787Z" fill="#787878"/>
<path d="M181.497 27.7181H139.497V21.5585H181.497V27.7181Z" fill="#787878"/>
<path d="M160.497 86.2341H154.497V36.9575H160.497V86.2341Z" fill="#F9F8F7"/>
<path d="M250.497 40.0372H244.497V12.3192H250.497V40.0372Z" fill="black"/>
<path d="M250.497 86.234H238.497V80.0745H250.497V86.234Z" fill="black"/>
<path d="M250.497 92.3936H244.497V89.3138H250.497V92.3936Z" fill="black"/>
<path d="M235.497 15.3989H187.497V12.3192H235.497V15.3989Z" fill="black"/>
<path d="M109.497 18.4787H103.497V12.3192H109.497V18.4787Z" fill="black"/>
<path d="M130.497 15.3989H118.497V12.3192H130.497V15.3989Z" fill="black"/>
<rect x="22.1236" y="76.9999" width="145.131" height="97.8497" rx="3.28694" fill="#C5C5C5"/>
<rect x="22.7557" y="77.632" width="143.74" height="96.4591" rx="2.90768" fill="#2F2F2F"/>
<path d="M-6.10352e-05 174.217C-6.10352e-05 174.148 0.0565395 174.091 0.12636 174.091H189.125C189.195 174.091 189.252 174.148 189.252 174.217V174.723H-6.10352e-05V174.217Z" fill="#B9B8BD"/>
<path d="M-6.10352e-05 174.723H189.252C180.248 177.353 172.274 177.927 156.635 178.516H33.2486C19.5982 178.142 12.3179 177.302 -6.10352e-05 174.723Z" fill="#7E7E7E"/>
<rect x="29.2031" y="83.953" width="130.846" height="81.9207" fill="#C9FFDE"/>
<path d="M78.6346 174.091H110.366V174.85C110.366 175.059 110.196 175.229 109.987 175.229H79.0139C78.8044 175.229 78.6346 175.059 78.6346 174.85V174.091Z" fill="#C4C4C4"/>
<path d="M109.102 174.091H110.366V174.85C110.366 175.059 110.196 175.229 109.987 175.229H109.102V174.091Z" fill="#A5A5A5"/>
<path d="M79.8988 174.091H78.6346V174.85C78.6346 175.059 78.8044 175.229 79.0139 175.229H79.8988V174.091Z" fill="#A5A5A5"/>
<rect width="130.671" height="81.8116" transform="translate(29.2031 83.953)" fill="#D2D5DA"/>
<g filter="url(#filter0_d_365_12372)">
<path d="M47 32.1747C47 32.0902 47.0685 32.0217 47.153 32.0217H47.8723C47.9568 32.0217 48.0253 32.0902 48.0253 32.1747V34.6882C48.0253 34.7727 47.9568 34.8412 47.8723 34.8412H47.153C47.0685 34.8412 47 34.7727 47 34.6882V32.1747Z" fill="#55585D"/>
<path d="M47 37.301C47 37.2165 47.0685 37.148 47.153 37.148H47.8723C47.9568 37.148 48.0253 37.2165 48.0253 37.301V42.3777C48.0253 42.4622 47.9568 42.5307 47.8723 42.5307H47.153C47.0685 42.5307 47 42.4622 47 42.3777V37.301Z" fill="#55585D"/>
<path d="M47 44.2216C47 44.1371 47.0685 44.0686 47.153 44.0686H47.8723C47.9568 44.0686 48.0253 44.1371 48.0253 44.2216V49.2983C48.0253 49.3828 47.9568 49.4513 47.8723 49.4513H47.153C47.0685 49.4513 47 49.3828 47 49.2983V44.2216Z" fill="#55585D"/>
<path d="M80.8339 39.3516C80.8339 39.2671 80.9024 39.1986 80.9869 39.1986H81.7062C81.7907 39.1986 81.8592 39.2671 81.8592 39.3516V47.2477C81.8592 47.3322 81.7907 47.4007 81.7062 47.4007H80.9869C80.9024 47.4007 80.8339 47.3322 80.8339 47.2477V39.3516Z" fill="#55585D"/>
<path d="M47.2563 23.907C47.2563 22.3015 48.5578 21 50.1634 21H78.6958C80.3014 21 81.6029 22.3015 81.6029 23.907V89.093C81.6029 90.6985 80.3014 92 78.6958 92H50.1634C48.5578 92 47.2563 90.6985 47.2563 89.093V23.907Z" fill="#36393E"/>
<path d="M48.7942 24.503C48.7942 23.4177 49.674 22.5379 50.7593 22.5379H78.0999C79.1852 22.5379 80.065 23.4177 80.065 24.503V88.4969C80.065 89.5822 79.1852 90.462 78.0999 90.462H50.7593C49.674 90.462 48.7942 89.5822 48.7942 88.4969V24.503Z" fill="white"/>
<rect x="48.7949" y="22.5381" width="31.2707" height="67.9241" rx="1.9651" fill="#D2D5DA"/>
<path fill-rule="evenodd" clip-rule="evenodd" d="M47.5126 24.0104C47.5126 22.4894 48.7457 21.2563 50.2667 21.2563H78.5925C80.1135 21.2563 81.3466 22.4894 81.3466 24.0104V88.9897C81.3466 90.5107 80.1135 91.7437 78.5925 91.7437H50.2667C48.7457 91.7437 47.5126 90.5107 47.5126 88.9897V24.0104ZM48.7942 24.68C48.7942 23.4969 49.7533 22.5379 50.9363 22.5379H55.9711V24.0301C55.9711 24.6216 56.4507 25.1011 57.0422 25.1011H71.8171C72.4086 25.1011 72.8881 24.6216 72.8881 24.0301V22.5379H77.923C79.106 22.5379 80.065 23.4969 80.065 24.68V88.3201C80.065 89.5031 79.106 90.4621 77.923 90.4621H50.9363C49.7533 90.4621 48.7942 89.5031 48.7942 88.3201V24.68Z" fill="#3E3E3E"/>
<path d="M61.8662 23.3069C61.8662 23.1654 61.981 23.0506 62.1226 23.0506H66.7363C66.8778 23.0506 66.9926 23.1654 66.9926 23.3069C66.9926 23.4485 66.8778 23.5632 66.7363 23.5632H62.1226C61.981 23.5632 61.8662 23.4485 61.8662 23.3069Z" fill="#5E5E5E"/>
<path d="M69.2996 23.3069C69.2996 23.59 69.0701 23.8195 68.787 23.8195C68.5039 23.8195 68.2744 23.59 68.2744 23.3069C68.2744 23.0238 68.5039 22.7943 68.787 22.7943C69.0701 22.7943 69.2996 23.0238 69.2996 23.3069Z" fill="black"/>
</g>
<g clip-path="url(#clip0_365_12372)">
<mask id="mask0_365_12372" style="mask-type:luminance" maskUnits="userSpaceOnUse" x="196" y="116" width="53" height="71">
<path d="M249 116H196V186.117H249V116Z" fill="white"/>
</mask>
<g mask="url(#mask0_365_12372)">
<path d="M223.032 120.801H221.968V117.084H223.032V120.801Z" fill="#D2D5DA"/>
<path d="M223.584 117.084C223.584 117.683 223.098 118.167 222.5 118.167C221.901 118.167 221.416 117.683 221.416 117.084C221.416 116.485 221.901 116 222.5 116C223.098 116 223.584 116.485 223.584 117.084Z" fill="#2F2F2F"/>
<path d="M222.979 120.804C232.26 121.058 239.539 128.906 239.539 138.19V143.499C239.539 144.675 238.585 145.628 237.409 145.628H207.591C206.415 145.628 205.462 144.675 205.462 143.499V137.836C205.462 128.266 213.35 120.54 222.979 120.804Z" fill="#D2D5DA"/>
<path d="M214.749 131.406C212.647 131.406 210.936 133.117 210.936 135.22V139.721C210.936 141.824 212.647 143.534 214.749 143.534H230.25C232.353 143.534 234.064 141.824 234.064 139.721V135.22C234.064 133.117 232.353 131.406 230.25 131.406H214.749ZM230.25 144.599H214.749C212.06 144.599 209.871 142.411 209.871 139.721V135.22C209.871 132.53 212.06 130.342 214.749 130.342H230.25C232.941 130.342 235.129 132.53 235.129 135.22V139.721C235.129 142.411 232.941 144.599 230.25 144.599Z" fill="#2F2F2F"/>
<path d="M227.667 137.47C227.667 138.327 228.362 139.022 229.219 139.022C230.076 139.022 230.77 138.327 230.77 137.47C230.77 136.613 230.076 135.919 229.219 135.919C228.362 135.919 227.667 136.613 227.667 137.47Z" fill="#2F2F2F"/>
<path d="M217.333 137.47C217.333 138.327 216.638 139.022 215.781 139.022C214.924 139.022 214.23 138.327 214.23 137.47C214.23 136.613 214.924 135.919 215.781 135.919C216.638 135.919 217.333 136.613 217.333 137.47Z" fill="#2F2F2F"/>
<path d="M222.5 140.549C223.428 140.549 224.297 140.137 224.885 139.418C225.036 139.232 225.009 138.958 224.823 138.807C224.638 138.655 224.364 138.682 224.211 138.868C223.79 139.384 223.166 139.68 222.5 139.68C221.834 139.68 221.21 139.384 220.789 138.868C220.637 138.682 220.362 138.655 220.177 138.807C219.991 138.958 219.964 139.232 220.115 139.418C220.703 140.137 221.572 140.549 222.5 140.549Z" fill="#2F2F2F"/>
<path d="M237.37 174.941H207.591C206.414 174.941 205.462 173.988 205.462 172.812V149.038C205.462 147.862 206.414 146.909 207.591 146.909H237.37C238.545 146.909 239.499 147.862 239.499 149.038V172.812C239.499 173.988 238.545 174.941 237.37 174.941Z" fill="#D2D5DA"/>
<path d="M213.787 174.941H215.091V186.117H213.787V174.941Z" fill="#2F2F2F"/>
<path d="M214.439 180.182C211.928 180.182 209.78 181.742 208.914 183.945C208.504 184.988 209.286 186.117 210.406 186.117H218.472C219.593 186.117 220.375 184.988 219.965 183.945C219.098 181.742 216.951 180.182 214.439 180.182Z" fill="#2F2F2F"/>
<path d="M231.213 174.941H229.909V186.117H231.213V174.941Z" fill="#2F2F2F"/>
<path d="M230.561 180.182C233.073 180.182 235.22 181.742 236.086 183.945C236.497 184.988 235.714 186.117 234.594 186.117H226.528C225.407 186.117 224.625 184.988 225.035 183.945C225.902 181.742 228.049 180.182 230.561 180.182Z" fill="#2F2F2F"/>
<path d="M205.462 155.116C205.462 157.729 203.344 159.847 200.731 159.847C198.118 159.847 196 157.729 196 155.116C196 152.503 198.118 150.385 200.731 150.385C203.344 150.385 205.462 152.503 205.462 155.116Z" fill="#2F2F2F"/>
<path d="M200.079 159.847H201.382V174.941H200.079V159.847Z" fill="#2F2F2F"/>
<path d="M202.099 186.117H199.362C198.187 186.117 197.233 185.164 197.233 183.988V170.723C197.233 169.547 198.187 168.594 199.362 168.594H202.099C203.275 168.594 204.228 169.547 204.228 170.723V183.988C204.228 185.164 203.275 186.117 202.099 186.117Z" fill="#D2D5DA"/>
<path d="M239.538 155.116C239.538 157.729 241.656 159.847 244.269 159.847C246.882 159.847 249 157.729 249 155.116C249 152.503 246.882 150.385 244.269 150.385C241.656 150.385 239.538 152.503 239.538 155.116Z" fill="#2F2F2F"/>
<path d="M244.921 159.847H243.618V174.941H244.921V159.847Z" fill="#2F2F2F"/>
<path d="M242.901 186.117H245.638C246.814 186.117 247.767 185.164 247.767 183.988V170.723C247.767 169.547 246.814 168.594 245.638 168.594H242.901C241.725 168.594 240.772 169.547 240.772 170.723V183.988C240.772 185.164 241.725 186.117 242.901 186.117Z" fill="#D2D5DA"/>
<path d="M224.741 153.226C224.741 154.464 223.738 155.467 222.5 155.467C221.262 155.467 220.258 154.464 220.258 153.226C220.258 151.988 221.262 150.984 222.5 150.984C223.738 150.984 224.741 151.988 224.741 153.226Z" fill="#2F2F2F"/>
<path d="M224.741 160.925C224.741 162.163 223.738 163.167 222.5 163.167C221.262 163.167 220.258 162.163 220.258 160.925C220.258 159.687 221.262 158.684 222.5 158.684C223.738 158.684 224.741 159.687 224.741 160.925Z" fill="#2F2F2F"/>
<path d="M224.741 168.624C224.741 169.862 223.738 170.865 222.5 170.865C221.262 170.865 220.258 169.862 220.258 168.624C220.258 167.386 221.262 166.383 222.5 166.383C223.738 166.383 224.741 167.386 224.741 168.624Z" fill="#2F2F2F"/>
</g>
</g>
<defs>
<filter id="filter0_d_365_12372" x="43.7533" y="19.8893" width="41.3526" height="77.4934" filterUnits="userSpaceOnUse" color-interpolation-filters="sRGB">
<feFlood flood-opacity="0" result="BackgroundImageFix"/>
<feColorMatrix in="SourceAlpha" type="matrix" values="0 0 0 0 0 0 0 0 0 0 0 0 0 0 0 0 0 0 127 0" result="hardAlpha"/>
<feMorphology radius="1.02527" operator="erode" in="SourceAlpha" result="effect1_dropShadow_365_12372"/>
<feOffset dy="2.13598"/>
<feGaussianBlur stdDeviation="2.13598"/>
<feComposite in2="hardAlpha" operator="out"/>
<feColorMatrix type="matrix" values="0 0 0 0 0 0 0 0 0 0 0 0 0 0 0 0 0 0 0.25 0"/>
<feBlend mode="normal" in2="BackgroundImageFix" result="effect1_dropShadow_365_12372"/>
<feBlend mode="normal" in="SourceGraphic" in2="effect1_dropShadow_365_12372" result="shape"/>
</filter>
<clipPath id="clip0_365_12372">
<rect width="53" height="70.1173" fill="white" transform="translate(196 116)"/>
</clipPath>
</defs>
</svg>
