<svg width="594" height="474" viewBox="0 0 594 474" fill="none" xmlns="http://www.w3.org/2000/svg">
<g clip-path="url(#clip0_128_970)">
<path d="M310.998 391.535L328.599 386.349L323.464 404L328.599 421.601L310.998 416.465L293.347 421.601L298.533 404L293.347 386.349L310.998 391.535Z" fill="black" stroke="white" stroke-miterlimit="10"/>
</g>
<path d="M564.58 348.333C562.68 351.777 559.142 354.268 554.046 355.813C548.949 357.359 542.337 357.943 534.375 357.6C518.455 356.913 497.253 352.524 472.239 344.868C422.218 329.558 357.056 301.216 288.617 263.465C220.178 225.715 161.445 185.717 121.812 151.575C101.992 134.501 86.9703 118.909 77.8967 105.81C73.3593 99.2589 70.3259 93.3547 68.9141 88.2182C67.5029 83.0842 67.7226 78.7625 69.6221 75.3186C71.5217 71.8748 75.06 69.3836 80.1554 67.8385C85.2531 66.2927 91.8652 65.7089 99.8265 66.0523C115.747 66.7391 136.949 71.1278 161.963 78.7839C211.983 94.0937 277.145 122.436 345.585 160.187C414.024 197.937 472.757 237.934 512.39 272.077C532.209 289.15 547.232 304.742 556.305 317.842C560.843 324.393 563.876 330.297 565.288 335.434C566.699 340.568 566.479 344.889 564.58 348.333Z" stroke="black"/>
<path d="M544.349 385.007C542.45 388.451 538.911 390.942 533.816 392.487C528.718 394.033 522.106 394.617 514.145 394.273C498.224 393.587 477.023 389.198 452.008 381.542C401.988 366.232 336.826 337.89 268.387 300.139C199.947 262.388 141.214 222.391 101.581 188.249C81.7619 171.175 66.7398 155.583 57.6662 142.483C53.1288 135.933 50.0955 130.029 48.6836 124.892C47.2724 119.758 47.4921 115.436 49.3917 111.992C51.2913 108.549 54.8296 106.057 59.9249 104.512C65.0227 102.967 71.6347 102.383 79.596 102.726C95.5165 103.413 116.718 107.802 141.732 115.458C191.753 130.767 256.915 159.11 325.354 196.86C393.794 234.611 452.527 274.608 492.159 308.75C511.979 325.824 527.001 341.416 536.075 354.516C540.612 361.067 543.645 366.971 545.057 372.107C546.468 377.241 546.249 381.563 544.349 385.007Z" stroke="black"/>
<path d="M524.121 421.681C522.221 425.125 518.683 427.616 513.587 429.161C508.49 430.707 501.878 431.291 493.916 430.948C477.996 430.261 456.794 425.872 431.78 418.216C381.759 402.906 316.598 374.564 248.158 336.813C179.719 299.063 120.986 259.066 81.3529 224.923C61.5334 207.85 46.5113 192.258 37.4377 179.158C32.9003 172.607 29.8669 166.703 28.4551 161.566C27.0439 156.432 27.2636 152.111 29.1632 148.667C31.0628 145.223 34.601 142.732 39.6964 141.187C44.7942 139.641 51.4062 139.057 59.3675 139.4C75.288 140.087 96.4898 144.476 121.504 152.132C171.524 167.442 236.686 195.784 305.126 233.535C373.565 271.285 432.298 311.283 471.931 345.425C491.75 362.499 506.773 378.091 515.846 391.19C520.384 397.741 523.417 403.645 524.829 408.782C526.24 413.916 526.02 418.237 524.121 421.681Z" stroke="black"/>
<circle cx="131.5" cy="63.5" r="15.5" fill="#98CBF9"/>
<circle cx="421" cy="394" r="10" fill="#98CBF9"/>
<circle cx="81.4995" cy="23.5" r="23.5" fill="black"/>
<defs>
<clipPath id="clip0_128_970">
<rect width="36" height="36" fill="white" transform="translate(293 386)"/>
</clipPath>
</defs>
</svg>
