<svg width="25" height="24" viewBox="0 0 25 24" fill="none" xmlns="http://www.w3.org/2000/svg">
<path d="M24.4179 17.6428C24.3552 17.3883 24.2538 17.147 24.1178 16.9283C24.147 16.8132 24.1692 16.6962 24.184 16.578C24.2806 15.8278 24.0392 15.1411 23.5843 14.6098C23.3378 14.3196 23.0736 14.1279 22.7938 14.0103C22.9775 13.1639 23.0704 12.2977 23.0708 11.4285C23.0708 11.0315 23.05 10.6427 23.015 10.2596C22.9968 10.0683 22.9748 9.87747 22.9489 9.68718C22.8689 9.12572 22.75 8.57141 22.5934 8.02903C22.4907 7.67263 22.372 7.32184 22.2375 6.9779C22.036 6.46856 21.8008 5.97548 21.5336 5.50252C21.3583 5.18783 21.1674 4.88354 20.9617 4.59097C20.8609 4.44323 20.756 4.29898 20.6466 4.15843C20.3229 3.73466 19.9711 3.33672 19.594 2.96772C19.4688 2.84367 19.34 2.72387 19.2077 2.60848C19.0776 2.49153 18.9445 2.37836 18.8087 2.26906C18.5355 2.04998 18.2531 1.84445 17.9625 1.65313C16.3566 0.602506 14.4734 0 12.4605 0C6.60001 0 1.85025 5.11653 1.85025 11.4289C1.85002 12.3091 1.94464 13.1862 2.13225 14.0428C1.88055 14.1605 1.63933 14.344 1.41559 14.6095C0.960778 15.1406 0.719212 15.8248 0.815815 16.575C0.830498 16.6941 0.852522 16.8121 0.881887 16.928C0.746025 17.1468 0.644714 17.3883 0.582056 17.6428C0.44222 18.2153 0.488249 18.7316 0.665957 19.1839C0.472751 19.7751 0.520994 20.4048 0.772582 20.9522C0.955534 21.352 1.21738 21.6612 1.54017 21.9376C1.9239 22.2663 2.40423 22.5454 2.98362 22.8133C3.67488 23.1309 4.51867 23.4292 4.9024 23.5387C5.89361 23.8151 6.84403 23.9903 7.80726 23.9988C9.17964 24.0125 10.3615 23.6649 11.2076 22.7754C11.6233 22.8302 12.0417 22.8577 12.4605 22.8575C12.903 22.8565 13.345 22.8265 13.7841 22.7677C14.6282 23.6629 15.8146 24.0137 17.192 23.9996C18.1551 23.9913 19.1055 23.8161 20.0942 23.5393C20.4805 23.4298 21.3239 23.1315 22.0155 22.8139C22.5949 22.5457 23.0753 22.2665 23.4615 21.9384C23.7819 21.6619 24.0435 21.3527 24.2266 20.9529C24.4807 20.4054 24.5264 19.7758 24.3359 19.1846C24.5118 18.7322 24.5576 18.2148 24.4179 17.6428ZM23.4344 19.1456C23.6291 19.5437 23.6416 19.9934 23.4698 20.4123C23.2093 21.0471 22.5621 21.5471 21.305 22.084C20.5234 22.4179 19.8076 22.6314 19.8013 22.6333C18.7675 22.9221 17.8325 23.0688 17.023 23.0688C15.6827 23.0688 14.6853 22.6704 14.0528 21.8837C12.9832 22.08 11.8911 22.0866 10.8194 21.9035C10.1861 22.6772 9.19444 23.0688 7.86541 23.0688C7.05588 23.0688 6.12096 22.9221 5.08699 22.6333C5.08069 22.6314 4.3652 22.4179 3.58328 22.084C2.32639 21.5471 1.67895 21.0474 1.41851 20.4123C1.24674 19.9934 1.25921 19.5437 1.45393 19.1456C1.47188 19.1086 1.49122 19.0726 1.51185 19.0377C1.39516 18.8489 1.31688 18.6357 1.28217 18.4118C1.24747 18.1882 1.25711 17.9591 1.31048 17.7397C1.38786 17.423 1.54762 17.1596 1.7646 16.9705C1.66007 16.7855 1.5915 16.5796 1.563 16.3652C1.50054 15.899 1.64423 15.4336 1.96736 15.054C2.21907 14.7586 2.57483 14.5961 2.96871 14.5961H2.97919C2.68222 13.5707 2.53165 12.5026 2.53265 11.4285C2.53265 5.5703 6.94168 0.820664 12.3811 0.820664C17.8203 0.820664 22.2294 5.5698 22.2294 11.4285C22.2302 12.5055 22.0786 13.5764 21.7797 14.6041C21.8272 14.5991 21.8738 14.5966 21.9196 14.5965C22.3135 14.5965 22.6694 14.759 22.9208 15.0544C23.244 15.4336 23.3878 15.8994 23.3252 16.3656C23.2968 16.58 23.2281 16.7858 23.1237 16.9709C23.3407 17.16 23.5006 17.4234 23.5778 17.7401C23.6312 17.9595 23.6409 18.1885 23.6062 18.4123C23.5716 18.636 23.4932 18.8493 23.3765 19.0381C23.3971 19.0726 23.4167 19.1086 23.4344 19.1456Z" fill="white"/>
<path d="M23.3765 19.0381C23.4932 18.8493 23.5716 18.636 23.6063 18.4123C23.6409 18.1885 23.6312 17.9595 23.5778 17.74C23.5005 17.4234 23.3406 17.16 23.1237 16.9708C23.2283 16.7858 23.2968 16.58 23.3252 16.3656C23.3878 15.8994 23.2441 15.434 22.9209 15.0544C22.6694 14.759 22.3135 14.5965 21.9196 14.5965C21.8738 14.5965 21.8272 14.5991 21.7797 14.6041C22.0782 13.5764 22.2296 12.5056 22.2285 11.4288C22.2285 5.57043 17.8195 0.820923 12.3807 0.820923C6.9418 0.820923 2.53229 5.56993 2.53229 11.4288C2.53131 12.5029 2.68188 13.571 2.97885 14.5963H2.96835C2.57448 14.5963 2.21872 14.7588 1.96713 15.0541C1.644 15.4333 1.50019 15.8993 1.56276 16.3653C1.59128 16.5797 1.65986 16.7857 1.76436 16.9707C1.54738 17.1598 1.38751 17.4231 1.31014 17.7398C1.25679 17.9593 1.24718 18.1884 1.28193 18.4122C1.31668 18.6359 1.39498 18.8493 1.51172 19.0381C1.49098 19.073 1.47187 19.109 1.45381 19.146C1.2592 19.5441 1.24663 19.9938 1.41851 20.4127C1.67907 21.0474 2.32627 21.5475 3.58328 22.0844C4.36484 22.4183 5.0807 22.6318 5.08699 22.6337C6.12084 22.9225 7.05588 23.0692 7.8653 23.0692C9.19444 23.0692 10.1861 22.6776 10.8194 21.9039C11.8911 22.087 12.9832 22.0802 14.0528 21.884C14.6853 22.6708 15.6827 23.0692 17.023 23.0692C17.8325 23.0692 18.7675 22.9225 19.8012 22.6337C19.8076 22.6318 20.5231 22.4183 21.305 22.0844C22.5621 21.5475 23.2094 21.0474 23.4698 20.4127C23.6416 19.9938 23.6291 19.5441 23.4344 19.146C23.4167 19.1087 23.3971 19.0726 23.3765 19.0381ZM10.3663 20.6926C10.3117 20.7953 10.2533 20.8955 10.1912 20.9931C10.0275 21.2513 9.81216 21.4486 9.56221 21.5952C9.08442 21.8759 8.47964 21.9739 7.8653 21.9739C6.89472 21.9739 5.89979 21.7293 5.34219 21.5735C5.31469 21.5658 1.9239 20.5342 2.3532 19.656C2.42545 19.5083 2.5443 19.4493 2.69404 19.4493C3.29848 19.4493 4.3991 20.4188 4.8721 20.4188C4.97779 20.4188 5.05237 20.3704 5.08278 20.2521C5.28438 19.4734 2.01886 19.146 2.29387 18.0183C2.34235 17.8187 2.47404 17.7377 2.65909 17.7377C3.45825 17.7375 5.25188 19.2515 5.62699 19.2515C5.65577 19.2515 5.67639 19.2423 5.68757 19.2232C5.68921 19.2203 5.69085 19.2176 5.69236 19.2146C5.86844 18.9014 5.7674 18.6737 4.5612 17.8779L4.44537 17.8019C3.11797 16.9366 2.18632 16.4158 2.71618 15.7945C2.77712 15.7228 2.86359 15.691 2.96858 15.691C3.09304 15.691 3.24371 15.7358 3.40965 15.8111C4.11069 16.1296 5.08233 16.9981 5.4882 17.3768C5.55205 17.4365 5.61549 17.4969 5.67849 17.5577C5.67849 17.5577 6.19239 18.1333 6.50306 18.1333C6.57461 18.1333 6.63531 18.1029 6.67645 18.0279C6.89682 17.6277 4.62983 15.7773 4.502 15.0137C4.4153 14.4964 4.56283 14.2343 4.83551 14.2343C4.96521 14.2343 5.12345 14.2938 5.29813 14.4132C5.84 14.7836 6.8862 16.7202 7.26924 17.4736C7.39765 17.726 7.61684 17.8327 7.81436 17.8327C8.20625 17.8327 8.51261 17.4131 7.85025 16.8798C6.85474 16.0775 7.20411 14.7661 7.6792 14.6853C7.69948 14.6818 7.71997 14.6801 7.74037 14.6801C8.17246 14.6801 8.36299 15.482 8.36299 15.482C8.36299 15.482 8.92163 16.9931 9.88127 18.026C10.752 18.9635 10.8736 19.7328 10.3663 20.6926ZM13.4693 20.8696L13.4196 20.876L13.3347 20.8864C13.2901 20.8914 13.2454 20.8962 13.2005 20.9006L13.1568 20.9048L13.1168 20.9085L13.0602 20.9134L12.9976 20.9183L12.9352 20.9227L12.9213 20.9237C12.905 20.9247 12.8887 20.9258 12.8721 20.9267L12.8513 20.9279C12.8319 20.9291 12.8126 20.9301 12.793 20.9309L12.7253 20.9341L12.6639 20.9363L12.6229 20.9376H12.602C12.5892 20.9376 12.5765 20.9384 12.5637 20.9385H12.5434C12.5306 20.9385 12.5179 20.9385 12.5051 20.9391L12.4528 20.9399H12.38C12.3228 20.9399 12.2657 20.9392 12.2088 20.938L12.1627 20.9368C12.1495 20.9368 12.1364 20.9362 12.1234 20.9357L12.0745 20.9342L12.0138 20.9317L11.959 20.9291L11.9449 20.9284L11.8928 20.9255C11.8782 20.9247 11.8639 20.9239 11.8495 20.9228L11.8158 20.9207C11.7735 20.9178 11.7312 20.9146 11.6889 20.9111L11.6446 20.9072C11.626 20.9057 11.6073 20.9038 11.5888 20.9021C11.567 20.9001 11.5452 20.8978 11.5234 20.8955C11.4869 20.8919 11.4505 20.8879 11.414 20.8836H11.4122C11.9448 19.6039 11.6755 18.4087 10.5993 17.2505C9.8935 16.4912 9.424 15.3701 9.32658 15.1239C9.1294 14.3953 8.60759 13.5853 7.74096 13.5853C7.66766 13.5853 7.59448 13.5915 7.52212 13.6038C7.14246 13.6682 6.81059 13.9036 6.5738 14.2578C6.3179 13.915 6.06922 13.6425 5.84432 13.4886C5.50522 13.257 5.1668 13.1395 4.83714 13.1395C4.42567 13.1395 4.0579 13.3215 3.80154 13.6517L3.79501 13.6601C3.79012 13.6384 3.78546 13.6166 3.78068 13.5948L3.7801 13.5919C3.7313 13.3672 3.69034 13.1407 3.65727 12.9126C3.65727 12.9111 3.65727 12.9096 3.65657 12.9081C3.65401 12.8909 3.65168 12.8736 3.64923 12.8564C3.64207 12.8054 3.63534 12.7543 3.62907 12.7032C3.62628 12.68 3.62325 12.6568 3.62057 12.6336L3.61264 12.5639C3.61008 12.5407 3.60798 12.5196 3.60565 12.4975L3.60496 12.492C3.59565 12.4016 3.5875 12.3112 3.58048 12.2206L3.57792 12.1858L3.57384 12.1266C3.57267 12.1104 3.57151 12.0941 3.57069 12.0777C3.57069 12.0738 3.57011 12.0701 3.56999 12.0664C3.56703 12.021 3.5645 11.9754 3.56242 11.9299C3.56125 11.9062 3.56009 11.8826 3.55916 11.8587L3.55682 11.7964L3.55624 11.7776L3.55438 11.7203L3.55321 11.6714C3.55321 11.652 3.55228 11.6325 3.55205 11.6131C3.5517 11.5936 3.55123 11.5723 3.55111 11.5517C3.55088 11.5311 3.55111 11.5108 3.55053 11.4903C3.55007 11.4697 3.55053 11.4493 3.55053 11.4288C3.55053 6.17532 7.50451 1.91623 12.3821 1.91623C17.2596 1.91623 21.2135 6.1752 21.2135 11.4288V11.5517C21.2135 11.5721 21.2129 11.5927 21.2125 11.6131C21.2125 11.63 21.2118 11.6467 21.2114 11.6639C21.2114 11.679 21.2108 11.6941 21.2103 11.7087C21.2103 11.7279 21.2093 11.7471 21.2087 11.7663V11.7678L21.2062 11.8345C21.2054 11.8539 21.2047 11.8735 21.2038 11.893L21.2032 11.9068L21.2001 11.969C21.1932 12.1025 21.1837 12.2356 21.172 12.3687V12.3703C21.17 12.3922 21.168 12.414 21.1658 12.4359L21.1606 12.4874L21.1502 12.5884L21.1442 12.6395L21.1369 12.6996C21.1342 12.7214 21.1315 12.7434 21.1285 12.7651C21.1255 12.7896 21.1221 12.8139 21.1187 12.8383L21.1107 12.8959L21.1011 12.9612C21.0979 12.9829 21.0944 13.0045 21.0906 13.0261C21.0868 13.0478 21.0838 13.0694 21.0803 13.091C21.0733 13.1341 21.0659 13.1773 21.0582 13.2204C21.0465 13.2848 21.0345 13.349 21.0221 13.4133L21.0093 13.4769C21.0051 13.4981 21.0006 13.5195 20.9961 13.5407C20.7476 13.2805 20.4184 13.1388 20.0554 13.1388C19.7259 13.1388 19.3872 13.2561 19.0482 13.4877C18.8233 13.6416 18.5748 13.9143 18.3187 14.2569C18.0816 13.9027 17.7497 13.6674 17.3703 13.603C17.2979 13.5907 17.2248 13.5844 17.1515 13.5844C16.2846 13.5844 15.7631 14.3944 15.5658 15.123C15.4679 15.3692 14.9983 16.4903 14.2919 17.2508C13.2165 18.4053 12.9452 19.5951 13.4693 20.8696ZM22.5868 18.3078L22.5833 18.319C22.5744 18.3442 22.5642 18.3688 22.5526 18.3926C22.5439 18.4102 22.5344 18.4273 22.5242 18.4438C22.5047 18.4751 22.4834 18.505 22.4602 18.5331C22.4548 18.5396 22.4497 18.5461 22.4437 18.5526C22.4353 18.5622 22.4268 18.5718 22.418 18.581C22.2612 18.7485 22.0221 18.8954 21.7517 19.03C21.7211 19.045 21.6899 19.0599 21.6586 19.075L21.6274 19.0899C21.6065 19.0998 21.5857 19.1096 21.5637 19.1193C21.5429 19.1291 21.5212 19.1389 21.4995 19.1484L21.4345 19.1773C21.2824 19.2447 21.1266 19.3089 20.9747 19.3723L20.9097 19.3996L20.8455 19.4267C20.8027 19.4446 20.7605 19.4626 20.719 19.4805L20.6571 19.5074L20.5963 19.5341L20.5665 19.5477C20.5466 19.5566 20.5271 19.5655 20.5076 19.5744C20.0605 19.7812 19.7388 19.9914 19.8064 20.2522C19.8082 20.2597 19.8103 20.2667 19.8126 20.2736C19.8187 20.2929 19.827 20.3111 19.8374 20.3283C19.8434 20.3385 19.8504 20.3481 19.8582 20.3569C19.9377 20.4459 20.0823 20.4319 20.2647 20.3612C20.2903 20.351 20.3158 20.3405 20.3411 20.3294L20.357 20.3224C20.3987 20.3033 20.4428 20.282 20.4879 20.2589C20.4992 20.2531 20.5107 20.2476 20.5221 20.2412C20.7451 20.1237 20.9979 19.9656 21.2486 19.8216C21.349 19.7632 21.4507 19.7079 21.5537 19.6553C21.7912 19.5349 22.0145 19.4495 22.1939 19.4495C22.2782 19.4495 22.3525 19.4681 22.4145 19.5108L22.4249 19.5182C22.4638 19.5477 22.4964 19.5856 22.5208 19.6295C22.5256 19.6379 22.5302 19.6469 22.5348 19.656C22.6235 19.8374 22.5492 20.0252 22.3755 20.2093C22.2087 20.3862 21.9493 20.5595 21.6545 20.7199C21.6326 20.7319 21.6107 20.7438 21.5884 20.7555C20.711 21.2196 19.5619 21.5692 19.5459 21.5736C19.2397 21.6591 18.8018 21.7713 18.3084 21.8553L18.2354 21.8676L18.2234 21.8695C18.1682 21.8785 18.1128 21.8869 18.0574 21.8947C18.0011 21.9029 17.9442 21.9103 17.887 21.9172L17.8765 21.9184C17.6691 21.9442 17.4608 21.9612 17.2521 21.9694H17.2491C17.1736 21.9723 17.0982 21.9738 17.0227 21.9738H16.9356C16.8205 21.9722 16.7056 21.9665 16.5908 21.957C16.5881 21.957 16.5852 21.957 16.5826 21.9562C16.5414 21.9528 16.5004 21.9487 16.4594 21.9438C16.4168 21.9389 16.3744 21.9334 16.3321 21.9272C16.3043 21.9232 16.2765 21.9187 16.2488 21.9138C16.2206 21.9089 16.1924 21.9039 16.1643 21.8986L16.126 21.8908L16.1231 21.8902C16.0826 21.8819 16.0424 21.8727 16.0024 21.8627C15.979 21.857 15.9559 21.8515 15.9329 21.8447L15.919 21.841C15.9076 21.838 15.8965 21.8347 15.8852 21.8314L15.8791 21.8297L15.8432 21.8184C15.8301 21.8145 15.8171 21.8102 15.804 21.8061L15.7995 21.8047L15.7656 21.7935C15.7527 21.7893 15.7399 21.7847 15.7272 21.7802L15.696 21.7691L15.673 21.7604C15.6509 21.752 15.6289 21.7433 15.6071 21.7343L15.5863 21.7255L15.5692 21.7182C15.5361 21.7039 15.5033 21.689 15.4707 21.6733L15.4492 21.662L15.4456 21.6602C15.4379 21.6563 15.4303 21.6524 15.4226 21.6491C15.4076 21.6413 15.3927 21.6332 15.3779 21.6251L15.3733 21.6227L15.3519 21.6105C15.3138 21.5891 15.2765 21.5662 15.2399 21.542L15.2199 21.5287C15.2098 21.522 15.1998 21.5151 15.19 21.5081L15.1639 21.4895L15.1358 21.4687L15.1191 21.4558C15.1013 21.4422 15.084 21.4281 15.067 21.4137L15.0398 21.3912C15.029 21.3818 15.0183 21.3723 15.0077 21.3626C14.9987 21.3547 14.9899 21.3464 14.9812 21.3381L14.9805 21.3375C14.9711 21.3286 14.9619 21.3197 14.9526 21.3105C14.9436 21.3016 14.9345 21.2926 14.9256 21.2834L14.9246 21.2823C14.9152 21.2727 14.9062 21.2631 14.8972 21.2532C14.8882 21.2434 14.879 21.2336 14.8703 21.2235C14.8615 21.2136 14.8526 21.2035 14.8439 21.193C14.8353 21.1827 14.8274 21.1733 14.8192 21.1632L14.8165 21.1598C14.8086 21.15 14.8008 21.1401 14.7931 21.1299C14.7765 21.1084 14.7603 21.0865 14.7446 21.064C14.7289 21.0414 14.7135 21.0183 14.6985 20.9948L14.6842 20.9717C14.6651 20.9416 14.6464 20.9112 14.6283 20.8804C14.6148 20.8581 14.6017 20.8358 14.5888 20.8131C14.5806 20.7989 14.5726 20.7846 14.5647 20.7705L14.5615 20.7648C14.5539 20.7509 14.5464 20.7374 14.5392 20.7237C14.535 20.7163 14.531 20.7089 14.5273 20.7012C14.5235 20.6935 14.519 20.6856 14.515 20.6776L14.5083 20.6652L14.5042 20.6572C14.4964 20.6421 14.4887 20.6269 14.4813 20.6116C14.4778 20.6048 14.4744 20.5981 14.4708 20.5915L14.4604 20.5698L14.4499 20.5484C14.4237 20.4919 14.3989 20.4346 14.3756 20.3766L14.3673 20.3554C14.362 20.3412 14.3569 20.3272 14.3516 20.3133C14.349 20.3065 14.3465 20.2998 14.3442 20.293C14.3318 20.2583 14.3201 20.2231 14.3094 20.1877C14.3056 20.1751 14.3018 20.1626 14.2983 20.1501C14.2899 20.1216 14.2824 20.0928 14.2756 20.0638C14.2673 20.0301 14.26 19.9961 14.2538 19.9618C14.2525 19.9549 14.2513 19.948 14.2502 19.9413C14.2441 19.9078 14.2393 19.874 14.2354 19.8402C14.2345 19.8335 14.2338 19.8269 14.2331 19.8202L14.2311 19.7999C14.2285 19.7733 14.2266 19.7465 14.2254 19.7198C14.2254 19.713 14.2248 19.7062 14.2246 19.6997C14.224 19.6864 14.2238 19.6731 14.2236 19.6598C14.2171 19.1234 14.4691 18.6078 15.0078 18.0277C15.9674 16.9951 16.526 15.4839 16.526 15.4839C16.526 15.4839 16.5411 15.4205 16.5723 15.3293C16.5766 15.3166 16.5812 15.3035 16.5863 15.2899C16.6045 15.2388 16.625 15.1886 16.6477 15.1396L16.6522 15.1302C16.6716 15.0885 16.6928 15.0478 16.7156 15.0083C16.721 14.9991 16.7261 14.9901 16.7321 14.9809C16.7492 14.9537 16.7673 14.9271 16.7862 14.9014C16.7966 14.8874 16.8079 14.8736 16.8192 14.8602C16.8238 14.8549 16.8282 14.8496 16.833 14.8446C16.8886 14.7827 16.9521 14.7323 17.024 14.7054L17.0331 14.7022C17.0391 14.7 17.0452 14.698 17.0514 14.6961C17.0585 14.6941 17.0656 14.6924 17.0729 14.6907L17.0763 14.69C17.0914 14.6867 17.1068 14.6846 17.1223 14.6835H17.1236C17.1316 14.6835 17.1398 14.6826 17.1481 14.6826C17.1584 14.6826 17.1681 14.6826 17.1783 14.6837C17.1887 14.6847 17.1991 14.686 17.2096 14.6877C17.2961 14.7025 17.3783 14.758 17.4492 14.8436C17.4761 14.8763 17.5003 14.9114 17.5216 14.9486C17.5355 14.9727 17.5487 14.9981 17.5612 15.025C17.5662 15.0362 17.571 15.0465 17.5756 15.0575C17.5877 15.0859 17.5987 15.1147 17.6083 15.1442C17.631 15.2133 17.6481 15.2843 17.6594 15.3566C17.6692 15.42 17.675 15.484 17.6769 15.5482C17.6778 15.5824 17.6778 15.6172 17.6769 15.6522C17.6706 15.8152 17.6396 15.976 17.5852 16.1282C17.5803 16.1421 17.5748 16.1562 17.5696 16.1703C17.5588 16.1986 17.5471 16.2265 17.5344 16.2537C17.5249 16.2744 17.515 16.2953 17.5043 16.316C17.4973 16.3298 17.49 16.3436 17.4826 16.3574C17.4639 16.3918 17.4436 16.426 17.4218 16.46L17.4086 16.4803C17.3571 16.5576 17.2998 16.6302 17.2371 16.6972C17.1753 16.7639 17.1092 16.8255 17.0391 16.8817C16.969 16.9377 16.9031 16.9997 16.8423 17.0671C16.6672 17.2651 16.6264 17.4398 16.6658 17.5722C16.672 17.5931 16.6803 17.6133 16.6903 17.6323C16.7021 17.6542 16.7161 17.6743 16.7319 17.6926L16.7381 17.6995L16.7444 17.7063C16.7507 17.7128 16.7573 17.7192 16.7645 17.7255L16.7714 17.7315C16.7883 17.7456 16.8063 17.7581 16.8251 17.7692C16.8305 17.7723 16.8354 17.7754 16.8416 17.7785C16.8619 17.7891 16.8827 17.7983 16.9042 17.8057C16.9101 17.8078 16.9161 17.8097 16.9221 17.8117L16.9297 17.8139L16.9402 17.8169L16.9492 17.8193L16.9589 17.8215L16.9686 17.8236L16.9778 17.8253C16.9846 17.8265 16.9916 17.8278 16.9986 17.8287L17.0052 17.8298L17.0173 17.831L17.0248 17.8319L17.037 17.8328H17.0442L17.0571 17.8336H17.0974L17.1089 17.8328L17.1222 17.8319L17.1384 17.8303L17.1536 17.8284C17.157 17.8284 17.1605 17.8274 17.164 17.8267C17.2107 17.8194 17.2563 17.8061 17.3 17.787L17.3186 17.7786C17.3289 17.7737 17.3394 17.7685 17.349 17.763C17.3695 17.752 17.3894 17.7394 17.4085 17.7257C17.4352 17.7069 17.4604 17.6858 17.4839 17.6626C17.4895 17.6572 17.495 17.6514 17.5003 17.6459C17.503 17.6431 17.5056 17.6405 17.5082 17.6375C17.5133 17.6318 17.5185 17.6263 17.5237 17.6202C17.5609 17.576 17.5932 17.5273 17.6198 17.4749C17.8478 17.0282 18.0868 16.5881 18.3366 16.1552L18.3708 16.0961L18.4054 16.037C18.4227 16.007 18.4402 15.9775 18.4575 15.9481L18.475 15.9187C18.533 15.8208 18.592 15.7235 18.652 15.627L18.6876 15.5698C18.7589 15.4559 18.83 15.3452 18.9005 15.24L18.9355 15.1879C19.0122 15.0741 19.092 14.9626 19.1749 14.8539L19.2077 14.8115C19.2132 14.8045 19.2182 14.7974 19.2242 14.7907C19.235 14.7768 19.2458 14.7634 19.2564 14.7504C19.2618 14.7437 19.2668 14.7372 19.2725 14.7307L19.3038 14.6927L19.3194 14.6743C19.3351 14.6561 19.3505 14.6386 19.3656 14.622C19.3761 14.6107 19.3858 14.5995 19.3958 14.5889C19.4549 14.5239 19.52 14.4655 19.5903 14.415L19.6066 14.4037C19.6222 14.3924 19.6384 14.3818 19.655 14.3723C19.9305 14.2038 20.1585 14.1914 20.2898 14.3329C20.3693 14.4185 20.4134 14.5604 20.4109 14.758C20.4109 14.7667 20.4109 14.7755 20.4103 14.7845V14.7942C20.4103 14.8032 20.4096 14.8122 20.4089 14.8214C20.4089 14.8327 20.4078 14.8439 20.4067 14.8552C20.4057 14.8663 20.4051 14.8749 20.404 14.8849C20.404 14.8877 20.4036 14.8906 20.4031 14.8936C20.4024 14.9022 20.4014 14.9112 20.4002 14.9201C20.4002 14.9227 20.4002 14.9255 20.3993 14.9282C20.398 14.9401 20.3963 14.9519 20.3945 14.9637C20.3932 14.975 20.3915 14.9856 20.3896 14.9966L20.3866 15.0153C20.3835 15.0332 20.3797 15.0507 20.3749 15.0681C20.3658 15.1006 20.3549 15.1323 20.3419 15.1632C20.3239 15.2056 20.3039 15.2469 20.282 15.2871C20.2699 15.3094 20.2574 15.3314 20.2445 15.3531C20.2312 15.3756 20.2172 15.3983 20.2028 15.4213C20.166 15.478 20.1277 15.5336 20.088 15.588L20.0698 15.6127C20.005 15.6997 19.9382 15.7849 19.8692 15.8681L19.8474 15.8945C19.818 15.9298 19.7882 15.9653 19.7576 16.0009L19.7347 16.0278C19.7194 16.0457 19.7035 16.0637 19.6881 16.0818C19.6728 16.0997 19.6568 16.1179 19.6408 16.1361L19.5929 16.1905L19.5443 16.2452L19.4953 16.2999C19.4625 16.3366 19.4295 16.3732 19.3963 16.4099C18.9238 16.9319 18.4259 17.4522 18.2574 17.7766C18.2461 17.7977 18.236 17.8195 18.2269 17.8417C18.2029 17.9007 18.1929 17.9512 18.1998 17.992C18.202 18.0054 18.2063 18.0182 18.2127 18.03C18.2221 18.0477 18.2337 18.064 18.2471 18.0786C18.2532 18.0851 18.2598 18.0911 18.2666 18.0967C18.3014 18.1233 18.3432 18.1369 18.3859 18.1357H18.3991L18.4128 18.1346L18.4264 18.1329L18.4377 18.1312C18.4392 18.1309 18.4409 18.1307 18.4424 18.1302L18.4527 18.128L18.4554 18.1274L18.467 18.1248L18.471 18.1236C18.4751 18.1225 18.4791 18.1214 18.4832 18.1201C18.4872 18.1189 18.4928 18.1172 18.4977 18.1155C18.5182 18.1088 18.5383 18.1009 18.558 18.0919C18.5683 18.0874 18.5785 18.0825 18.5885 18.0772C18.5937 18.0747 18.599 18.0721 18.6039 18.0693L18.6195 18.061C18.6568 18.0402 18.6931 18.0175 18.7286 17.9931L18.7441 17.9818C18.7493 17.9783 18.7546 17.9746 18.7596 17.9706L18.7751 17.9595L18.7833 17.9533L18.8057 17.9364C18.8266 17.9209 18.846 17.905 18.8657 17.8888L18.8675 17.8873L18.8988 17.8612C18.9416 17.8248 18.9821 17.7881 19.019 17.7536L19.0434 17.7305L19.0456 17.7282L19.0585 17.7161C19.0885 17.687 19.1153 17.6598 19.1376 17.6375L19.1468 17.6278C19.1548 17.6197 19.1622 17.612 19.1688 17.6055L19.1819 17.5916L19.1865 17.5867L19.1878 17.5853L19.2014 17.5706L19.2101 17.5609L19.2111 17.56L19.2152 17.556L19.2203 17.551L19.222 17.5494L19.2263 17.5451L19.25 17.5226L19.2633 17.5098C19.2704 17.5032 19.2773 17.4964 19.2842 17.4895L19.3 17.4743C19.3029 17.4718 19.3057 17.469 19.3087 17.4663L19.3253 17.4506L19.3498 17.4274L19.3628 17.4152C19.4135 17.3677 19.4752 17.3104 19.546 17.2457L19.575 17.2193L19.6229 17.176L19.672 17.1319C19.7361 17.0745 19.8051 17.0136 19.878 16.9505L19.9259 16.9091C19.9667 16.8741 20.0085 16.8384 20.051 16.8025C20.0681 16.7881 20.0854 16.7737 20.1032 16.7593C20.1465 16.7231 20.1901 16.687 20.234 16.6515C20.334 16.5702 20.4371 16.4887 20.5415 16.4094L20.5863 16.3757C20.6176 16.3525 20.6489 16.3292 20.6801 16.3065L20.7084 16.2859C20.7642 16.2451 20.8209 16.2053 20.878 16.1665L20.9063 16.1473L20.9344 16.1285C20.9626 16.1096 20.9905 16.0912 21.0184 16.0732L21.0462 16.0553L21.1019 16.0204L21.1566 15.9866L21.1677 15.9801L21.2109 15.9545C21.229 15.9439 21.2469 15.9338 21.2648 15.9239L21.2915 15.9091L21.3175 15.895C21.3266 15.8904 21.3356 15.8855 21.3444 15.8808C21.4029 15.8497 21.4626 15.8211 21.5232 15.795C21.5396 15.7874 21.5559 15.7806 21.5721 15.7747L21.6199 15.7567C21.6342 15.7515 21.6482 15.7466 21.6616 15.7422L21.6663 15.7407C21.6735 15.7382 21.6807 15.736 21.6878 15.734L21.6899 15.7333C21.7049 15.7287 21.7197 15.7247 21.7342 15.7209H21.7353C21.7765 15.7102 21.8185 15.7026 21.8608 15.6979C21.8802 15.6958 21.8997 15.6947 21.9193 15.6948H21.9291C21.9421 15.6948 21.9547 15.6957 21.9672 15.697C21.9729 15.697 21.9786 15.6983 21.9842 15.6991H21.9865C21.9921 15.6998 21.9977 15.7007 22.0033 15.7021C22.0088 15.7032 22.0144 15.7042 22.0197 15.7056H22.0215C22.027 15.7068 22.0318 15.7083 22.0376 15.7101C22.0672 15.719 22.0954 15.7328 22.1212 15.7509C22.1339 15.7598 22.1458 15.7698 22.1568 15.781L22.1599 15.7843C22.162 15.7863 22.164 15.7884 22.1659 15.7906L22.1716 15.7972C22.2184 15.8501 22.2571 15.9107 22.2862 15.9767L22.2907 15.988C22.3006 16.0131 22.3084 16.0391 22.314 16.0656C22.3305 16.1467 22.3241 16.2313 22.2956 16.3085C22.2847 16.3396 22.2715 16.3696 22.256 16.3982C22.2198 16.464 22.1768 16.5251 22.128 16.5805L22.1176 16.5924C22.1021 16.61 22.086 16.6275 22.0691 16.6451C22.0617 16.653 22.0539 16.6608 22.0461 16.6687L22.0222 16.6924L22.0097 16.7044C21.9796 16.7332 21.9488 16.7612 21.9174 16.7883C21.8984 16.8049 21.8793 16.8211 21.86 16.837C21.7917 16.8933 21.7221 16.9475 21.6513 16.9998C21.6085 17.0315 21.5654 17.0625 21.5219 17.0931C21.4148 17.1688 21.3066 17.2426 21.1973 17.3144C20.9679 17.4663 20.7138 17.6287 20.4428 17.8053L20.3727 17.8511C20.2959 17.9016 20.2234 17.9498 20.1551 17.9957L20.1208 18.019L20.0557 18.0639C20.0126 18.0936 19.9696 18.1236 19.9266 18.1536L19.892 18.1782C19.8751 18.19 19.8583 18.2021 19.8415 18.2141L19.8251 18.2254L19.7748 18.262L19.7481 18.2817L19.7169 18.305L19.6878 18.3267C19.6393 18.3638 19.594 18.399 19.5524 18.4326L19.5368 18.4454C19.5124 18.4653 19.4881 18.4856 19.4642 18.5064C19.4282 18.5376 19.3954 18.5675 19.3659 18.5962L19.3514 18.6104C19.3431 18.6186 19.335 18.6267 19.3272 18.6348C19.3218 18.6404 19.3168 18.6461 19.3112 18.6515L19.3038 18.6595C19.2871 18.6776 19.2708 18.696 19.2551 18.715L19.2474 18.7245C19.2302 18.7459 19.2153 18.7663 19.2023 18.7863L19.1964 18.7952C19.1862 18.8113 19.1767 18.8278 19.1682 18.8449C19.166 18.8492 19.164 18.8534 19.1621 18.8577L19.1564 18.8705L19.1525 18.8798L19.1501 18.8861L19.1481 18.8917L19.1454 18.8994C19.1382 18.9206 19.1332 18.9427 19.1302 18.965L19.1293 18.9728L19.1286 18.9801V19.0196C19.1286 19.0229 19.1286 19.0261 19.1294 19.0297L19.13 19.0357C19.13 19.0389 19.1307 19.0421 19.1312 19.0456C19.1316 19.0489 19.1325 19.0548 19.1334 19.0594V19.06C19.1342 19.0644 19.135 19.0687 19.1361 19.0731C19.1371 19.0775 19.1382 19.0825 19.1395 19.087C19.1417 19.0959 19.1445 19.1047 19.1474 19.1135C19.1492 19.1188 19.151 19.1239 19.153 19.1291C19.153 19.1301 19.1537 19.1312 19.1541 19.1322L19.1583 19.1424L19.1642 19.1563C19.1705 19.1707 19.1773 19.1848 19.1848 19.1985L19.1925 19.2128L19.2004 19.2271C19.2018 19.2295 19.2034 19.2318 19.2052 19.2339L19.2077 19.2368L19.2107 19.2397L19.2137 19.2422C19.2181 19.2456 19.2229 19.2482 19.2279 19.2501C19.2306 19.2511 19.2334 19.2518 19.2362 19.2526C19.3034 19.2689 19.4416 19.209 19.6253 19.1046C19.6356 19.0986 19.6471 19.0923 19.6581 19.0858L19.7141 19.0529L19.7413 19.0366C19.7608 19.0254 19.7806 19.0127 19.8009 19.0003L19.8378 18.9778C20.0806 18.8273 20.3705 18.634 20.6702 18.4452C20.6983 18.4275 20.7265 18.4098 20.7547 18.3924L20.8113 18.3533C20.877 18.3128 20.9431 18.2728 21.0094 18.2332C21.093 18.1838 21.1771 18.1356 21.262 18.0889L21.3175 18.0586C21.3543 18.039 21.3908 18.02 21.4268 18.0014C21.4965 17.9657 21.567 17.9318 21.6383 17.8998L21.6774 17.8828L21.682 17.8808C21.8889 17.7925 22.0764 17.738 22.2281 17.738C22.2608 17.7377 22.2937 17.7407 22.326 17.7467H22.327C22.3374 17.7487 22.3468 17.751 22.3565 17.7535H22.3582C22.3831 17.7603 22.4072 17.7699 22.43 17.7823C22.4621 17.8002 22.4909 17.8239 22.5152 17.8525C22.5264 17.8658 22.5363 17.8803 22.545 17.8956C22.5614 17.9226 22.5742 17.9518 22.5834 17.9824C22.5871 17.9944 22.5904 18.006 22.5938 18.0185C22.6183 18.1135 22.6159 18.2143 22.5868 18.3078Z" fill="#FF9D00"/>
<path fill-rule="evenodd" clip-rule="evenodd" d="M21.212 11.4903V11.4286C21.212 6.17504 17.2596 1.9162 12.382 1.9162C7.50452 1.9162 3.55053 6.17529 3.55053 11.4286V11.4492C3.5503 11.4629 3.55018 11.4766 3.55053 11.4903C3.5511 11.5107 3.5513 11.5312 3.55111 11.5517L3.55171 11.5968L3.55205 11.613C3.55205 11.6206 3.55229 11.628 3.55252 11.6355C3.55287 11.6474 3.55309 11.6595 3.55309 11.6714L3.55438 11.7202L3.55624 11.7776L3.55682 11.7964L3.55915 11.8558V11.8587C3.56009 11.8819 3.56126 11.905 3.56231 11.9281L3.56242 11.9299C3.56358 11.9535 3.56476 11.9772 3.56616 12.0009C3.56732 12.0227 3.56848 12.0446 3.56999 12.0664L3.57024 12.0703C3.57125 12.089 3.57242 12.1078 3.57372 12.1266L3.57407 12.1316L3.57792 12.1858L3.57828 12.1893C3.57898 12.1999 3.57966 12.2104 3.5806 12.2206C3.58756 12.3111 3.59569 12.4016 3.60496 12.4918L3.60553 12.4975L3.61264 12.5639L3.62058 12.6335L3.62639 12.6809L3.62907 12.7031C3.63528 12.7543 3.64201 12.8054 3.64923 12.8563L3.64971 12.8597L3.65657 12.9079C3.68984 13.1375 3.73105 13.3657 3.7801 13.592L3.78069 13.5948L3.78441 13.6117L3.79501 13.6601L3.80154 13.6516C4.0579 13.3215 4.42567 13.1395 4.83714 13.1395C5.16692 13.1395 5.50522 13.257 5.84432 13.4886C6.06922 13.6425 6.3179 13.915 6.5738 14.2578C6.81059 13.9036 7.14246 13.6681 7.52212 13.6038C7.59451 13.5915 7.66767 13.5854 7.74096 13.5852C8.60748 13.5852 9.1294 14.3952 9.32657 15.1239C9.42399 15.37 9.89349 16.4912 10.6015 17.2496C11.6778 18.4078 11.9471 19.6029 11.4144 20.8826H11.4163C11.4525 20.887 11.489 20.891 11.5257 20.8947C11.5475 20.8969 11.5692 20.8992 11.5911 20.9012L11.5988 20.9019L11.6469 20.9063L11.6912 20.9101C11.7334 20.9136 11.7757 20.9169 11.8181 20.9198L11.8518 20.9219L11.8785 20.9236L11.895 20.9247L11.9471 20.9275L11.9613 20.9282L12.016 20.9308L12.0768 20.9333L12.1256 20.9348L12.1338 20.9351C12.1441 20.9356 12.1545 20.936 12.1649 20.936L12.1761 20.9363C12.2448 20.9381 12.3135 20.939 12.3822 20.9388H12.4552L12.5073 20.9382C12.5201 20.9376 12.5328 20.9376 12.5457 20.9376H12.566L12.5836 20.9371C12.5905 20.9368 12.5973 20.9366 12.6043 20.9366H12.6252L12.6661 20.9354L12.7276 20.9332L12.7953 20.9299C12.8149 20.9292 12.8342 20.928 12.8536 20.927L12.8744 20.9257L12.9054 20.9239L12.9236 20.9228L12.9374 20.9218L12.9999 20.9174L13.0624 20.9125L13.1192 20.9076L13.159 20.9039L13.2028 20.8997C13.276 20.8926 13.349 20.8844 13.4219 20.8749L13.4717 20.8685C12.9474 19.5942 13.2188 18.4043 14.2905 17.2507C14.997 16.4903 15.4665 15.3692 15.5644 15.1229C15.7617 14.3944 16.2833 13.5844 17.15 13.5844C17.2233 13.5844 17.2966 13.5906 17.369 13.6029C17.7483 13.6672 18.0802 13.9027 18.3173 14.2569C18.5733 13.9142 18.8219 13.6415 19.0469 13.4876C19.3859 13.2561 19.7245 13.1386 20.054 13.1386C20.4171 13.1386 20.7462 13.2805 20.9947 13.5407C20.9993 13.5195 21.0037 13.4983 21.008 13.4769L21.0207 13.4134C21.0252 13.3902 21.0298 13.367 21.0341 13.3437C21.0418 13.3027 21.0495 13.2616 21.0568 13.2202C21.0645 13.1773 21.0719 13.1341 21.0789 13.0909L21.0825 13.0676C21.0847 13.0538 21.0868 13.04 21.0892 13.026C21.0932 13.0045 21.0964 12.9829 21.0997 12.961L21.101 12.9527L21.1093 12.8959L21.1174 12.8383V12.8378C21.1234 12.7952 21.129 12.7527 21.1342 12.7101L21.1355 12.6996L21.1428 12.6396L21.1488 12.5883L21.1593 12.4874L21.1633 12.4469L21.1644 12.4358C21.1666 12.414 21.1687 12.3922 21.1706 12.3703V12.3686C21.1721 12.3512 21.1737 12.3338 21.1751 12.3163C21.1834 12.2174 21.1904 12.118 21.196 12.0182C21.197 12.0019 21.1978 11.9855 21.1988 11.969V11.9683L21.2018 11.9066L21.2025 11.8928C21.2044 11.8512 21.206 11.8095 21.2073 11.7678V11.7663L21.2078 11.75C21.2084 11.7363 21.2089 11.7225 21.2089 11.7087L21.2091 11.7032C21.2096 11.6902 21.2101 11.6769 21.2101 11.6638L21.2104 11.6525C21.2108 11.6393 21.2111 11.6262 21.2111 11.613L21.2113 11.6019C21.2117 11.5852 21.212 11.5684 21.212 11.5517V11.4903ZM10.1916 20.9931C10.891 19.8883 10.8413 19.0591 9.88184 18.0261C8.92211 16.9929 8.36357 15.4821 8.36357 15.4821C8.36357 15.4821 8.15511 14.6046 7.67967 14.6852C7.20422 14.7658 6.85545 16.0771 7.85096 16.8798C8.84636 17.6825 7.65286 18.2268 7.26971 17.4735C6.88656 16.7202 5.84046 14.7837 5.29813 14.4133C4.7558 14.0429 4.3744 14.2505 4.50223 15.0139C4.56574 15.3929 5.15633 16.0397 5.7081 16.644C6.26791 17.257 6.78773 17.8264 6.67656 18.0279C6.45597 18.4279 5.67908 17.5578 5.67908 17.5578C5.67908 17.5578 3.24639 15.1731 2.71688 15.7946C2.22862 16.3673 2.98152 16.8542 4.1417 17.6047C4.24028 17.6685 4.3419 17.7343 4.44596 17.802C5.77335 18.6676 5.87659 18.896 5.68816 19.2235C5.61859 19.3445 5.17426 19.0571 4.62773 18.7038C3.69608 18.1012 2.46763 17.3067 2.29412 18.0178C2.14403 18.6332 3.04782 19.0103 3.86749 19.3524C4.55036 19.6373 5.17497 19.8979 5.08303 20.2516C4.98782 20.6184 4.47171 20.3125 3.90759 19.9781C3.27425 19.6027 2.58031 19.1914 2.3532 19.6555C1.92402 20.5329 5.31422 21.5658 5.34219 21.5735C6.43757 21.8795 9.21936 22.5279 10.1916 20.9931ZM14.6972 20.9931C13.9978 19.8883 14.0474 19.0591 15.0071 18.0261C15.9667 16.9929 16.5252 15.4821 16.5252 15.4821C16.5252 15.4821 16.7337 14.6046 17.2091 14.6852C17.6846 14.7658 18.0333 16.0771 17.0379 16.8798C16.0424 17.6825 17.2359 18.2268 17.6191 17.4735C18.0023 16.7202 19.0477 14.7837 19.5901 14.4133C20.1324 14.0429 20.514 14.2505 20.3861 15.0139C20.3227 15.3929 19.732 16.0397 19.1802 16.6441C18.6204 17.2571 18.1006 17.8264 18.2116 18.0279C18.4322 18.4279 19.2097 17.5573 19.2097 17.5573C19.2097 17.5573 21.6423 15.1727 22.172 15.7942C22.6602 16.3668 21.9073 16.8538 20.747 17.6043C20.6455 17.67 20.5441 17.7358 20.4428 17.8017C19.1154 18.6673 19.0122 18.8956 19.2005 19.2229C19.2702 19.3441 19.7145 19.0566 20.2609 18.7033C21.1927 18.1008 22.4212 17.3062 22.5947 18.0174C22.7449 18.6329 21.841 19.0099 21.0213 19.352C20.3384 19.6369 19.7138 19.8975 19.8056 20.2512C19.9007 20.6179 20.4167 20.312 20.9807 19.9776C21.6141 19.6022 22.3081 19.1907 22.5351 19.6551C22.9644 20.533 19.5736 21.5649 19.5462 21.5725C18.4509 21.8795 15.6691 22.5279 14.6972 20.9931Z" fill="#FFD21E"/>
<path fill-rule="evenodd" clip-rule="evenodd" d="M15.25 8.8395C15.3877 8.89197 15.4902 9.05164 15.5876 9.20364C15.7193 9.409 15.8419 9.60017 16.0299 9.49247C16.2518 9.36532 16.4337 9.17025 16.5526 8.93176C16.6716 8.69327 16.7223 8.42223 16.6982 8.15277C16.6803 7.95128 16.6211 7.7566 16.5248 7.58275C16.4286 7.40889 16.2977 7.26018 16.1418 7.14736C15.9858 7.03454 15.8084 6.96041 15.6227 6.9303C15.4368 6.90019 15.2471 6.91486 15.0672 6.97324C14.8873 7.03159 14.7217 7.13219 14.5822 7.26778C14.4427 7.40337 14.3328 7.57057 14.2606 7.75738C14.1883 7.94418 14.1553 8.14593 14.1641 8.34808C14.1729 8.5503 14.2231 8.74775 14.3114 8.92649C14.3985 9.1031 14.592 9.01975 14.7961 8.93176C14.9561 8.86285 15.1229 8.79105 15.25 8.8395ZM9.26328 8.8395C9.12555 8.89197 9.02312 9.05176 8.9257 9.20364C8.79402 9.40912 8.67131 9.60017 8.48335 9.49247C8.20432 9.33331 7.99033 9.06783 7.88308 8.748C7.77584 8.4281 7.78303 8.07666 7.90324 7.76216C8.02345 7.44766 8.24809 7.19267 8.53334 7.04686C8.81861 6.90105 9.14405 6.87491 9.44624 6.97349C9.68687 7.05154 9.90059 7.20466 10.0605 7.41351C10.2203 7.62236 10.319 7.87756 10.3443 8.14687C10.3695 8.41618 10.32 8.6875 10.202 8.92649C10.1148 9.1031 9.92133 9.01975 9.71717 8.93189C9.55706 8.86285 9.39053 8.79105 9.26328 8.8395ZM14.3238 14.7078C15.2727 13.9026 15.6213 12.5878 15.6213 11.778C15.6213 11.1378 15.2215 11.3393 14.5814 11.6807L14.5452 11.6999C13.9577 12.0133 13.1755 12.4307 12.317 12.4307C11.4582 12.4307 10.6761 12.0133 10.0887 11.6998C9.42782 11.3472 9.01333 11.126 9.01333 11.7781C9.01333 12.6136 9.38413 13.9854 10.4019 14.7824C10.5363 14.4888 10.7254 14.2282 10.9575 14.0168C11.1895 13.8054 11.4596 13.6479 11.7507 13.554C11.8523 13.5214 11.957 13.7098 12.0641 13.9027C12.1674 14.0887 12.2731 14.279 12.3806 14.279C12.4951 14.279 12.6076 14.0915 12.7175 13.9085C12.8322 13.717 12.9442 13.5306 13.0525 13.5679C13.5973 13.7563 14.053 14.1649 14.3238 14.7078Z" fill="#32343D"/>
<path d="M14.3236 14.7077C13.8294 15.1272 13.1725 15.4085 12.3171 15.4085C11.5134 15.4085 10.8848 15.1602 10.4019 14.7822C10.5363 14.4886 10.7254 14.2279 10.9575 14.0167C11.1895 13.8053 11.4597 13.6478 11.7508 13.5539C11.9502 13.4897 12.1618 14.2789 12.3806 14.2789C12.6148 14.2789 12.8405 13.4949 13.0525 13.5678C13.5972 13.7563 14.0528 14.1649 14.3236 14.7077Z" fill="#FF323D"/>
<path fill-rule="evenodd" clip-rule="evenodd" d="M6.99423 9.9784C6.88133 10.0597 6.75153 10.1098 6.61635 10.1241C6.48116 10.1386 6.34477 10.1167 6.2193 10.0606C6.11901 10.0161 6.02787 9.95053 5.95115 9.86781C5.87441 9.78522 5.81359 9.68706 5.77218 9.57899C5.72021 9.4438 5.69999 9.29694 5.71335 9.15133C5.72671 9.00573 5.77322 8.86589 5.84874 8.74426C5.93949 8.5979 6.06849 8.48384 6.21944 8.41649C6.3704 8.34913 6.5365 8.33151 6.69674 8.36588C6.85699 8.40023 7.00417 8.48502 7.11966 8.60945C7.23515 8.73397 7.31378 8.89263 7.34557 9.06522C7.37741 9.23782 7.36103 9.41669 7.29852 9.57924C7.23601 9.74179 7.13003 9.88062 6.99423 9.9784ZM18.8119 9.9784C18.699 10.0597 18.5691 10.1098 18.434 10.1241C18.2987 10.1386 18.1623 10.1167 18.0368 10.0606C17.9365 10.0159 17.8454 9.95053 17.7687 9.86781C17.692 9.78522 17.6312 9.68706 17.5897 9.57899C17.5379 9.4438 17.5177 9.29694 17.531 9.15133C17.5444 9.00573 17.5909 8.86589 17.6663 8.74426C17.7341 8.63481 17.8237 8.54305 17.9285 8.47537C18.0332 8.40773 18.1506 8.36596 18.2721 8.3531C18.3938 8.34022 18.5165 8.35656 18.6314 8.40093C18.7464 8.44532 18.8508 8.51662 18.9371 8.6097C19.0527 8.7341 19.1314 8.89263 19.1632 9.06522C19.1951 9.23782 19.1787 9.41669 19.1161 9.57924C19.0536 9.74179 18.9478 9.88062 18.8119 9.9784Z" fill="#FFAD03"/>
</svg>
