<svg width="314" height="148" viewBox="0 0 314 148" fill="none" xmlns="http://www.w3.org/2000/svg">
<g opacity="0.2">
<path d="M127.126 8.53837H20.8713C14.06 8.53837 8.53839 14.06 8.53839 20.8713V127.126C8.53839 133.938 14.06 139.459 20.8713 139.459H127.126C133.938 139.459 139.459 133.938 139.459 127.126V20.8713C139.459 14.06 133.938 8.53837 127.126 8.53837Z" fill="url(#paint0_linear_7_627)"/>
<path d="M127.126 8.53837H20.8713C14.06 8.53837 8.53839 14.06 8.53839 20.8713V127.126C8.53839 133.938 14.06 139.459 20.8713 139.459H127.126C133.938 139.459 139.459 133.938 139.459 127.126V20.8713C139.459 14.06 133.938 8.53837 127.126 8.53837Z" stroke="#B0AEF9" stroke-width="2.417"/>
<path d="M127.126 8.53837H20.8713C14.06 8.53837 8.53839 14.06 8.53839 20.8713V127.126C8.53839 133.938 14.06 139.459 20.8713 139.459H127.126C133.938 139.459 139.459 133.938 139.459 127.126V20.8713C139.459 14.06 133.938 8.53837 127.126 8.53837Z" stroke="black" stroke-opacity="0.2" stroke-width="2.417"/>
</g>
<path opacity="0.5" d="M74 148C114.869 148 148 114.869 148 74C148 33.1309 114.869 0 74 0C33.1309 0 0 33.1309 0 74C0 114.869 33.1309 148 74 148Z" fill="url(#paint1_radial_7_627)"/>
<path opacity="0.4" d="M127.129 12.3353H20.8737C16.1581 12.3353 12.3353 16.1581 12.3353 20.8737V127.129C12.3353 131.844 16.1581 135.667 20.8737 135.667H127.129C131.844 135.667 135.667 131.844 135.667 127.129V20.8737C135.667 16.1581 131.844 12.3353 127.129 12.3353Z" stroke="url(#paint2_linear_7_627)" stroke-width="0.806"/>
<path d="M127.129 4.74381H20.8713C11.9643 4.74381 4.74376 11.9643 4.74376 20.8713V127.129C4.74376 136.036 11.9643 143.256 20.8713 143.256H127.129C136.036 143.256 143.256 136.036 143.256 127.129V20.8713C143.256 11.9643 136.036 4.74381 127.129 4.74381Z" stroke="url(#paint3_linear_7_627)" stroke-width="0.806"/>
<path fill-rule="evenodd" clip-rule="evenodd" d="M67.8543 89.4933L67.8558 104H71.952V89.4936L67.8543 89.4933ZM35.625 89.4739V104H39.7584V92.9698L42.9605 92.9709C44.0212 92.9709 44.7765 93.2349 45.2876 93.7801C45.936 94.4707 46.2003 95.5841 46.2003 97.6213V104H50.205V95.9743C50.205 90.2462 46.5537 89.4735 42.9815 89.4735L35.625 89.4739ZM74.4508 89.4936V104H81.0961C84.6366 104 85.7918 103.411 87.0416 102.091C87.9252 101.164 88.496 99.1296 88.496 96.9063C88.496 94.8675 88.0128 93.0481 87.1699 91.9153C85.6519 89.8897 83.4651 89.4936 80.2009 89.4936H74.4508ZM78.5148 92.652H80.2765C82.8319 92.652 84.4851 93.7999 84.4851 96.7776C84.4851 99.7562 82.8319 100.904 80.2765 100.904H78.5148V92.652ZM61.9471 89.4936L58.528 100.991L55.2514 89.4944L50.8289 89.4936L55.508 104H61.4131L66.129 89.4936H61.9475H61.9471ZM90.4023 104H94.5V89.4948L90.4015 89.4936L90.4023 104ZM101.887 89.4987L96.1664 103.995H100.206L101.112 101.433H107.882L108.738 103.995H113.125L107.36 89.4975L101.887 89.4987ZM104.547 92.1436L107.029 98.9346H101.987L104.547 92.1436Z" fill="white"/>
<path fill-rule="evenodd" clip-rule="evenodd" d="M62.4376 55.5127V52.0277C62.78 52.0034 63.1227 51.9858 63.4657 51.975C72.9974 51.6754 79.251 60.165 79.251 60.165C79.251 60.165 72.4971 69.5455 65.2553 69.5455C64.2121 69.5455 63.2789 69.3777 62.4376 69.0952V58.5273C66.1482 58.9753 66.8942 60.6145 69.1256 64.3333L74.0871 60.1499C74.0871 60.1499 70.4657 55.3996 64.3602 55.3996C63.6955 55.3996 63.0608 55.4461 62.4376 55.5127ZM62.4376 44.0004V49.2061C62.7794 49.1789 63.122 49.1572 63.4657 49.1448C76.7212 48.6984 85.3569 60.0158 85.3569 60.0158C85.3569 60.0158 75.4373 72.0773 65.1038 72.0773C64.1571 72.0773 63.2708 71.9901 62.4376 71.8424V75.0601C63.1499 75.1508 63.8878 75.2043 64.6582 75.2043C74.2747 75.2043 81.2289 70.2935 87.9634 64.4809C89.0791 65.375 93.6504 67.5498 94.5902 68.5027C88.187 73.863 73.2652 78.1832 64.8058 78.1832C64.0149 78.1802 63.2246 78.1391 62.4376 78.06V82.5824H98.9878V44H62.438L62.4376 44.0004ZM62.4376 69.0952V71.8424C53.543 70.2563 51.0745 61.0114 51.0745 61.0114C51.0745 61.0114 55.3451 56.2796 62.4376 55.5127V58.5273C62.4322 58.5273 62.4283 58.5258 62.4237 58.5258C58.7018 58.0786 55.7938 61.5562 55.7938 61.5562C55.7938 61.5562 57.423 67.4103 62.4376 69.0952ZM46.6404 60.6103C46.6404 60.6103 51.9115 52.8318 62.4376 52.0277V49.2061C50.7792 50.1416 40.6833 60.0154 40.6833 60.0154C40.6833 60.0154 46.4005 76.5467 62.4376 78.06L62.438 75.0605C50.6695 73.5793 46.6404 60.6103 46.6404 60.6103Z" fill="#76B900"/>
<g opacity="0.2">
<path d="M293.126 8.53837H186.871C180.06 8.53837 174.538 14.06 174.538 20.8713V127.126C174.538 133.938 180.06 139.459 186.871 139.459H293.126C299.938 139.459 305.459 133.938 305.459 127.126V20.8713C305.459 14.06 299.938 8.53837 293.126 8.53837Z" fill="url(#paint4_linear_7_627)"/>
<path d="M293.126 8.53837H186.871C180.06 8.53837 174.538 14.06 174.538 20.8713V127.126C174.538 133.938 180.06 139.459 186.871 139.459H293.126C299.938 139.459 305.459 133.938 305.459 127.126V20.8713C305.459 14.06 299.938 8.53837 293.126 8.53837Z" stroke="#B0AEF9" stroke-width="2.417"/>
<path d="M293.126 8.53837H186.871C180.06 8.53837 174.538 14.06 174.538 20.8713V127.126C174.538 133.938 180.06 139.459 186.871 139.459H293.126C299.938 139.459 305.459 133.938 305.459 127.126V20.8713C305.459 14.06 299.938 8.53837 293.126 8.53837Z" stroke="black" stroke-opacity="0.2" stroke-width="2.417"/>
</g>
<path opacity="0.5" d="M240 148C280.869 148 314 114.869 314 74C314 33.1309 280.869 0 240 0C199.131 0 166 33.1309 166 74C166 114.869 199.131 148 240 148Z" fill="url(#paint5_radial_7_627)"/>
<path opacity="0.4" d="M293.129 12.3353H186.874C182.158 12.3353 178.335 16.1581 178.335 20.8737V127.129C178.335 131.844 182.158 135.667 186.874 135.667H293.129C297.844 135.667 301.667 131.844 301.667 127.129V20.8737C301.667 16.1581 297.844 12.3353 293.129 12.3353Z" stroke="url(#paint6_linear_7_627)" stroke-width="0.806"/>
<path d="M293.129 4.74381H186.871C177.964 4.74381 170.744 11.9643 170.744 20.8713V127.129C170.744 136.036 177.964 143.256 186.871 143.256H293.129C302.036 143.256 309.256 136.036 309.256 127.129V20.8713C309.256 11.9643 302.036 4.74381 293.129 4.74381Z" stroke="url(#paint7_linear_7_627)" stroke-width="0.806"/>
<path d="M266.128 81.2535V76.507L269.422 73.2157L272.717 69.9244V74.5896V79.2549H277.46H282.204L278.834 82.6275L275.464 86H270.796H266.128V81.2535ZM286.872 82.3515L283.697 79.1737V73.8025V68.4314H278.323H272.949L269.736 65.2157L266.523 62H278.326H290.128V73.7647C290.128 80.2353 290.11 85.5294 290.088 85.5294C290.065 85.5294 288.618 84.0994 286.872 82.3515ZM189.02 84.1606C189.078 84.0076 190.967 79.3118 193.217 73.7255L197.308 63.5686H200.311H203.315L207.898 73.8824C210.419 79.5549 212.481 84.249 212.481 84.3137C212.481 84.3784 211.264 84.4304 209.775 84.4292L207.069 84.427L206.204 82.3507L205.339 80.2745L200.622 80.233L195.905 80.1916L195.131 82.2722L194.358 84.3529L191.636 84.3959C189.086 84.4362 188.922 84.4215 189.02 84.1606ZM203.65 76.2353C201.97 72.1136 200.468 68.5882 200.392 68.5882C200.32 68.5882 198.48 73.3305 197.304 76.549C197.248 76.702 197.961 76.7451 200.545 76.7451H203.858L203.65 76.2353ZM215.148 74V63.5686H217.389H219.629L222.734 67.1633C224.442 69.1403 225.968 70.8744 226.125 71.0168C226.397 71.2627 226.579 71.0813 229.743 67.4222L233.075 63.5686H235.327H237.579V74V84.4314H234.993H232.406L232.365 77.9037L232.324 71.3759L229.533 74.6095C227.153 77.3675 226.68 77.8416 226.318 77.8329C225.964 77.8245 225.435 77.2871 223.153 74.6173C221.646 72.8542 220.358 71.4118 220.29 71.4118C220.223 71.4118 220.168 74.3412 220.168 77.9216V84.4314H217.658H215.148V74ZM241.658 74V63.5686L247.109 63.5707C251.894 63.5725 252.742 63.6101 254.05 63.8787C259.01 64.8969 262.104 68.4495 262.327 73.3807C262.568 78.7482 259.962 82.4477 254.991 83.792C253.128 84.2957 251.322 84.4287 246.324 84.4301L241.658 84.4314V74ZM252.311 80.4249C255.054 79.7783 256.572 78.0427 257.041 75.0161C257.342 73.0759 256.783 70.8381 255.636 69.3983C255.385 69.0822 254.801 68.5971 254.34 68.3204C253.037 67.5388 251.974 67.3333 249.233 67.3333H246.834V74V80.6667L249.069 80.6643C250.508 80.6628 251.663 80.5775 252.311 80.4249Z" fill="white"/>
<defs>
<linearGradient id="paint0_linear_7_627" x1="70.5328" y1="173.912" x2="70.5328" y2="60.5435" gradientUnits="userSpaceOnUse">
<stop offset="0.182" stop-color="#AD7AFF"/>
<stop offset="1" stop-color="#17141E" stop-opacity="0"/>
</linearGradient>
<radialGradient id="paint1_radial_7_627" cx="0" cy="0" r="1" gradientUnits="userSpaceOnUse" gradientTransform="translate(74 74) rotate(90) scale(68.307 68.307)">
<stop offset="0.161" stop-color="#6646EB" stop-opacity="0.54"/>
<stop offset="1" stop-color="#040D15" stop-opacity="0"/>
</radialGradient>
<linearGradient id="paint2_linear_7_627" x1="9.48762" y1="31.6144" x2="129.637" y2="134.798" gradientUnits="userSpaceOnUse">
<stop stop-color="#1D0062" stop-opacity="0"/>
<stop offset="1" stop-color="#070317"/>
</linearGradient>
<linearGradient id="paint3_linear_7_627" x1="73.9999" y1="5.69305" x2="73.9999" y2="142.307" gradientUnits="userSpaceOnUse">
<stop stop-color="#DECFFF" stop-opacity="0.36"/>
<stop offset="1" stop-color="white" stop-opacity="0.15"/>
</linearGradient>
<linearGradient id="paint4_linear_7_627" x1="236.533" y1="173.912" x2="236.533" y2="60.5435" gradientUnits="userSpaceOnUse">
<stop offset="0.182" stop-color="#AD7AFF"/>
<stop offset="1" stop-color="#17141E" stop-opacity="0"/>
</linearGradient>
<radialGradient id="paint5_radial_7_627" cx="0" cy="0" r="1" gradientUnits="userSpaceOnUse" gradientTransform="translate(240 74) rotate(90) scale(68.307 68.307)">
<stop offset="0.161" stop-color="#6646EB" stop-opacity="0.54"/>
<stop offset="1" stop-color="#040D15" stop-opacity="0"/>
</radialGradient>
<linearGradient id="paint6_linear_7_627" x1="175.488" y1="31.6144" x2="295.637" y2="134.798" gradientUnits="userSpaceOnUse">
<stop stop-color="#1D0062" stop-opacity="0"/>
<stop offset="1" stop-color="#070317"/>
</linearGradient>
<linearGradient id="paint7_linear_7_627" x1="240" y1="5.69305" x2="240" y2="142.307" gradientUnits="userSpaceOnUse">
<stop stop-color="#DECFFF" stop-opacity="0.36"/>
<stop offset="1" stop-color="white" stop-opacity="0.15"/>
</linearGradient>
</defs>
</svg>
