<svg width="370" height="112" viewBox="0 0 370 112" fill="none" xmlns="http://www.w3.org/2000/svg">
<g opacity="0.2">
<path d="M95.5472 6.41737H15.6867C10.5674 6.41737 6.41739 10.5674 6.41739 15.6867V95.5472C6.41739 100.666 10.5674 104.817 15.6867 104.817H95.5472C100.667 104.817 104.817 100.666 104.817 95.5472V15.6867C104.817 10.5674 100.667 6.41737 95.5472 6.41737Z" fill="url(#paint0_linear_12_1118)"/>
<path d="M95.5472 6.41737H15.6867C10.5674 6.41737 6.41739 10.5674 6.41739 15.6867V95.5472C6.41739 100.666 10.5674 104.817 15.6867 104.817H95.5472C100.667 104.817 104.817 100.666 104.817 95.5472V15.6867C104.817 10.5674 100.667 6.41737 95.5472 6.41737Z" stroke="#B0AEF9" stroke-width="2.417"/>
<path d="M95.5472 6.41737H15.6867C10.5674 6.41737 6.41739 10.5674 6.41739 15.6867V95.5472C6.41739 100.666 10.5674 104.817 15.6867 104.817H95.5472C100.667 104.817 104.817 100.666 104.817 95.5472V15.6867C104.817 10.5674 100.667 6.41737 95.5472 6.41737Z" stroke="black" stroke-opacity="0.2" stroke-width="2.417"/>
</g>
<path opacity="0.5" d="M55.6178 111.236C86.3347 111.236 111.236 86.3347 111.236 55.6178C111.236 24.901 86.3347 0 55.6178 0C24.9009 0 0 24.901 0 55.6178C0 86.3347 24.9009 111.236 55.6178 111.236Z" fill="url(#paint1_radial_12_1118)"/>
<path opacity="0.4" d="M95.5489 9.27114H15.6885C12.1443 9.27114 9.27112 12.1443 9.27112 15.6885V95.5489C9.27112 99.0932 12.1443 101.966 15.6885 101.966H95.5489C99.0932 101.966 101.966 99.0932 101.966 95.5489V15.6885C101.966 12.1443 99.0932 9.27114 95.5489 9.27114Z" stroke="url(#paint2_linear_12_1118)" stroke-width="0.806"/>
<path d="M95.5489 3.56541H15.6867C8.99227 3.56541 3.56537 8.99231 3.56537 15.6867V95.549C3.56537 102.243 8.99227 107.67 15.6867 107.67H95.5489C102.243 107.67 107.67 102.243 107.67 95.549V15.6867C107.67 8.99231 102.243 3.56541 95.5489 3.56541Z" stroke="url(#paint3_linear_12_1118)" stroke-width="0.806"/>
<path d="M62.4847 46.4747H66.6391V48.1393C67.1613 47.4649 67.8315 46.9213 68.5973 46.551C69.3631 46.1807 70.2036 45.9939 71.0531 46.0051C71.9875 45.9902 72.9088 46.2269 73.7217 46.6907C74.5347 47.1545 75.2096 47.8286 75.6768 48.6432C77.1603 46.509 79.4092 46.0051 80.9767 46.0051C83.1391 46.0051 85.0473 47.0287 86.0669 48.8226C86.405 49.4214 87 50.7431 87 53.3468V64.445H82.8429V54.5418C82.8429 52.5369 82.6306 51.7244 82.4602 51.3419C82.1981 50.6586 81.569 49.7591 80.0855 49.7591C79.6009 49.768 79.1254 49.8921 78.6976 50.1213C78.2698 50.3506 77.902 50.6784 77.6242 51.0781C76.9034 52.1016 76.8196 53.6396 76.8196 55.175V64.445H72.6625V54.5418C72.6625 52.5369 72.4502 51.7244 72.2798 51.3419C72.0177 50.6586 71.3886 49.7591 69.905 49.7591C69.4209 49.7682 68.9458 49.8924 68.5185 50.1216C68.0912 50.3509 67.7238 50.6786 67.4464 51.0781C66.7256 52.1016 66.6391 53.6396 66.6391 55.175V64.445H62.4847V46.4747ZM48.0947 46.4747H52.2518V48.0971C52.7483 47.5094 53.335 47.0053 53.9896 46.604C54.7666 46.1712 55.6476 45.9639 56.5347 46.0051C57.6811 45.9788 58.8122 46.2748 59.8006 46.8599L58.0943 50.6586C57.4673 50.2358 56.7285 50.0125 55.9738 50.0176C55.0826 50.0176 54.1914 50.1442 53.3867 50.9989C52.2413 52.2362 52.2413 53.943 52.2413 55.138V64.445H48.0973L48.0947 46.4747ZM29.2357 55.5232C29.2357 58.6387 31.1859 61.2425 34.1975 61.2425C36.8186 61.2425 39.2432 59.322 39.2432 55.5654C39.2432 51.6373 36.8265 49.7617 34.1975 49.7617C31.1859 49.7617 29.2357 52.3232 29.2357 55.5232ZM38.9889 46.4747H43.1539V64.445H38.9915V62.5667C38.3352 63.3444 37.5156 63.9659 36.5919 64.3865C35.6683 64.8071 34.6634 65.0163 33.6497 64.999C28.1453 64.999 25 60.3904 25 55.4388C25 49.5902 28.9867 46.0051 33.6943 46.0051C34.7158 45.9832 35.7282 46.2036 36.6494 46.6487C37.5706 47.0937 38.3748 47.7507 38.9968 48.5667L38.9889 46.4747Z" fill="#008FBE"/>
<g opacity="0.2">
<path d="M224.547 6.41737H144.687C139.567 6.41737 135.417 10.5674 135.417 15.6867V95.5472C135.417 100.666 139.567 104.817 144.687 104.817H224.547C229.667 104.817 233.817 100.666 233.817 95.5472V15.6867C233.817 10.5674 229.667 6.41737 224.547 6.41737Z" fill="url(#paint4_linear_12_1118)"/>
<path d="M224.547 6.41737H144.687C139.567 6.41737 135.417 10.5674 135.417 15.6867V95.5472C135.417 100.666 139.567 104.817 144.687 104.817H224.547C229.667 104.817 233.817 100.666 233.817 95.5472V15.6867C233.817 10.5674 229.667 6.41737 224.547 6.41737Z" stroke="#B0AEF9" stroke-width="2.417"/>
<path d="M224.547 6.41737H144.687C139.567 6.41737 135.417 10.5674 135.417 15.6867V95.5472C135.417 100.666 139.567 104.817 144.687 104.817H224.547C229.667 104.817 233.817 100.666 233.817 95.5472V15.6867C233.817 10.5674 229.667 6.41737 224.547 6.41737Z" stroke="black" stroke-opacity="0.2" stroke-width="2.417"/>
</g>
<path opacity="0.5" d="M184.618 111.236C215.335 111.236 240.236 86.3347 240.236 55.6178C240.236 24.901 215.335 0 184.618 0C153.901 0 129 24.901 129 55.6178C129 86.3347 153.901 111.236 184.618 111.236Z" fill="url(#paint5_radial_12_1118)"/>
<path opacity="0.4" d="M224.549 9.27114H144.688C141.144 9.27114 138.271 12.1443 138.271 15.6885V95.5489C138.271 99.0932 141.144 101.966 144.688 101.966H224.549C228.093 101.966 230.966 99.0932 230.966 95.5489V15.6885C230.966 12.1443 228.093 9.27114 224.549 9.27114Z" stroke="url(#paint6_linear_12_1118)" stroke-width="0.806"/>
<g clip-path="url(#clip0_12_1118)">
<path d="M175.001 63.9218C174.665 64.7051 174.249 65.4518 173.759 66.1499C173.109 67.0799 172.575 67.7193 172.168 68.0778C171.527 68.659 170.848 68.9593 170.12 68.9787C169.596 68.9787 168.965 68.8334 168.228 68.5234C167.584 68.2446 166.892 68.0932 166.19 68.0778C165.469 68.0907 164.757 68.242 164.094 68.5234C163.346 68.8237 162.745 68.9787 162.279 68.9981C161.58 69.0271 160.881 68.7171 160.183 68.0681C159.736 67.6806 159.183 67.0121 158.513 66.0724C157.763 64.9957 157.168 63.8183 156.747 62.5753C156.252 61.1415 156 59.7562 156 58.4097C156 56.8693 156.33 55.5422 157 54.4281C157.506 53.5545 158.228 52.8243 159.096 52.3065C159.952 51.7911 160.93 51.5135 161.929 51.5025C162.483 51.5025 163.22 51.6769 164.123 52.0159C165.025 52.355 165.607 52.5294 165.86 52.5294C166.054 52.5294 166.694 52.3259 167.791 51.9287C168.826 51.5606 169.7 51.4056 170.411 51.4637C172.352 51.6187 173.808 52.384 174.778 53.7597C173.041 54.8059 172.187 56.2784 172.207 58.1578C172.226 59.6303 172.76 60.8509 173.808 61.8196C174.274 62.2578 174.812 62.6118 175.399 62.8659C175.283 63.234 175.147 63.5828 175.001 63.9218ZM170.557 46.465C170.557 47.6178 170.139 48.6931 169.295 49.6812C168.286 50.8631 167.053 51.5412 165.734 51.4347C165.714 51.2902 165.704 51.1446 165.705 50.9987C165.705 49.8944 166.19 48.7125 167.044 47.7437C167.498 47.2295 168.052 46.814 168.674 46.5231C169.254 46.2256 169.887 46.0477 170.537 46C170.547 46.155 170.557 46.31 170.557 46.465Z" fill="white"/>
<path d="M199.476 68.6396V54.1084H199.379L193.452 68.6396H190.95L185.022 54.1084H184.925V68.6396H181.61V48.1622H185.861L192.144 63.7862H192.258L198.542 48.1622H202.776V68.6396H199.476Z" fill="white"/>
<path d="M210.404 51.6536H210.318L205.016 55.2864V51.9229L210.375 48.1622H214V68.6396H210.404V51.6536Z" fill="white"/>
</g>
<path d="M224.549 3.56541H144.687C137.992 3.56541 132.565 8.99231 132.565 15.6867V95.549C132.565 102.243 137.992 107.67 144.687 107.67H224.549C231.243 107.67 236.67 102.243 236.67 95.549V15.6867C236.67 8.99231 231.243 3.56541 224.549 3.56541Z" stroke="url(#paint7_linear_12_1118)" stroke-width="0.806"/>
<g opacity="0.2">
<path d="M353.547 6.41737H273.687C268.567 6.41737 264.417 10.5674 264.417 15.6867V95.5472C264.417 100.666 268.567 104.817 273.687 104.817H353.547C358.667 104.817 362.817 100.666 362.817 95.5472V15.6867C362.817 10.5674 358.667 6.41737 353.547 6.41737Z" fill="url(#paint8_linear_12_1118)"/>
<path d="M353.547 6.41737H273.687C268.567 6.41737 264.417 10.5674 264.417 15.6867V95.5472C264.417 100.666 268.567 104.817 273.687 104.817H353.547C358.667 104.817 362.817 100.666 362.817 95.5472V15.6867C362.817 10.5674 358.667 6.41737 353.547 6.41737Z" stroke="#B0AEF9" stroke-width="2.417"/>
<path d="M353.547 6.41737H273.687C268.567 6.41737 264.417 10.5674 264.417 15.6867V95.5472C264.417 100.666 268.567 104.817 273.687 104.817H353.547C358.667 104.817 362.817 100.666 362.817 95.5472V15.6867C362.817 10.5674 358.667 6.41737 353.547 6.41737Z" stroke="black" stroke-opacity="0.2" stroke-width="2.417"/>
</g>
<path opacity="0.5" d="M313.618 111.236C344.335 111.236 369.236 86.3347 369.236 55.6178C369.236 24.901 344.335 0 313.618 0C282.901 0 258 24.901 258 55.6178C258 86.3347 282.901 111.236 313.618 111.236Z" fill="url(#paint9_radial_12_1118)"/>
<path d="M330.93 66.3636C329.91 66.3571 328.926 66.1862 327.978 65.8506C327.036 65.5151 326.191 64.9699 325.442 64.215C324.694 63.46 324.1 62.4599 323.661 61.2146C323.229 59.9693 323.013 58.4401 323.013 56.627C323.019 54.9623 323.21 53.475 323.584 52.1652C323.965 50.8489 324.507 49.7327 325.21 48.8164C325.92 47.9002 326.768 47.2034 327.755 46.7259C328.743 46.242 329.849 46 331.075 46C332.398 46 333.566 46.2581 334.579 46.7743C335.592 47.284 336.405 47.9776 337.018 48.8552C337.637 49.7327 338.011 50.7167 338.14 51.8071H334.008C333.846 51.1167 333.508 50.5747 332.991 50.1811C332.475 49.7875 331.836 49.5907 331.075 49.5907C329.785 49.5907 328.804 50.1521 328.133 51.2748C327.468 52.3975 327.129 53.9235 327.117 55.8527H327.252C327.549 55.2656 327.949 54.7655 328.452 54.3526C328.962 53.9332 329.539 53.6138 330.185 53.3944C330.836 53.1686 331.524 53.0556 332.246 53.0556C333.42 53.0556 334.466 53.3331 335.382 53.888C336.298 54.4364 337.021 55.1914 337.55 56.1528C338.079 57.1142 338.344 58.2143 338.344 59.4531C338.344 60.7952 338.031 61.9889 337.405 63.0342C336.785 64.0795 335.918 64.8989 334.801 65.4925C333.691 66.0797 332.401 66.37 330.93 66.3636ZM330.911 63.0729C331.556 63.0729 332.133 62.918 332.643 62.6083C333.153 62.2986 333.553 61.8792 333.843 61.3501C334.133 60.821 334.279 60.2274 334.279 59.5693C334.279 58.9111 334.133 58.3207 333.843 57.7981C333.559 57.2755 333.166 56.8593 332.662 56.5496C332.159 56.2399 331.585 56.085 330.94 56.085C330.456 56.085 330.007 56.1753 329.594 56.356C329.188 56.5367 328.83 56.7883 328.52 57.1109C328.217 57.4335 327.978 57.8078 327.804 58.2336C327.63 58.653 327.542 59.1015 327.542 59.579C327.542 60.2177 327.688 60.8017 327.978 61.3308C328.275 61.8599 328.675 62.2825 329.178 62.5987C329.688 62.9148 330.265 63.0729 330.911 63.0729Z" fill="#9CA3AF"/>
<path d="M312.698 66.3636C311.207 66.3636 309.882 66.1216 308.72 65.6377C307.565 65.1473 306.659 64.4795 306 63.6343C305.342 62.789 305.013 61.8308 305.013 60.7597C305.013 59.9338 305.2 59.1757 305.575 58.4853C305.955 57.7884 306.471 57.2109 307.123 56.7528C307.775 56.2883 308.504 55.9915 309.311 55.8624V55.7269C308.252 55.514 307.394 55.001 306.736 54.188C306.078 53.3686 305.749 52.4169 305.749 51.3329C305.749 50.3069 306.049 49.3939 306.649 48.5938C307.249 47.7873 308.072 47.155 309.117 46.6969C310.169 46.2323 311.362 46 312.698 46C314.034 46 315.224 46.2323 316.269 46.6969C317.321 47.1614 318.147 47.797 318.747 48.6035C319.347 49.4036 319.65 50.3134 319.657 51.3329C319.65 52.4233 319.315 53.375 318.65 54.188C317.986 55.001 317.134 55.514 316.095 55.7269V55.8624C316.889 55.9915 317.608 56.2883 318.253 56.7528C318.905 57.2109 319.421 57.7884 319.802 58.4853C320.189 59.1757 320.386 59.9338 320.392 60.7597C320.386 61.8308 320.054 62.789 319.396 63.6343C318.737 64.4795 317.828 65.1473 316.666 65.6377C315.511 66.1216 314.188 66.3636 312.698 66.3636ZM312.698 63.2858C313.363 63.2858 313.943 63.1665 314.44 62.9277C314.937 62.6825 315.324 62.347 315.602 61.9212C315.885 61.4888 316.027 60.992 316.027 60.4307C316.027 59.8564 315.882 59.3499 315.592 58.9111C315.302 58.4659 314.908 58.1175 314.411 57.8659C313.914 57.6078 313.343 57.4787 312.698 57.4787C312.059 57.4787 311.488 57.6078 310.985 57.8659C310.482 58.1175 310.085 58.4659 309.794 58.9111C309.511 59.3499 309.369 59.8564 309.369 60.4307C309.369 60.992 309.507 61.4888 309.785 61.9212C310.062 62.347 310.453 62.6825 310.956 62.9277C311.459 63.1665 312.04 63.2858 312.698 63.2858ZM312.698 54.43C313.253 54.43 313.746 54.3171 314.179 54.0912C314.611 53.8654 314.95 53.5525 315.195 53.1524C315.44 52.7524 315.563 52.291 315.563 51.7684C315.563 51.2522 315.44 50.8005 315.195 50.4134C314.95 50.0198 314.614 49.7133 314.188 49.4939C313.763 49.2681 313.266 49.1552 312.698 49.1552C312.137 49.1552 311.64 49.2681 311.207 49.4939C310.775 49.7133 310.436 50.0198 310.191 50.4134C309.953 50.8005 309.833 51.2522 309.833 51.7684C309.833 52.291 309.956 52.7524 310.201 53.1524C310.446 53.5525 310.785 53.8654 311.217 54.0912C311.649 54.3171 312.143 54.43 312.698 54.43Z" fill="#9CA3AF"/>
<path d="M293.138 51.2264L295.867 56.4238L298.664 51.2264H302.894L298.587 58.6595L303.01 66.0926H298.8L295.867 60.9533L292.983 66.0926H288.724L293.138 58.6595L288.879 51.2264H293.138Z" fill="#9CA3AF"/>
<path opacity="0.4" d="M353.549 9.27114H273.688C270.144 9.27114 267.271 12.1443 267.271 15.6885V95.5489C267.271 99.0932 270.144 101.966 273.688 101.966H353.549C357.093 101.966 359.966 99.0932 359.966 95.5489V15.6885C359.966 12.1443 357.093 9.27114 353.549 9.27114Z" stroke="url(#paint10_linear_12_1118)" stroke-width="0.806"/>
<path d="M353.549 3.56541H273.687C266.992 3.56541 261.565 8.99231 261.565 15.6867V95.549C261.565 102.243 266.992 107.67 273.687 107.67H353.549C360.243 107.67 365.67 102.243 365.67 95.549V15.6867C365.67 8.99231 360.243 3.56541 353.549 3.56541Z" stroke="url(#paint11_linear_12_1118)" stroke-width="0.806"/>
<defs>
<linearGradient id="paint0_linear_12_1118" x1="53.012" y1="130.711" x2="53.012" y2="45.5041" gradientUnits="userSpaceOnUse">
<stop offset="0.182" stop-color="#AD7AFF"/>
<stop offset="1" stop-color="#17141E" stop-opacity="0"/>
</linearGradient>
<radialGradient id="paint1_radial_12_1118" cx="0" cy="0" r="1" gradientUnits="userSpaceOnUse" gradientTransform="translate(55.6178 55.6178) rotate(90) scale(51.339 51.339)">
<stop offset="0.161" stop-color="#6646EB" stop-opacity="0.54"/>
<stop offset="1" stop-color="#040D15" stop-opacity="0"/>
</radialGradient>
<linearGradient id="paint2_linear_12_1118" x1="7.13081" y1="23.7611" x2="97.4343" y2="101.313" gradientUnits="userSpaceOnUse">
<stop stop-color="#1D0062" stop-opacity="0"/>
<stop offset="1" stop-color="#070317"/>
</linearGradient>
<linearGradient id="paint3_linear_12_1118" x1="55.6178" y1="4.27885" x2="55.6178" y2="106.957" gradientUnits="userSpaceOnUse">
<stop stop-color="#DECFFF" stop-opacity="0.36"/>
<stop offset="1" stop-color="white" stop-opacity="0.15"/>
</linearGradient>
<linearGradient id="paint4_linear_12_1118" x1="182.012" y1="130.711" x2="182.012" y2="45.5041" gradientUnits="userSpaceOnUse">
<stop offset="0.182" stop-color="#AD7AFF"/>
<stop offset="1" stop-color="#17141E" stop-opacity="0"/>
</linearGradient>
<radialGradient id="paint5_radial_12_1118" cx="0" cy="0" r="1" gradientUnits="userSpaceOnUse" gradientTransform="translate(184.618 55.6178) rotate(90) scale(51.339 51.339)">
<stop offset="0.161" stop-color="#6646EB" stop-opacity="0.54"/>
<stop offset="1" stop-color="#040D15" stop-opacity="0"/>
</radialGradient>
<linearGradient id="paint6_linear_12_1118" x1="136.131" y1="23.7611" x2="226.434" y2="101.313" gradientUnits="userSpaceOnUse">
<stop stop-color="#1D0062" stop-opacity="0"/>
<stop offset="1" stop-color="#070317"/>
</linearGradient>
<linearGradient id="paint7_linear_12_1118" x1="184.618" y1="4.27885" x2="184.618" y2="106.957" gradientUnits="userSpaceOnUse">
<stop stop-color="#DECFFF" stop-opacity="0.36"/>
<stop offset="1" stop-color="white" stop-opacity="0.15"/>
</linearGradient>
<linearGradient id="paint8_linear_12_1118" x1="311.012" y1="130.711" x2="311.012" y2="45.5041" gradientUnits="userSpaceOnUse">
<stop offset="0.182" stop-color="#AD7AFF"/>
<stop offset="1" stop-color="#17141E" stop-opacity="0"/>
</linearGradient>
<radialGradient id="paint9_radial_12_1118" cx="0" cy="0" r="1" gradientUnits="userSpaceOnUse" gradientTransform="translate(313.618 55.6178) rotate(90) scale(51.339 51.339)">
<stop offset="0.161" stop-color="#6646EB" stop-opacity="0.54"/>
<stop offset="1" stop-color="#040D15" stop-opacity="0"/>
</radialGradient>
<linearGradient id="paint10_linear_12_1118" x1="265.131" y1="23.7611" x2="355.434" y2="101.313" gradientUnits="userSpaceOnUse">
<stop stop-color="#1D0062" stop-opacity="0"/>
<stop offset="1" stop-color="#070317"/>
</linearGradient>
<linearGradient id="paint11_linear_12_1118" x1="313.618" y1="4.27885" x2="313.618" y2="106.957" gradientUnits="userSpaceOnUse">
<stop stop-color="#DECFFF" stop-opacity="0.36"/>
<stop offset="1" stop-color="white" stop-opacity="0.15"/>
</linearGradient>
<clipPath id="clip0_12_1118">
<rect width="58" height="23" fill="white" transform="translate(156 46)"/>
</clipPath>
</defs>
</svg>
