<svg width="364" height="106" viewBox="0 0 364 106" fill="none" xmlns="http://www.w3.org/2000/svg">
<path d="M92.5472 3.41739H12.6867C7.56739 3.41739 3.41736 7.56743 3.41736 12.6867V92.5472C3.41736 97.6665 7.56739 101.817 12.6867 101.817H92.5472C97.6665 101.817 101.817 97.6665 101.817 92.5472V12.6867C101.817 7.56743 97.6665 3.41739 92.5472 3.41739Z" fill="#27272A"/>
<g opacity="0.2">
<path d="M92.5472 3.41739H12.6867C7.56739 3.41739 3.41736 7.56743 3.41736 12.6867V92.5472C3.41736 97.6665 7.56739 101.817 12.6867 101.817H92.5472C97.6665 101.817 101.817 97.6665 101.817 92.5472V12.6867C101.817 7.56743 97.6665 3.41739 92.5472 3.41739Z" stroke="#B0AEF9" stroke-width="2.417"/>
<path d="M92.5472 3.41739H12.6867C7.56739 3.41739 3.41736 7.56743 3.41736 12.6867V92.5472C3.41736 97.6665 7.56739 101.817 12.6867 101.817H92.5472C97.6665 101.817 101.817 97.6665 101.817 92.5472V12.6867C101.817 7.56743 97.6665 3.41739 92.5472 3.41739Z" stroke="#904443" stroke-opacity="0.2" stroke-width="2.417"/>
</g>
<path opacity="0.4" d="M92.5489 6.27115H12.6885C9.14424 6.27115 6.27109 9.14431 6.27109 12.6885V92.549C6.27109 96.0932 9.14424 98.9663 12.6885 98.9663H92.5489C96.0931 98.9663 98.9663 96.0932 98.9663 92.549V12.6885C98.9663 9.14431 96.0931 6.27115 92.5489 6.27115Z" stroke="url(#paint0_linear_12_1118)" stroke-width="0.806"/>
<path d="M92.5489 0.56543H12.6867C5.99224 0.56543 0.565338 5.99233 0.565338 12.6867V92.549C0.565338 99.2434 5.99224 104.67 12.6867 104.67H92.5489C99.2433 104.67 104.67 99.2434 104.67 92.549V12.6867C104.67 5.99233 99.2433 0.56543 92.5489 0.56543Z" stroke="url(#paint1_linear_12_1118)" stroke-width="0.806"/>
<path d="M59.4846 43.4747H63.6391V45.1393C64.1613 44.4649 64.8315 43.9213 65.5973 43.551C66.3631 43.1808 67.2036 42.9939 68.0531 43.0052C68.9874 42.9902 69.9088 43.2269 70.7217 43.6907C71.5346 44.1545 72.2096 44.8286 72.6767 45.6432C74.1603 43.509 76.4092 43.0052 77.9766 43.0052C80.139 43.0052 82.0472 44.0287 83.0668 45.8226C83.405 46.4214 84 47.7431 84 50.3468V61.445H79.8429V51.5418C79.8429 49.5369 79.6306 48.7244 79.4602 48.3419C79.1981 47.6587 78.569 46.7591 77.0855 46.7591C76.6009 46.768 76.1253 46.8921 75.6976 47.1213C75.2698 47.3506 74.902 47.6784 74.6242 48.0781C73.9034 49.1017 73.8195 50.6396 73.8195 52.175V61.445H69.6624V51.5418C69.6624 49.5369 69.4501 48.7244 69.2797 48.3419C69.0176 47.6587 68.3886 46.7591 66.905 46.7591C66.4209 46.7682 65.9458 46.8924 65.5184 47.1217C65.0911 47.3509 64.7238 47.6786 64.4464 48.0781C63.7256 49.1017 63.6391 50.6396 63.6391 52.175V61.445H59.4846V43.4747ZM45.0947 43.4747H49.2518V45.0971C49.7483 44.5094 50.335 44.0054 50.9896 43.604C51.7666 43.1712 52.6476 42.9639 53.5347 43.0052C54.6811 42.9788 55.8121 43.2748 56.8006 43.8599L55.0942 47.6587C54.4673 47.2358 53.7284 47.0125 52.9737 47.0176C52.0826 47.0176 51.1914 47.1442 50.3867 47.999C49.2413 49.2362 49.2413 50.943 49.2413 52.138V61.445H45.0973L45.0947 43.4747ZM26.2357 52.5232C26.2357 55.6387 28.1858 58.2425 31.1975 58.2425C33.8186 58.2425 36.2431 56.322 36.2431 52.5654C36.2431 48.6374 33.8265 46.7617 31.1975 46.7617C28.1858 46.7617 26.2357 49.3233 26.2357 52.5232ZM35.9889 43.4747H40.1539V61.445H35.9915V59.5668C35.3352 60.3444 34.5156 60.9659 33.5919 61.3865C32.6682 61.8071 31.6633 62.0163 30.6497 61.999C25.1453 61.999 22 57.3904 22 52.4388C22 46.5903 25.9867 43.0052 30.6942 43.0052C31.7158 42.9832 32.7282 43.2037 33.6494 43.6487C34.5706 44.0937 35.3748 44.7507 35.9968 45.5667L35.9889 43.4747Z" fill="#008FBE"/>
<path d="M221.547 3.41739H141.687C136.567 3.41739 132.417 7.56742 132.417 12.6867V92.5472C132.417 97.6665 136.567 101.817 141.687 101.817H221.547C226.666 101.817 230.817 97.6665 230.817 92.5472V12.6867C230.817 7.56742 226.666 3.41739 221.547 3.41739Z" fill="#27272A"/>
<g opacity="0.2">
<path d="M221.547 3.41739H141.687C136.567 3.41739 132.417 7.56743 132.417 12.6867V92.5472C132.417 97.6665 136.567 101.817 141.687 101.817H221.547C226.666 101.817 230.816 97.6665 230.816 92.5472V12.6867C230.816 7.56743 226.666 3.41739 221.547 3.41739Z" stroke="#B0AEF9" stroke-width="2.417"/>
<path d="M221.547 3.41739H141.687C136.567 3.41739 132.417 7.56743 132.417 12.6867V92.5472C132.417 97.6665 136.567 101.817 141.687 101.817H221.547C226.666 101.817 230.816 97.6665 230.816 92.5472V12.6867C230.816 7.56743 226.666 3.41739 221.547 3.41739Z" stroke="black" stroke-opacity="0.2" stroke-width="2.417"/>
</g>
<path opacity="0.4" d="M221.549 6.27115H141.688C138.144 6.27115 135.271 9.14431 135.271 12.6885V92.549C135.271 96.0932 138.144 98.9663 141.688 98.9663H221.549C225.093 98.9663 227.966 96.0932 227.966 92.549V12.6885C227.966 9.14431 225.093 6.27115 221.549 6.27115Z" stroke="url(#paint2_linear_12_1118)" stroke-width="0.806"/>
<g clip-path="url(#clip0_12_1118)">
<path d="M172.001 60.9218C171.665 61.7051 171.249 62.4518 170.759 63.15C170.109 64.08 169.575 64.7193 169.168 65.0778C168.527 65.659 167.848 65.9593 167.12 65.9787C166.596 65.9787 165.965 65.8334 165.228 65.5234C164.584 65.2446 163.892 65.0932 163.19 65.0778C162.469 65.0908 161.757 65.242 161.094 65.5234C160.346 65.8237 159.745 65.9787 159.279 65.9981C158.58 66.0271 157.881 65.7171 157.183 65.0681C156.736 64.6806 156.183 64.0121 155.513 63.0725C154.762 61.9957 154.168 60.8183 153.747 59.5753C153.252 58.1415 153 56.7562 153 55.4097C153 53.8694 153.33 52.5422 154 51.4281C154.506 50.5545 155.228 49.8243 156.096 49.3066C156.952 48.7912 157.93 48.5136 158.929 48.5025C159.483 48.5025 160.22 48.6769 161.123 49.0159C162.025 49.355 162.607 49.5294 162.86 49.5294C163.054 49.5294 163.694 49.3259 164.791 48.9287C165.826 48.5606 166.7 48.4056 167.411 48.4638C169.352 48.6188 170.808 49.3841 171.778 50.7597C170.041 51.8059 169.187 53.2784 169.207 55.1578C169.226 56.6303 169.76 57.8509 170.808 58.8197C171.274 59.2578 171.812 59.6119 172.399 59.8659C172.283 60.234 172.147 60.5828 172.001 60.9218ZM167.557 43.465C167.557 44.6178 167.139 45.6931 166.295 46.6813C165.286 47.8631 164.053 48.5413 162.734 48.4347C162.714 48.2902 162.704 48.1446 162.704 47.9988C162.704 46.8944 163.19 45.7125 164.044 44.7438C164.497 44.2295 165.052 43.814 165.674 43.5231C166.254 43.2256 166.887 43.0477 167.537 43C167.547 43.155 167.557 43.31 167.557 43.465Z" fill="white"/>
<path d="M196.476 65.6396V51.1084H196.379L190.452 65.6396H187.95L182.022 51.1084H181.925V65.6396H178.61V45.1623H182.861L189.144 60.7862H189.258L195.542 45.1623H199.776V65.6396H196.476Z" fill="white"/>
<path d="M207.403 48.6536H207.318L202.016 52.2864V48.9229L207.375 45.1623H211V65.6396H207.403V48.6536Z" fill="white"/>
</g>
<path d="M221.549 0.56543H141.687C134.992 0.56543 129.565 5.99233 129.565 12.6867V92.549C129.565 99.2434 134.992 104.67 141.687 104.67H221.549C228.243 104.67 233.67 99.2434 233.67 92.549V12.6867C233.67 5.99233 228.243 0.56543 221.549 0.56543Z" stroke="url(#paint3_linear_12_1118)" stroke-width="0.806"/>
<path d="M350.547 3.41739H270.687C265.567 3.41739 261.417 7.56743 261.417 12.6867V92.5472C261.417 97.6665 265.567 101.817 270.687 101.817H350.547C355.666 101.817 359.817 97.6665 359.817 92.5472V12.6867C359.817 7.56743 355.666 3.41739 350.547 3.41739Z" fill="#27272A"/>
<g opacity="0.2">
<path d="M350.547 3.41739H270.687C265.567 3.41739 261.417 7.56743 261.417 12.6867V92.5472C261.417 97.6665 265.567 101.817 270.687 101.817H350.547C355.666 101.817 359.816 97.6665 359.816 92.5472V12.6867C359.816 7.56743 355.666 3.41739 350.547 3.41739Z" stroke="#B0AEF9" stroke-width="2.417"/>
<path d="M350.547 3.41739H270.687C265.567 3.41739 261.417 7.56743 261.417 12.6867V92.5472C261.417 97.6665 265.567 101.817 270.687 101.817H350.547C355.666 101.817 359.816 97.6665 359.816 92.5472V12.6867C359.816 7.56743 355.666 3.41739 350.547 3.41739Z" stroke="black" stroke-opacity="0.2" stroke-width="2.417"/>
</g>
<path d="M327.93 63.3636C326.91 63.3572 325.926 63.1862 324.978 62.8506C324.036 62.5151 323.191 61.9699 322.442 61.215C321.694 60.4601 321.1 59.4599 320.661 58.2146C320.229 56.9693 320.013 55.4401 320.013 53.627C320.019 51.9623 320.21 50.4751 320.584 49.1652C320.965 47.8489 321.507 46.7327 322.21 45.8165C322.92 44.9002 323.768 44.2034 324.755 43.7259C325.742 43.242 326.849 43 328.075 43C329.398 43 330.566 43.2581 331.579 43.7743C332.592 44.284 333.405 44.9777 334.018 45.8552C334.637 46.7327 335.011 47.7167 335.14 48.8071H331.008C330.846 48.1167 330.508 47.5747 329.991 47.1811C329.475 46.7875 328.836 46.5907 328.075 46.5907C326.785 46.5907 325.804 47.1521 325.133 48.2748C324.468 49.3975 324.129 50.9235 324.117 52.8527H324.252C324.549 52.2656 324.949 51.7655 325.452 51.3526C325.962 50.9332 326.539 50.6138 327.185 50.3944C327.836 50.1686 328.523 50.0557 329.246 50.0557C330.42 50.0557 331.466 50.3331 332.382 50.888C333.298 51.4365 334.021 52.1914 334.55 53.1528C335.079 54.1142 335.344 55.2143 335.344 56.4531C335.344 57.7952 335.031 58.9889 334.405 60.0342C333.785 61.0795 332.918 61.8989 331.801 62.4925C330.691 63.0797 329.401 63.3701 327.93 63.3636ZM327.91 60.0729C328.556 60.0729 329.133 59.9181 329.643 59.6083C330.153 59.2986 330.553 58.8792 330.843 58.3501C331.133 57.821 331.279 57.2274 331.279 56.5693C331.279 55.9112 331.133 55.3208 330.843 54.7981C330.559 54.2755 330.166 53.8593 329.662 53.5496C329.159 53.2399 328.585 53.085 327.94 53.085C327.456 53.085 327.007 53.1754 326.594 53.356C326.188 53.5367 325.83 53.7883 325.52 54.1109C325.217 54.4336 324.978 54.8078 324.804 55.2337C324.629 55.6531 324.542 56.1015 324.542 56.579C324.542 57.2178 324.688 57.8017 324.978 58.3308C325.275 58.8599 325.675 59.2825 326.178 59.5987C326.688 59.9148 327.265 60.0729 327.91 60.0729Z" fill="#E0E0E0"/>
<path d="M309.698 63.3636C308.207 63.3636 306.882 63.1216 305.72 62.6377C304.565 62.1473 303.659 61.4795 303 60.6343C302.342 59.789 302.013 58.8308 302.013 57.7597C302.013 56.9338 302.2 56.1757 302.575 55.4853C302.955 54.7884 303.471 54.211 304.123 53.7528C304.775 53.2883 305.504 52.9915 306.31 52.8624V52.7269C305.252 52.514 304.394 52.001 303.736 51.188C303.078 50.3686 302.749 49.4169 302.749 48.3329C302.749 47.307 303.049 46.3939 303.649 45.5939C304.249 44.7873 305.072 44.155 306.117 43.6969C307.169 43.2323 308.362 43 309.698 43C311.034 43 312.224 43.2323 313.269 43.6969C314.321 44.1614 315.147 44.797 315.747 45.6035C316.347 46.4036 316.65 47.3134 316.657 48.3329C316.65 49.4233 316.315 50.375 315.65 51.188C314.986 52.001 314.134 52.514 313.095 52.7269V52.8624C313.889 52.9915 314.608 53.2883 315.253 53.7528C315.905 54.211 316.421 54.7884 316.802 55.4853C317.189 56.1757 317.386 56.9338 317.392 57.7597C317.386 58.8308 317.054 59.789 316.395 60.6343C315.737 61.4795 314.828 62.1473 313.666 62.6377C312.511 63.1216 311.188 63.3636 309.698 63.3636ZM309.698 60.2858C310.363 60.2858 310.943 60.1665 311.44 59.9277C311.937 59.6825 312.324 59.347 312.602 58.9212C312.885 58.4889 313.027 57.992 313.027 57.4307C313.027 56.8564 312.882 56.3499 312.592 55.9112C312.301 55.4659 311.908 55.1175 311.411 54.8659C310.914 54.6078 310.343 54.4787 309.698 54.4787C309.059 54.4787 308.488 54.6078 307.985 54.8659C307.482 55.1175 307.085 55.4659 306.794 55.9112C306.51 56.3499 306.369 56.8564 306.369 57.4307C306.369 57.992 306.507 58.4889 306.785 58.9212C307.062 59.347 307.453 59.6825 307.956 59.9277C308.459 60.1665 309.04 60.2858 309.698 60.2858ZM309.698 51.43C310.253 51.43 310.746 51.3171 311.179 51.0913C311.611 50.8654 311.95 50.5525 312.195 50.1524C312.44 49.7524 312.563 49.291 312.563 48.7684C312.563 48.2522 312.44 47.8006 312.195 47.4134C311.95 47.0198 311.614 46.7133 311.188 46.494C310.763 46.2681 310.266 46.1552 309.698 46.1552C309.137 46.1552 308.64 46.2681 308.207 46.494C307.775 46.7133 307.436 47.0198 307.191 47.4134C306.952 47.8006 306.833 48.2522 306.833 48.7684C306.833 49.291 306.956 49.7524 307.201 50.1524C307.446 50.5525 307.785 50.8654 308.217 51.0913C308.649 51.3171 309.143 51.43 309.698 51.43Z" fill="#E0E0E0"/>
<path d="M290.138 48.2264L292.867 53.4238L295.664 48.2264H299.894L295.587 55.6595L300.01 63.0926H295.8L292.867 57.9533L289.983 63.0926H285.724L290.138 55.6595L285.879 48.2264H290.138Z" fill="#E0E0E0"/>
<path opacity="0.4" d="M350.549 6.27115H270.688C267.144 6.27115 264.271 9.14431 264.271 12.6885V92.549C264.271 96.0932 267.144 98.9663 270.688 98.9663H350.549C354.093 98.9663 356.966 96.0932 356.966 92.549V12.6885C356.966 9.14431 354.093 6.27115 350.549 6.27115Z" stroke="url(#paint4_linear_12_1118)" stroke-width="0.806"/>
<path d="M350.549 0.56543H270.687C263.992 0.56543 258.565 5.99233 258.565 12.6867V92.549C258.565 99.2434 263.992 104.67 270.687 104.67H350.549C357.243 104.67 362.67 99.2434 362.67 92.549V12.6867C362.67 5.99233 357.243 0.56543 350.549 0.56543Z" stroke="url(#paint5_linear_12_1118)" stroke-width="0.806"/>
<defs>
<linearGradient id="paint0_linear_12_1118" x1="4.13078" y1="20.7611" x2="94.4343" y2="98.3131" gradientUnits="userSpaceOnUse">
<stop stop-color="#1D0062" stop-opacity="0"/>
<stop offset="1" stop-color="#070317"/>
</linearGradient>
<linearGradient id="paint1_linear_12_1118" x1="52.6178" y1="1.27886" x2="52.6178" y2="103.957" gradientUnits="userSpaceOnUse">
<stop stop-color="#DECFFF" stop-opacity="0"/>
<stop offset="1" stop-color="white" stop-opacity="0.15"/>
</linearGradient>
<linearGradient id="paint2_linear_12_1118" x1="133.131" y1="20.7611" x2="223.434" y2="98.3131" gradientUnits="userSpaceOnUse">
<stop stop-color="#1D0062" stop-opacity="0"/>
<stop offset="1" stop-color="#070317"/>
</linearGradient>
<linearGradient id="paint3_linear_12_1118" x1="181.618" y1="1.27886" x2="181.618" y2="103.957" gradientUnits="userSpaceOnUse">
<stop stop-color="#DECFFF" stop-opacity="0.36"/>
<stop offset="1" stop-color="white" stop-opacity="0.15"/>
</linearGradient>
<linearGradient id="paint4_linear_12_1118" x1="262.131" y1="20.7611" x2="352.434" y2="98.3131" gradientUnits="userSpaceOnUse">
<stop stop-color="#1D0062" stop-opacity="0"/>
<stop offset="1" stop-color="#070317"/>
</linearGradient>
<linearGradient id="paint5_linear_12_1118" x1="310.618" y1="1.27886" x2="310.618" y2="103.957" gradientUnits="userSpaceOnUse">
<stop stop-color="#DECFFF" stop-opacity="0.36"/>
<stop offset="1" stop-color="white" stop-opacity="0.15"/>
</linearGradient>
<clipPath id="clip0_12_1118">
<rect width="58" height="23" fill="white" transform="translate(153 43)"/>
</clipPath>
</defs>
</svg>
