<svg width="446" height="345" viewBox="0 0 446 345" fill="none" xmlns="http://www.w3.org/2000/svg">
<mask id="mask0_1_47" style="mask-type:luminance" maskUnits="userSpaceOnUse" x="0" y="0" width="446" height="345">
<path d="M0 0H446V345H0V0Z" fill="white"/>
</mask>
<g mask="url(#mask0_1_47)">
<g opacity="0.5">
<mask id="mask1_1_47" style="mask-type:luminance" maskUnits="userSpaceOnUse" x="0" y="35" width="443" height="223">
<g opacity="0.5">
<path d="M443 257.5C443.001 213.691 430.011 170.865 405.672 134.44C381.333 98.0137 346.739 69.6237 306.264 52.86C265.79 36.0947 221.254 31.7081 178.287 40.2549C135.32 48.8017 95.8528 69.8981 64.876 100.876C44.3076 121.444 27.9919 145.862 16.8605 172.736C5.72902 199.609 -0.000177651 228.412 4.13151e-09 257.5H1.2C1.19978 221.271 10.1343 185.602 27.2122 153.651C44.29 121.7 68.9841 94.4546 99.107 74.327C129.23 54.1995 163.852 41.8115 199.906 38.2605C235.96 34.7094 272.333 40.1049 305.804 53.969C332.532 65.0398 356.818 81.2669 377.275 101.724C397.732 122.181 413.959 146.467 425.03 173.195C436.101 199.923 441.8 228.57 441.8 257.5H443Z" fill="white"/>
</g>
</mask>
<g mask="url(#mask1_1_47)">
<path d="M443 257.5C443.001 213.691 430.011 170.865 405.672 134.44C381.333 98.0137 346.739 69.6237 306.264 52.86C265.79 36.0947 221.254 31.7081 178.287 40.2549C135.32 48.8017 95.8528 69.8981 64.876 100.876C44.3076 121.444 27.9919 145.862 16.8605 172.736C5.72902 199.609 -0.000177651 228.412 4.13151e-09 257.5H1.2C1.19978 221.271 10.1343 185.602 27.2122 153.651C44.29 121.7 68.9841 94.4546 99.107 74.327C129.23 54.1995 163.852 41.8115 199.906 38.2605C235.96 34.7094 272.333 40.1049 305.804 53.969C332.532 65.0398 356.818 81.2669 377.275 101.724C397.732 122.181 413.959 146.467 425.03 173.195C436.101 199.923 441.8 228.57 441.8 257.5H443Z" stroke="url(#paint0_linear_1_47)" stroke-width="2" stroke-dasharray="6 6"/>
</g>
</g>
<path opacity="0.2" d="M70 267.5C70.0005 227.32 85.9623 188.786 114.374 160.374C142.786 131.962 181.32 116.001 221.5 116C261.68 116 300.215 131.962 328.627 160.373C357.038 188.785 373 227.32 373 267.5H70Z" fill="url(#paint1_linear_1_47)"/>
<path d="M258 36C258 16.1177 241.882 0 222 0C202.118 0 186 16.1177 186 36C186 55.8823 202.118 72 222 72C241.882 72 258 55.8823 258 36Z" fill="#34304E"/>
<path d="M232.162 53.3149C229.9 55.5313 227.431 55.1813 225.054 54.1315C222.539 53.0583 220.231 53.0116 217.577 54.1315C214.254 55.578 212.501 55.158 210.516 53.3149C199.255 41.5797 200.916 23.7086 213.701 23.0554C216.816 23.2187 218.985 24.7818 220.808 24.9218C223.531 24.3619 226.139 22.7521 229.046 22.9621C232.531 23.242 235.162 24.6419 236.892 27.1615C229.693 31.5243 231.4 41.1131 238 43.7961C236.685 47.2957 234.977 50.7719 232.139 53.3382L232.162 53.3149ZM220.577 22.9154C220.231 17.7127 224.408 13.4199 229.208 13C229.877 19.0192 223.808 23.4987 220.577 22.9154Z" fill="white"/>
<path d="M113 87C113 70.9837 100.016 58 84 58C67.9837 58 55 70.9837 55 87C55 103.016 67.9837 116 84 116C100.016 116 113 103.016 113 87Z" fill="#34304E"/>
<path d="M93 75L80.6115 76.8134V86.0025L93 85.904V75ZM70.0068 86.9996L70.0074 94.819L79.3988 96.1067L79.3914 87.0604L70.0068 86.9996ZM80.513 87.1249L80.5304 96.2465L92.9884 98L92.9913 87.1454L80.513 87.1249ZM70 78.2566L70.0087 86.0722L79.4001 86.0189L79.3958 76.9801L70 78.2566Z" fill="#00ADEF"/>
<path d="M389 87C389 70.9837 376.016 58 360 58C343.984 58 331 70.9837 331 87C331 103.016 343.984 116 360 116C376.016 116 389 103.016 389 87Z" fill="#34304E"/>
<path d="M357.282 79.7843L357.361 81.601L356.097 83.9706L354.122 87.8409L353.727 91.0793L355.149 95.6605L358.387 97.4772H363.285L367.866 94.0018L369.919 88.5518L365.18 82.7858L363.837 79.5473L357.282 79.7843Z" fill="#ECEFF1"/>
<path d="M368.498 84.2865C367.234 82.4698 366.207 81.364 365.654 79.0734C365.101 76.7828 365.812 77.4147 365.338 75.4401C365.101 74.4132 364.706 73.7024 364.312 73.1495C363.838 72.5965 363.285 72.2806 362.969 72.2016C362.258 71.8067 360.599 71.1748 358.546 72.2806C356.413 73.3864 356.65 75.756 357.045 80.5742C357.045 80.8901 356.966 81.285 356.808 81.601C356.492 82.3119 355.939 82.9438 355.465 83.4967C354.912 84.2865 354.359 85.0764 353.964 85.9452C353.016 87.7619 352.148 90.0525 352.385 90.9214C352.78 90.8424 357.756 98.4251 357.756 98.583C358.072 98.504 359.414 98.504 360.599 98.504C362.258 98.4251 363.206 98.3461 364.548 98.662C364.548 98.4251 364.47 98.1881 364.47 97.9511C364.47 97.4772 364.548 97.0823 364.627 96.5294C364.706 96.1345 364.785 95.7395 364.864 95.2656C364.075 95.9765 362.653 96.7663 361.31 97.0033C360.125 97.2403 358.151 96.8453 357.203 95.6605C357.282 95.6605 357.44 95.6605 357.519 95.5816C357.756 95.5026 357.993 95.4236 358.072 95.2656C358.309 94.8707 358.151 94.4757 357.993 94.2388C357.835 94.0018 356.65 93.133 356.097 92.6591C355.544 92.1851 355.228 91.9482 354.912 91.6322L354.28 91.0004C354.122 90.8424 354.043 90.6844 353.964 90.6054C353.806 90.2105 353.727 89.7366 353.806 89.1047C353.885 88.2358 354.201 87.525 354.596 86.7351C354.754 86.4191 355.149 85.7873 355.149 85.7873C355.149 85.7873 353.806 89.1047 354.517 90.1315C354.517 90.1315 354.596 89.1047 354.912 88.0779C355.149 87.367 355.544 86.3402 356.018 85.7873C356.492 85.2344 357.677 83.1807 357.756 81.9169C357.756 81.364 357.835 80.8111 357.835 80.4162C357.519 80.1002 363.048 79.3104 363.364 80.1792C363.443 80.4952 364.548 83.3387 365.18 84.8394C365.496 85.5503 365.891 86.1822 366.128 86.9721C366.365 87.8409 366.523 89.0257 366.523 90.2105C366.523 90.4474 366.523 90.8424 366.444 91.2373C366.602 91.2373 369.683 87.9199 366.049 85.1554C366.049 85.1554 368.261 86.1822 368.34 88.2358C368.419 89.8945 367.708 91.2373 367.55 91.4743C367.629 91.4743 369.209 92.1851 369.288 92.1851C369.604 92.1851 370.236 91.9482 370.236 91.9482C370.314 91.7112 370.551 91.0793 370.551 90.8424C371.104 89.0257 369.762 86.1032 368.498 84.2865Z" fill="#263238"/>
<path d="M358.466 79.0735C359.033 79.0735 359.493 78.3662 359.493 77.4937C359.493 76.6213 359.033 75.914 358.466 75.914C357.899 75.914 357.439 76.6213 357.439 77.4937C357.439 78.3662 357.899 79.0735 358.466 79.0735Z" fill="#ECEFF1"/>
<path d="M362.021 79.2314C362.762 79.2314 363.363 78.4181 363.363 77.4147C363.363 76.4114 362.762 75.5981 362.021 75.5981C361.279 75.5981 360.678 76.4114 360.678 77.4147C360.678 78.4181 361.279 79.2314 362.021 79.2314Z" fill="#ECEFF1"/>
<path d="M359.04 77.6017C358.974 77.0823 358.676 76.6924 358.373 76.7307C358.07 76.769 357.877 77.221 357.943 77.7404C358.009 78.2597 358.307 78.6497 358.61 78.6114C358.913 78.5731 359.106 78.121 359.04 77.6017Z" fill="#212121"/>
<path d="M361.941 78.7575C362.378 78.7575 362.731 78.2977 362.731 77.7306C362.731 77.1636 362.378 76.7038 361.941 76.7038C361.505 76.7038 361.152 77.1636 361.152 77.7306C361.152 78.2977 361.505 78.7575 361.941 78.7575Z" fill="#212121"/>
<path d="M372.447 95.1077C372.131 94.9497 371.578 94.7127 371.104 94.0019C370.867 93.6069 370.946 92.5011 370.551 92.0272C370.314 91.7113 369.999 91.8692 369.92 91.8692C369.209 92.0272 367.55 93.133 366.444 91.8692C366.286 91.7113 366.049 91.4743 365.654 91.4743C365.259 91.4743 365.101 91.6323 364.943 91.9482C364.785 92.2642 364.785 92.5011 364.785 93.291C364.785 93.9229 364.785 94.6337 364.706 95.1867C364.548 96.5294 364.312 97.3193 364.312 98.1091C364.312 98.978 364.548 99.5309 364.864 99.7679C365.101 100.005 365.496 100.163 366.365 100.163C367.234 100.163 367.787 99.8468 368.34 99.2939C368.735 98.899 369.051 98.741 370.156 97.9512C371.025 97.3983 372.368 96.6874 372.605 96.4504C372.763 96.2925 373 96.2135 373 95.7396C373 95.3446 372.684 95.1867 372.447 95.1077ZM356.571 95.3446C355.781 94.0808 355.702 93.8439 355.149 93.054C354.675 92.2642 353.648 90.7634 353.016 90.7634C352.543 90.7634 352.306 91.0004 351.99 91.3163C351.674 91.6323 351.358 92.3431 350.805 92.7381C350.331 93.133 348.988 93.054 348.672 93.5279C348.356 94.0019 348.988 94.7127 348.988 95.8975C348.988 96.3714 348.593 96.6874 348.514 97.0033C348.435 97.3983 348.356 97.6352 348.514 97.9512C348.83 98.4251 349.225 98.5831 351.911 99.136C353.332 99.4519 354.675 100.242 355.544 100.321C356.413 100.4 357.914 100.321 357.914 98.1881C357.993 96.9243 357.282 96.6084 356.571 95.3446ZM358.072 81.0481C357.598 80.7322 357.203 80.4162 357.203 79.9423C357.203 79.4684 357.519 79.3104 357.993 78.9155C358.072 78.8365 358.94 78.0466 359.809 78.0466C360.678 78.0466 361.705 78.5995 362.1 78.7575C362.811 78.9155 363.522 79.0735 363.443 79.6264C363.364 80.4162 363.285 80.5742 362.495 80.9691C361.942 81.1271 360.915 81.9959 360.204 81.9959C359.888 81.9959 359.414 81.9959 359.098 81.917C358.861 81.838 358.467 81.443 358.072 81.0481Z" fill="#FFC107"/>
<path d="M357.914 80.4162C358.071 80.5742 358.308 80.7321 358.545 80.8111C358.703 80.8901 358.94 80.9691 358.94 80.9691H359.651C360.046 80.9691 360.599 80.8111 361.152 80.4952C361.705 80.2582 361.784 80.1003 362.179 79.9423C362.574 79.7053 362.969 79.4684 362.811 79.3894C362.653 79.3104 362.495 79.3894 361.942 79.7053C361.468 80.0213 361.073 80.1792 360.599 80.4162C360.362 80.4952 360.046 80.6532 359.809 80.6532H359.098C358.861 80.6532 358.703 80.5742 358.466 80.4952C358.308 80.4162 358.229 80.3372 358.15 80.3372C357.993 80.2582 357.677 79.9423 357.519 79.8633C357.519 79.8633 357.361 79.8633 357.44 79.9423L357.914 80.4162ZM360.283 78.6785C360.362 78.8365 360.52 78.8365 360.599 78.9155C360.678 78.9944 360.757 78.9944 360.757 78.9944C360.836 78.9155 360.757 78.7575 360.678 78.7575C360.678 78.5995 360.283 78.5995 360.283 78.6785ZM359.019 78.8365C359.019 78.9155 359.177 78.9944 359.177 78.9155C359.256 78.8365 359.335 78.7575 359.414 78.7575C359.572 78.6785 359.493 78.5995 359.256 78.5995C359.098 78.6785 359.098 78.7575 359.019 78.8365Z" fill="#634703"/>
<path d="M366.681 92.817V93.054C366.839 93.3699 367.234 93.4489 367.55 93.4489C368.024 93.4489 368.497 93.133 368.734 92.817C368.734 92.738 368.813 92.6591 368.892 92.5801C369.05 92.3431 369.129 92.1851 369.208 92.1061C369.208 92.1061 369.129 92.0272 369.129 91.9482C369.05 91.7902 368.813 91.6322 368.497 91.5532C368.261 91.4743 367.866 91.3953 367.708 91.3953C366.997 91.3163 366.602 91.5532 366.365 91.7902C366.365 91.7902 366.444 91.7902 366.444 91.8692C366.602 92.0272 366.681 92.1851 366.681 92.4221C366.76 92.5801 366.681 92.6591 366.681 92.817Z" fill="#455A64"/>
<g opacity="0.2">
<path d="M292.041 268C292.041 230.421 261.578 199.958 223.999 199.958C186.421 199.958 155.958 230.421 155.958 268C155.958 305.578 186.421 336.041 223.999 336.041C261.578 336.041 292.041 305.578 292.041 268Z" fill="url(#paint2_linear_1_47)"/>
<path d="M292.041 268C292.041 230.421 261.578 199.958 223.999 199.958C186.421 199.958 155.958 230.421 155.958 268C155.958 305.578 186.421 336.041 223.999 336.041C261.578 336.041 292.041 305.578 292.041 268Z" stroke="#B0AEF9" stroke-width="5.917"/>
<path d="M292.041 268C292.041 230.421 261.578 199.958 223.999 199.958C186.421 199.958 155.958 230.421 155.958 268C155.958 305.578 186.421 336.041 223.999 336.041C261.578 336.041 292.041 305.578 292.041 268Z" stroke="black" stroke-opacity="0.2" stroke-width="5.917"/>
</g>
<path opacity="0.5" d="M222.917 344.834C265.397 344.834 299.834 310.397 299.834 267.917C299.834 225.437 265.397 191 222.917 191C180.437 191 146 225.437 146 267.917C146 310.397 180.437 344.834 222.917 344.834Z" fill="url(#paint3_radial_1_47)"/>
<path d="M295.986 268C295.986 228.243 263.757 196.014 224 196.014C184.243 196.014 152.014 228.243 152.014 268C152.014 307.757 184.243 339.986 224 339.986C263.757 339.986 295.986 307.757 295.986 268Z" stroke="url(#paint4_linear_1_47)" stroke-width="1.972"/>
<path d="M283 268C283 235.415 256.585 209 224 209C191.415 209 165 235.415 165 268C165 300.585 191.415 327 224 327C256.585 327 283 300.585 283 268Z" fill="#34304E" fill-opacity="0.5"/>
<path d="M226.923 262.033L239.585 233L211.203 264.801L204.57 271.967H217.369H224.647L209.892 301L240.371 269.199L247 262.033H234.2H226.923Z" fill="#FFDC75"/>
<path d="M225.353 262.033L239.586 233L209.633 264.801L203 271.967H215.8H223.077L209.892 301L238.801 269.199L245.43 262.033H232.631H225.353Z" fill="#FEC928"/>
<path d="M203 271.967H206.925L213.559 264.801L239.586 233L209.633 264.801L203 271.967Z" fill="#EDA703"/>
<path d="M209.892 301L227.002 271.967H223.077L209.892 301Z" fill="#EDA703"/>
</g>
<defs>
<linearGradient id="paint0_linear_1_47" x1="221.5" y1="36" x2="221.5" y2="237.417" gradientUnits="userSpaceOnUse">
<stop stop-color="#BF98FF"/>
<stop offset="0.544" stop-color="white" stop-opacity="0"/>
</linearGradient>
<linearGradient id="paint1_linear_1_47" x1="229.188" y1="45.903" x2="229.188" y2="297.348" gradientUnits="userSpaceOnUse">
<stop offset="0.186" stop-color="#7A7FFF"/>
<stop offset="1" stop-color="#17141E" stop-opacity="0"/>
</linearGradient>
<linearGradient id="paint2_linear_1_47" x1="220.397" y1="371.851" x2="220.397" y2="254.012" gradientUnits="userSpaceOnUse">
<stop offset="0.182" stop-color="#AD7AFF"/>
<stop offset="1" stop-color="#17141E" stop-opacity="0"/>
</linearGradient>
<radialGradient id="paint3_radial_1_47" cx="0" cy="0" r="1" gradientUnits="userSpaceOnUse" gradientTransform="translate(222.917 267.917) rotate(90) scale(71)">
<stop offset="0.161" stop-color="#6646EB" stop-opacity="0.54"/>
<stop offset="1" stop-color="#040D15" stop-opacity="0"/>
</radialGradient>
<linearGradient id="paint4_linear_1_47" x1="224" y1="197" x2="224" y2="339" gradientUnits="userSpaceOnUse">
<stop stop-color="#DECFFF" stop-opacity="0.36"/>
<stop offset="1" stop-color="white" stop-opacity="0"/>
</linearGradient>
</defs>
</svg>
